<?xml version="1.0" encoding="utf-8"?>
<!-- Generator: Adobe Illustrator 20.1.0, SVG Export Plug-In . SVG Version: 6.00 Build 0)  -->
<svg version="1.1" id="Слой_1" xmlns="http://www.w3.org/2000/svg" xmlns:xlink="http://www.w3.org/1999/xlink" x="0px" y="0px"
	 viewBox="0 0 120 120" style="enable-background:new 0 0 120 120;" xml:space="preserve">
<style type="text/css">
	.st0{fill:#414756;stroke:#414756;stroke-miterlimit:10;}
	.st1{fill:#FFFFFF;}
</style>
<circle class="st0" cx="60" cy="60" r="60"/>
<g id="krokodil">
	<path class="st1" d="M79,62.5c0,0.1-0.1,0.4-0.1,0.5s-0.1,0.2-0.1,0.4c1.2-0.4,2.6-0.9,4.2-1c-1.5-4.7-4.2-9.7-5.8-9.7
		c-0.1,0-0.3,0.1-0.4,0.1c-0.9,0.7-3.4,2.6-4.3,5.4c1.9,1.5,3.8,3.1,5.5,5c0,0,0,0,0-0.1C78,63,78,63,78,63c0-0.1,0.1-0.1,0.1-0.2
		c0.1-0.1,0.1-0.3,0.1-0.4c0.1-0.1,0.1-0.3,0.1-0.5c0-0.1,0.1-0.4,0.1-0.5s0.1-0.4,0.1-0.5s0-0.4,0-0.5s0-0.4,0-0.5s0-0.3,0-0.4
		c0-0.3-0.1-0.5-0.1-0.7c0-0.1,0-0.2,0-0.2s0,0.1,0.1,0.2c0.1,0.1,0.1,0.4,0.2,0.7c0,0.1,0.1,0.3,0.1,0.4s0.1,0.3,0.1,0.5
		c0,0.1,0.1,0.4,0.1,0.5c0,0.2,0,0.4,0.1,0.6c0,0.2,0,0.4,0,0.6C79,62.1,79,62.4,79,62.5z"/>
	<path class="st1" d="M55.5,74.9c-1.9,0-3.9,0.5-5.8,1.6c-0.2,0.1-0.4,0.2-0.6,0.4c-0.1,0.1-0.4,0.2-0.5,0.4
		c-1.1,0.7-2.2,1.7-3.4,2.8c-0.1,0.8,1.3,2.5,2.5,3.9c0.6,0.7,1.2,1.3,1.7,2c1.3,1.7,1.9,3.2,1.5,4.6c-0.3,1.2-1.3,2.2-2.8,2.9
		c-0.2,0.1-0.3,0.5-0.3,0.9c0.6-0.7,1.3-1,2.2-1c0.1,0,0.1,0,0.1,0c0-0.1,0-0.1,0.1-0.1c0.1-0.1,0.1-0.2,0.1-0.4
		c0.1-0.1,0.1-0.2,0.2-0.4c0.1-0.1,0.2-0.2,0.3-0.3c0.1-0.1,0.2-0.1,0.4-0.2c0.1-0.1,0.3-0.1,0.4-0.1c0.1,0,0.1,0,0.1,0.1h0.1
		l0.1,0.1c0.1,0,0.1,0.1,0.1,0.1l0.1,0.1c0.1,0.1,0.1,0.1,0.1,0.1c0.1,0.1,0.1,0.1,0.1,0.1s-0.1-0.1-0.1-0.1c0-0.1-0.1-0.1-0.1-0.1
		L52,92.3c0,0-0.1-0.1-0.1-0.1h-0.1h-0.1c-0.1,0-0.1,0-0.1,0c-0.1,0-0.2,0-0.3,0.1c-0.1,0.1-0.1,0.1-0.2,0.2
		c-0.1,0.1-0.1,0.2-0.2,0.3c-0.1,0.1-0.1,0.2-0.1,0.4c0,0.1-0.1,0.2-0.1,0.4c0,0.1,0.1,0.8,0.1,0.8c0.1,0.2,0.1,0.5,0.1,0.7
		c0.1,0.6,0.1,1.3,0.4,1.9c0.5-0.4,1-1.1,1.4-1.6c0.4-0.5,0.7-0.9,1-1c0-0.1,0-0.1,0-0.1c0-0.1,0-0.4,0.1-0.5
		c0.1-0.1,0.1-0.4,0.1-0.6c0.1-0.2,0.1-0.4,0.3-0.6c0.1-0.1,0.3-0.4,0.5-0.4c0.2-0.1,0.4-0.1,0.7-0.1s0.4,0.1,0.6,0.2
		c0.1,0.1,0.3,0.2,0.4,0.3c0.1,0.1,0.2,0.2,0.3,0.4c0.1,0.3,0.2,0.5,0.2,0.7c0,0.1,0,0.3,0,0.3s0-0.1,0-0.3c0-0.1-0.1-0.4-0.3-0.7
		c-0.1-0.1-0.2-0.2-0.3-0.3c-0.1-0.1-0.3-0.1-0.4-0.2s-0.4-0.1-0.5-0.1s-0.3,0.1-0.4,0.1s-0.2,0.2-0.3,0.4c-0.1,0.1-0.1,0.3-0.2,0.5
		c-0.1,0.1-0.1,0.3-0.1,0.5c0,0.1,0,0.3,0,0.4c0,0.1,0,0.2,0,0.3v0.1c0,0.1,0.1,0.2,0.1,0.2c0,0.1,0.1,0.1,0.1,0.2
		c0,0,1,2.8,1.3,3.1c0.3-0.3,0.9-1.1,1.3-2.8v-0.1v-0.1c0.3-0.5,0.7-0.6,1-0.6c1,0,1.9,1.6,2.4,2.8c0.1-0.2,0.2-0.4,0.3-0.8
		c0.2-0.8,0.4-2.8,0.4-2.8v-0.1c0-0.1,0-0.1,0-0.1s0-0.1-0.1-0.2c-0.1-0.1-0.1-0.4-0.3-0.6l0,0c-0.1-0.2-0.3-0.4-0.5-0.5
		c-0.2-0.1-0.4-0.1-0.7-0.1c-0.1,0-0.2,0.1-0.3,0.1c-0.1,0.1-0.1,0.1-0.2,0.2c-0.1,0.1-0.1,0.1-0.1,0.2c0,0.1-0.1,0.1-0.1,0.2
		c-0.1,0.1-0.1,0.1-0.1,0.1s0-0.1,0.1-0.2c0-0.1,0-0.1,0.1-0.2c0-0.1,0.1-0.1,0.1-0.3c0.1-0.1,0.1-0.2,0.2-0.3
		c0.1-0.1,0.1-0.2,0.3-0.3c0.1-0.1,0.3-0.1,0.4-0.1s0.3,0,0.4,0.1c0.1,0,0.1,0.1,0.2,0.1c-0.2-0.7-0.5-1.5-0.9-2
		c-1.8-2.4-2.5-4.7-2.6-5.2c0-0.1-0.1-0.1-0.1-0.3c-0.1-0.1-0.1-0.2-0.2-0.4c0-0.1-0.1-0.1-0.1-0.1c-0.1-0.1-0.1-0.2-0.2-0.4
		c-0.1-0.1-0.2-0.4-0.4-0.6c-0.1-0.2-0.3-0.4-0.4-0.6c-0.1-0.1-0.1-0.2-0.3-0.3c-0.1-0.1-0.2-0.2-0.3-0.3c-0.2-0.1-0.4-0.4-0.7-0.5
		c-0.2-0.1-0.4-0.3-0.7-0.4c-0.1-0.1-0.2-0.1-0.4-0.2c-0.1-0.1-0.2-0.1-0.4-0.1c-0.2-0.1-0.5-0.2-0.7-0.3c-0.2-0.1-0.4-0.1-0.7-0.2
		c-0.2-0.1-0.4-0.1-0.6-0.1c-0.1,0-0.3-0.1-0.4-0.1c-0.2-0.1-0.4-0.1-0.4-0.1s0.1,0,0.4,0c0.1,0,0.3,0,0.4,0.1
		c0.1,0,0.4,0.1,0.6,0.1c0.2,0.1,0.4,0.1,0.7,0.1c0.2,0.1,0.5,0.1,0.7,0.2c0.1,0.1,0.3,0.1,0.4,0.1c0.1,0.1,0.3,0.1,0.4,0.1
		c0.3,0.1,0.5,0.2,0.8,0.4c0.3,0.1,0.5,0.3,0.7,0.4c0.1,0.1,0.2,0.1,0.4,0.3c0.1,0.1,0.2,0.1,0.4,0.3c0.2,0.1,0.4,0.4,0.6,0.6
		c0.1,0.2,0.4,0.4,0.4,0.6c0.1,0.1,0.3,0.4,0.4,0.5c0.1,0.1,0.2,0.3,0.2,0.4l0.1,0.1c0.2,0,0.7,0.1,1.3,0.1c2.3,0,4.1-0.4,4.9-1.2
		c0.1-0.1,0.3-0.3,0.4-0.4l0,0c0.1-0.1,0.1-0.3,0.1-0.5c0.1-0.7-0.1-1.8-0.9-3C63,77.7,59.8,74.9,55.5,74.9z"/>
	<path class="st1" d="M64.6,50.1c-1.3-0.9-3.7-2.2-5.4-3.1l-0.4-0.2l0.4-0.4c0.2-0.2,0.5-0.3,1.3-0.3c0.4,0,0.9,0,1.4,0.1
		c0.1,0,0.1,0,0.1,0c-2-1-6.7-2-9.9-2.8c-1-0.2-2.1-0.5-3-0.7c-0.6-0.1-1.3-0.2-2.1-0.2c-3.1,0-5.9,1.2-6.7,1.8l-0.1,0.1
		c1.8,0.4,3.5,0.7,5.1,1.2c11,2.8,15.9,5.7,17.6,6.7c0,0,0,0,0.1,0c-0.6-0.7-1.9-1.4-2.4-1.6l-1.7-0.7h1.9
		C60.8,49.9,62.7,49.9,64.6,50.1z"/>
	<path class="st1" d="M23.7,52.7c-1-0.6-1.8-0.9-2.5-0.9c-1.6,0-2.8,1.6-3.2,3.4c-0.1,0.2-0.1,0.4-0.1,0.7c-0.1,0.2-0.1,0.4-0.1,0.7
		c0,0.2,0,0.4-0.1,0.7l-0.1,1.6l-1-1.3c-0.9-1.3-2.2-2.8-3.9-2.8c-0.8,0-1.6,0.3-2.6,1c-3.4,2.3-1.6,13.9-1,15.1
		c0.4,1,0.3,3.3,0.1,4.9c0.3-0.6,0.7-1.4,1.3-2.7l0.4-0.7l0.6,0.7c0.4,0.5,0.9,1.9,1.2,3.4c0.2-0.7,0.4-1.8,0.3-3.6l-0.1-1.6l1,1.2
		c0.8,1,1.5,2.3,2.2,3.7c0.1-0.8,0-1.8-0.7-4L15,70.7l1.3,0.7c0.6,0.4,1.3,1.1,1.9,1.8c0.1-0.4,0.2-1,0-1.6c-0.1-0.4-0.5-0.6-0.9-1
		c-0.9-1-2-2.5-3.1-4c-0.2-0.4-0.5-0.7-0.7-1.1s-0.4-0.7-0.7-1.1s-0.4-0.7-0.5-1.1s-0.2-0.7-0.3-1c-0.1-0.1-0.1-0.3-0.1-0.4
		c0-0.1,0-0.1,0-0.2c0-0.1,0-0.1,0-0.2c0-0.1,0-0.1,0-0.2c0-0.1,0-0.1,0-0.1c0-0.1,0-0.2,0.1-0.3c0-0.1,0.1-0.1,0.1-0.2
		c0-0.1,0.1-0.1,0.1-0.1c0.1-0.1,0.1-0.1,0.1-0.1s0,0.1-0.1,0.1c0,0.1,0,0.1-0.1,0.1c0,0.1,0,0.1-0.1,0.2c0,0.1,0,0.2,0,0.3
		c0,0.1,0,0.1,0,0.1c0,0.1,0,0.1,0,0.2c0,0.1,0,0.1,0,0.2c0,0.1,0,0.1,0.1,0.2c0,0.1,0.1,0.3,0.1,0.4c0.1,0.3,0.2,0.7,0.4,1
		c0.1,0.4,0.4,0.7,0.6,1s0.4,0.7,0.7,1c0.2,0.4,0.5,0.7,0.8,1c1.1,1.4,2.3,2.7,3.3,3.7c0.1,0.1,0.1,0.1,0.1,0.1
		c0.3,0.3,0.6,0.6,0.9,0.8l0.1,0.1c0.1,0.1,0.2,0.2,0.4,0.3c0.4,0.4,1,1,1.8,1c1,0,2.4-0.9,4-2.6c1.2-1.3,1.7-3.1,1.9-4.9
		c0-0.2,0.1-0.4,0.1-0.7c0-0.2,0-0.4,0-0.7c0-1-0.1-2.1-0.2-2.8C26.3,56.7,24.8,53.4,23.7,52.7z"/>
	<path class="st1" d="M115.4,71.7c-0.8-2-1.3-1.8-3.4-1c-0.5,0.2-1.1,0.4-1.9,0.6c-3.1,0.9-12.3-2.2-15.6-3.9
		c-0.2-0.1-0.4-0.3-0.7-0.4c-0.1-0.1-0.3-0.1-0.4-0.2l-0.1-0.1c-0.2-0.3-0.4-0.6-0.6-0.8c-0.4-0.4-0.8-0.8-1.3-1
		c-0.8-0.4-1.6-0.4-2.5-0.3h-0.1c0.1,0,0.1,0.1,0.1,0.1c0.1,0.1,0.3,0.3,0.4,0.4l0,0c0.1,0.1,0.2,0.3,0.4,0.4
		c0.1,0.1,0.1,0.1,0.1,0.2c0.1,0.1,0.1,0.1,0.2,0.3c0.1,0.1,0.2,0.3,0.4,0.4l0.1,0.1c0.1,0.1,0.2,0.2,0.3,0.4
		c0.1,0.1,0.1,0.1,0.1,0.1c0.1,0.1,0.1,0.1,0.1,0.2c0.2,0.3,0.4,0.5,0.4,0.7s0.1,0.1,0.1,0.1S92,68,91.9,67.8
		c-0.1-0.1-0.3-0.3-0.4-0.4c-0.1-0.1-0.2-0.2-0.3-0.3l0,0c-0.1-0.1-0.3-0.2-0.4-0.4l-0.1-0.1c-0.1-0.1-0.2-0.2-0.4-0.3
		c-0.1-0.1-0.3-0.2-0.4-0.4c-0.1-0.1-0.1-0.1-0.2-0.2c-0.1,0-0.1-0.1-0.1-0.1l-0.1-0.1c-0.1-0.1-0.3-0.2-0.4-0.3
		c-0.1-0.1-0.1-0.1-0.3-0.1l0,0h-0.1L88.5,65c0,0-0.1,0-0.1-0.1c-0.1-0.1-1.9-1.2-4-1.3c-0.3,0-0.6,0.1-0.9,0
		c-1.9-0.4-8.2,2.2-8.3,2c0.5-0.5,0.7-0.7,1-0.9c0.1-0.1,0.1-0.1,0.4-0.2c0.1-0.1,0.4-0.2,0.6-0.3c0,0,0,0,0.1,0
		c-0.4-0.4-0.8-0.9-1.3-1.3c-0.9-0.9-1.8-1.7-2.8-2.5c-0.1-0.1-0.1-0.1-0.2-0.1c-0.1-0.1-0.1-0.1-0.2-0.1c-0.2-0.2-0.4-0.4-0.7-0.6
		l-0.1-0.1c-0.1-0.1-0.2-0.2-0.4-0.3c-0.1-0.1-0.3-0.2-0.4-0.4c-13.5-10-31.6-13.5-31.8-13.5h-0.1c-9.7-2.9-13.2-7.9-13.3-11.6
		c-0.1-3.1,2.1-5.5,5.8-6.8c4.9-1.6,20-1.2,34.8,2c-0.4-0.1-0.9-0.3-1.3-0.4c-0.5-0.1-1.1-0.3-1.6-0.5c-0.6-0.1-1.2-0.4-1.8-0.5
		c-0.6-0.1-1.3-0.3-1.9-0.5c-1.3-0.4-2.7-0.7-4.1-1c-0.4-0.1-0.7-0.1-1.1-0.2c-0.4-0.1-0.7-0.1-1.1-0.2c-0.7-0.1-1.5-0.3-2.3-0.4
		c-0.8-0.1-1.6-0.3-2.4-0.4c-0.4-0.1-0.8-0.1-1.2-0.1c-0.4-0.1-0.8-0.1-1.3-0.1c-3.4-0.4-7-0.7-10.6-0.5c-1.9,0.1-3.7,0.3-5.5,0.7
		c-1.9,0.4-3.7,1-5.3,1.9l-0.6,0.4c-0.2,0.1-0.4,0.2-0.6,0.4c-0.2,0.1-0.4,0.2-0.6,0.4l-0.5,0.4c-0.4,0.3-0.7,0.6-1,1
		c-0.1,0.1-0.3,0.4-0.4,0.5c-0.1,0.1-0.3,0.4-0.4,0.5l-0.4,0.6L19.9,31c-0.1,0.2-0.2,0.4-0.3,0.6c-0.1,0.2-0.2,0.4-0.3,0.7
		c-0.3,0.9-0.5,1.8-0.5,2.8c0,0.9,0.1,1.9,0.4,2.7l0.1,0.3l0.1,0.3l0.1,0.3c0.1,0.1,0.1,0.2,0.2,0.3c0.1,0.2,0.2,0.4,0.4,0.6
		c0.1,0.1,0.3,0.4,0.4,0.5c0.6,0.7,1.3,1.3,2.2,1.9c0.7,0.5,1.6,1,2.4,1.5c1.6,0.9,3.4,1.6,5.2,2.4c1.8,0.7,3.5,1.3,5.3,1.9
		c3.5,1.2,7,2.1,10.2,3.1c0.8,0.2,1.6,0.5,2.4,0.7c0.8,0.2,1.6,0.5,2.3,0.7c0.7,0.3,1.5,0.5,2.2,0.8c0.7,0.3,1.4,0.6,2.1,0.9
		c2.8,1.2,5.2,2.5,7.2,3.9c0.2,0.1,0.5,0.3,0.7,0.4s0.4,0.3,0.7,0.5c0.2,0.1,0.4,0.3,0.7,0.4c0.2,0.1,0.4,0.3,0.7,0.4
		c0.2,0.1,0.4,0.3,0.6,0.4c0.2,0.1,0.4,0.3,0.6,0.4c0.1,0.1,0.4,0.3,0.5,0.4c0.1,0.1,0.4,0.3,0.5,0.4c1.3,1.2,2.2,2.2,2.8,2.9
		c0.3,0.4,0.5,0.7,0.7,0.8c0.1,0.2,0.2,0.3,0.2,0.3L71,65.7c0,0-0.1-0.1-0.2-0.3c-0.1-0.1-0.4-0.4-0.7-0.8c-0.6-0.7-1.6-1.6-2.9-2.7
		c-0.1-0.1-0.4-0.3-0.5-0.4c-0.1-0.1-0.4-0.3-0.6-0.4c-0.2-0.1-0.4-0.3-0.6-0.4c-0.2-0.1-0.4-0.3-0.6-0.4c-0.2-0.1-0.4-0.3-0.7-0.4
		c-0.2-0.1-0.4-0.3-0.7-0.4s-0.4-0.3-0.7-0.4c-0.2-0.1-0.5-0.3-0.7-0.4c-2.1-1.2-4.5-2.4-7.3-3.5c-0.7-0.3-1.4-0.5-2.1-0.8
		c-0.7-0.2-1.4-0.5-2.2-0.7c-0.7-0.2-1.6-0.4-2.3-0.7c-0.8-0.2-1.6-0.4-2.4-0.7c-1.6-0.4-3.4-0.9-5.1-1.4c-1.7-0.5-3.5-1-5.2-1.6
		c-1.8-0.6-3.6-1.2-5.4-1.9s-3.6-1.6-5.3-2.5c-0.9-0.5-1.7-1-2.5-1.6s-1.6-1.3-2.3-2c-0.7-0.8-1.3-1.6-1.6-2.7l-0.1-0.4
		C18,37.5,18,37.5,18,37.3l-0.1-0.4v-0.1v-0.1v-0.1v-0.2c0-0.3-0.1-0.5-0.1-0.8s0-0.5,0-0.8c0-1,0.2-2.1,0.6-3.1
		c0.1-0.2,0.2-0.4,0.3-0.7c0.1-0.2,0.2-0.4,0.4-0.7l0.4-0.7l0.4-0.6c0.1-0.2,0.3-0.4,0.5-0.6c0.1-0.2,0.4-0.4,0.5-0.6
		c0.4-0.4,0.7-0.7,1.1-1l0.6-0.4c0.2-0.1,0.4-0.3,0.7-0.4c0.2-0.1,0.4-0.3,0.7-0.4l0.7-0.4c1.8-0.9,3.7-1.5,5.6-1.9
		c1.9-0.4,3.8-0.6,5.7-0.7c3.7-0.1,7.3,0.1,10.8,0.7c0.4,0.1,0.8,0.1,1.3,0.2c0.4,0.1,0.8,0.1,1.3,0.2c0.8,0.1,1.6,0.3,2.4,0.4
		c0.8,0.1,1.6,0.4,2.3,0.5c0.4,0.1,0.7,0.1,1.1,0.2s0.7,0.1,1.1,0.3c1.4,0.4,2.8,0.7,4.1,1.1c0.7,0.1,1.3,0.4,1.9,0.5
		c0.6,0.1,1.2,0.4,1.8,0.5c0.6,0.1,1.1,0.4,1.6,0.5c0.5,0.1,1,0.3,1.6,0.5c0.8,0.3,1.6,0.5,2.4,0.8c6.7,1.6,13,3.7,18.2,6.4
		c-4.3-3.4-12-8.2-21.4-11.7c-11.1-4.3-27.6-8.5-42.8-3.5c-8.1,2.6-12.9,6.7-14.2,12c-2.6,10.1,8,21.7,8.2,21.8l0,0
		c0.7-1.9,2-3.4,4-3.4c1,0,2,0.4,3.1,1c1.4,0.9,3.1,4.8,3.6,8.7c0.1,1,0.2,2.4,0.1,3.8c0.1,0.1,0.2,0.1,0.3,0.2
		c4.6,3.4,11.1,7.6,20,11.5c2.3-1.4,4.7-2.2,7-2.2c4.9,0,8.3,3.1,9.2,4.6c1,1.5,1.3,2.8,1,3.9c0.1,0,0.1,0,0.1,0.1
		c0.1,0.1,7.5,4.3,22.7,0.1c-3.4,0.2-8.7,0.7-9.4,0.8c-3.6,0.1-6.4-8.7-6.1-9.2c0.1-0.1,0.6,1,1,1.6c1.2,2.2,2.4,6.7,5.4,6.4
		c2.7-0.3,6.1-0.5,9.8-0.8c1.2-0.1,2.4-0.2,3.7-0.3c4.9-0.4,9.9-0.8,14-1.4c4.9-0.7,7-1.5,7.8-2.1c-0.4,0-0.7,0.1-1.1,0.1
		c-2.1,0-3.1-0.5-3.7-1c-0.5-0.3-0.7-0.4-1-0.2c-1.8,0.7-5.5,1.2-7.6,0.8c-0.7-0.1-1.1-0.3-1.6-0.4c-1-0.4-2.1-0.7-5.2-0.6
		c-2.8,0.2-4.9-0.1-6.3-0.5c-2.3-0.7-2.9-1.9-3-2c-0.4-0.8-1.1-1.4-2-1.8c-0.7-0.3-1.4-0.4-2.2-0.4c-0.4,0-0.8,0.1-1.3,0.2
		c-3,0.7-5.3-1.3-5.2-1.5c0.1-0.1,2.4,1,4.9,0.4c1.8-0.4,3.4-0.2,4.8,0.4c0.5,0.3,1,0.7,1.4,1.1c0.2,0.3,0.4,0.6,0.6,0.9
		c0,0,0.9,1.4,4.3,1.9c0.1,0,0.1,0,0.2,0c1,0.1,2.2,0.1,3.7,0c3.3-0.1,4.5,0.3,5.6,0.7c0.4,0.1,0.9,0.3,1.4,0.4
		c1.7,0.3,4.5,0,6.3-0.5c0.2-0.1,0.4-0.1,0.7-0.2c0.9-0.4,1.5,0,2,0.3c0.3,0.1,0.6,0.4,1.1,0.5c0.4,0.1,1,0.2,1.9,0.3
		c0.7,0,1.4,0,2.4-0.1l0,0l0,0c0.1,0,0.2-0.1,0.4-0.3C116.4,75.4,116.4,73.9,115.4,71.7z M82,65.6c0.1-0.2,0.3-0.4,0.5-0.4l0,0
		c4,0.1,5.7,0.3,6.2,1.3c0.2,0.4,0.1,1-0.2,1.6c-0.1,0.2-0.4,0.4-1,0.4l0,0c-1.4,0-4.4-1.7-5.3-2.3C82,66.2,81.9,65.9,82,65.6z"/>
	<path class="st1" d="M87.9,67.7c0.1,0,0.1,0,0.1,0c0.3-0.4,0.3-0.7,0.2-0.7c-0.3-0.6-2.5-0.8-4.9-1C85.1,66.9,87,67.7,87.9,67.7
		L87.9,67.7z"/>
</g>
</svg>
