<?xml version="1.0" encoding="utf-8"?>
<!-- Generator: Adobe Illustrator 20.1.0, SVG Export Plug-In . SVG Version: 6.00 Build 0)  -->
<svg version="1.1" id="Слой_1" xmlns="http://www.w3.org/2000/svg" xmlns:xlink="http://www.w3.org/1999/xlink" x="0px" y="0px"
	 viewBox="0 0 120 120" style="enable-background:new 0 0 120 120;" xml:space="preserve">
<style type="text/css">
	.st0{fill:#414756;stroke:#414756;stroke-miterlimit:10;}
	.st1{fill:#FFFFFF;}
</style>
<polygon class="st0" points="120,92.1 60.3,123.4 0.6,92.1 0.6,29.6 60.3,-1.7 120,29.6 "/>
<g id="krokodil">
	<path class="st1" d="M-32.2-3.5c-3.6-2.5-10.1-6-14.8-8.5l-1.1-0.5l1.1-1.1c0.5-0.5,1.4-0.8,3.6-0.8c1.1,0,2.5,0,3.8,0.3
		c0.3,0,0.3,0,0.3,0c-5.5-2.7-18.3-5.5-27.1-7.7c-2.7-0.5-5.7-1.4-8.2-1.9c-1.6-0.3-3.6-0.5-5.7-0.5c-8.5,0-16.1,3.3-18.3,4.9
		l-0.3,0.3c4.9,1.1,9.6,1.9,13.9,3.3C-54.9-8.1-41.5-0.2-36.9,2.6c0,0,0,0,0.3,0c-1.6-1.9-5.2-3.8-6.6-4.4l-4.6-1.9h5.2
		C-42.6-4-37.4-4-32.2-3.5z"/>
	<path class="st1" d="M-144.1,3.7c-2.7-1.6-4.9-2.5-6.8-2.5c-4.4,0-7.7,4.4-8.8,9.3c-0.3,0.5-0.3,1.1-0.3,1.9
		c-0.3,0.5-0.3,1.1-0.3,1.9c0,0.5,0,1.1-0.3,1.9l-0.3,4.4l-2.7-3.6c-2.5-3.6-6-7.7-10.7-7.7c-2.2,0-4.4,0.8-7.1,2.7
		c-9.3,6.3-4.4,38-2.7,41.3c1.1,2.7,0.8,9,0.3,13.4c0.8-1.6,1.9-3.8,3.6-7.4l1.1-1.9l1.6,1.9c1.1,1.4,2.5,5.2,3.3,9.3
		c0.5-1.9,1.1-4.9,0.8-9.8l-0.3-4.4l2.7,3.3c2.2,2.7,4.1,6.3,6,10.1c0.3-2.2,0-4.9-1.9-10.9l-1.1-4.1l3.6,1.9c1.6,1.1,3.6,3,5.2,4.9
		c0.3-1.1,0.5-2.7,0-4.4c-0.3-1.1-1.4-1.6-2.5-2.7c-2.5-2.7-5.5-6.8-8.5-10.9c-0.5-1.1-1.4-1.9-1.9-3c-0.5-1.1-1.1-1.9-1.9-3
		c-0.8-1.1-1.1-1.9-1.4-3c-0.3-1.1-0.5-1.9-0.8-2.7c-0.3-0.3-0.3-0.8-0.3-1.1c0-0.3,0-0.3,0-0.5c0-0.3,0-0.3,0-0.5
		c0-0.3,0-0.3,0-0.5c0-0.3,0-0.3,0-0.3c0-0.3,0-0.5,0.3-0.8c0-0.3,0.3-0.3,0.3-0.5c0-0.3,0.3-0.3,0.3-0.3c0.3-0.3,0.3-0.3,0.3-0.3
		s0,0.3-0.3,0.3c0,0.3,0,0.3-0.3,0.3c0,0.3,0,0.3-0.3,0.5c0,0.3,0,0.5,0,0.8s0,0.3,0,0.3c0,0.3,0,0.3,0,0.5c0,0.3,0,0.3,0,0.5
		c0,0.3,0,0.3,0.3,0.5c0,0.3,0.3,0.8,0.3,1.1c0.3,0.8,0.5,1.9,1.1,2.7c0.3,1.1,1.1,1.9,1.6,2.7c0.5,0.8,1.1,1.9,1.9,2.7
		c0.5,1.1,1.4,1.9,2.2,2.7c3,3.8,6.3,7.4,9,10.1c0.3,0.3,0.3,0.3,0.3,0.3c0.8,0.8,1.6,1.6,2.5,2.2l0.3,0.3c0.3,0.3,0.5,0.5,1.1,0.8
		c1.1,1.1,2.7,2.7,4.9,2.7c2.7,0,6.6-2.5,10.9-7.1c3.3-3.6,4.6-8.5,5.2-13.4c0-0.5,0.3-1.1,0.3-1.9c0-0.5,0-1.1,0-1.9
		c0-2.7-0.3-5.7-0.5-7.7C-137,14.6-141.1,5.6-144.1,3.7z"/>
	<path class="st1" d="M106.7,55.6c-2.2-5.5-3.6-4.9-9.3-2.7c-1.4,0.5-3,1.1-5.2,1.6c-8.5,2.5-33.6-6-42.7-10.7
		c-0.5-0.3-1.1-0.8-1.9-1.1c-0.3-0.3-0.8-0.3-1.1-0.5l-0.3-0.3c-0.5-0.8-1.1-1.6-1.6-2.2c-1.1-1.1-2.2-2.2-3.6-2.7
		c-2.2-1.1-4.4-1.1-6.8-0.8H34c0.3,0,0.3,0.3,0.3,0.3c0.3,0.3,0.8,0.8,1.1,1.1l0,0c0.3,0.3,0.5,0.8,1.1,1.1c0.3,0.3,0.3,0.3,0.3,0.5
		c0.3,0.3,0.3,0.3,0.5,0.8c0.3,0.3,0.5,0.8,1.1,1.1l0.3,0.3c0.3,0.3,0.5,0.5,0.8,1.1c0.3,0.3,0.3,0.3,0.3,0.3C40,43,40,43,40,43.3
		c0.5,0.8,1.1,1.4,1.1,1.9s0.3,0.3,0.3,0.3s1.4,0,1.1-0.5c-0.3-0.3-0.8-0.8-1.1-1.1s-0.5-0.5-0.8-0.8l0,0c-0.3-0.3-0.8-0.5-1.1-1.1
		l-0.3-0.3c-0.3-0.3-0.5-0.5-1.1-0.8c-0.3-0.3-0.8-0.5-1.1-1.1c-0.3-0.3-0.3-0.3-0.5-0.5c-0.3,0-0.3-0.3-0.3-0.3l-0.3-0.3
		c-0.3-0.3-0.8-0.5-1.1-0.8c-0.3-0.3-0.3-0.3-0.8-0.3l0,0h-0.3l-0.5-0.3c0,0-0.3,0-0.3-0.3c-0.3-0.3-5.2-3.3-10.9-3.6
		c-0.8,0-1.6,0.3-2.5,0c-5.2-1.1-22.4,6-22.7,5.5c1.4-1.4,1.9-1.9,2.7-2.5c0.3-0.3,0.3-0.3,1.1-0.5c0.3-0.3,1.1-0.5,1.6-0.8
		c0,0,0,0,0.3,0C1.4,34,0.3,32.6-1,31.6c-2.5-2.5-4.9-4.6-7.7-6.8C-9,24.4-9,24.4-9.2,24.4c-0.3-0.3-0.3-0.3-0.5-0.3
		c-0.5-0.5-1.1-1.1-1.9-1.6l-0.3-0.3c-0.3-0.3-0.5-0.5-1.1-0.8c-0.3-0.3-0.8-0.5-1.1-1.1c-36.9-27.3-86.4-36.9-87-36.9h-0.3
		c-26.5-7.9-36.1-21.6-36.4-31.7c-0.3-8.5,5.7-15,15.9-18.6c13.4-4.4,54.7-3.3,95.2,5.5c-1.1-0.3-2.5-0.8-3.6-1.1
		c-1.4-0.3-3-0.8-4.4-1.4c-1.6-0.3-3.3-1.1-4.9-1.4c-1.6-0.3-3.6-0.8-5.2-1.4c-3.6-1.1-7.4-1.9-11.2-2.7c-1.1-0.3-1.9-0.3-3-0.5
		c-1.1-0.3-1.9-0.3-3-0.5c-1.9-0.3-4.1-0.8-6.3-1.1s-4.4-0.8-6.6-1.1c-1.1-0.3-2.2-0.3-3.3-0.3c-1.1-0.3-2.2-0.3-3.6-0.3
		c-9.3-1.1-19.1-1.9-29-1.4c-5.2,0.3-10.1,0.8-15,1.9c-5.2,1.1-10.1,2.7-14.5,5.2l-1.6,1.1c-0.5,0.3-1.1,0.5-1.6,1.1
		c-0.5,0.3-1.1,0.5-1.6,1.1l-1.4,1.1c-1.1,0.8-1.9,1.6-2.7,2.7c-0.3,0.3-0.8,1.1-1.1,1.4c-0.3,0.3-0.8,1.1-1.1,1.4l-1.1,1.6
		l-1.9,0.3c-0.3,0.5-0.5,1.1-0.8,1.6s-0.5,1.1-0.8,1.9c-0.8,2.5-1.4,4.9-1.4,7.7c0,2.5,0.3,5.2,1.1,7.4l0.3,0.8l0.3,0.8l0.3,0.8
		c0.3,0.3,0.3,0.5,0.5,0.8c0.3,0.5,0.5,1.1,1.1,1.6c0.3,0.3,0.8,1.1,1.1,1.4c1.6,1.9,3.6,3.6,6,5.2c1.9,1.4,4.4,2.7,6.6,4.1
		c4.4,2.5,9.3,4.4,14.2,6.6c4.9,1.9,9.6,3.6,14.5,5.2C-102-6.5-92.4-4-83.6-1.3c2.2,0.5,4.4,1.4,6.6,1.9c2.2,0.5,4.4,1.4,6.3,1.9
		c1.9,0.8,4.1,1.4,6,2.2c1.9,0.8,3.8,1.6,5.7,2.5c7.7,3.3,14.2,6.8,19.7,10.7c0.5,0.3,1.4,0.8,1.9,1.1c0.5,0.3,1.1,0.8,1.9,1.4
		c0.5,0.3,1.1,0.8,1.9,1.1c0.5,0.3,1.1,0.8,1.9,1.1c0.5,0.3,1.1,0.8,1.6,1.1c0.5,0.3,1.1,0.8,1.6,1.1c0.3,0.3,1.1,0.8,1.4,1.1
		c0.3,0.3,1.1,0.8,1.4,1.1c3.6,3.3,6,6,7.7,7.9c0.8,1.1,1.4,1.9,1.9,2.2c0.3,0.5,0.5,0.8,0.5,0.8l0.8,1.4c0,0-0.3-0.3-0.5-0.8
		c-0.3-0.3-1.1-1.1-1.9-2.2c-1.6-1.9-4.4-4.4-7.9-7.4c-0.3-0.3-1.1-0.8-1.4-1.1c-0.3-0.3-1.1-0.8-1.6-1.1c-0.5-0.3-1.1-0.8-1.6-1.1
		c-0.5-0.3-1.1-0.8-1.6-1.1c-0.5-0.3-1.1-0.8-1.9-1.1c-0.5-0.3-1.1-0.8-1.9-1.1c-0.8-0.3-1.1-0.8-1.9-1.1c-0.5-0.3-1.4-0.8-1.9-1.1
		c-5.7-3.3-12.3-6.6-20-9.6c-1.9-0.8-3.8-1.4-5.7-2.2c-1.9-0.5-3.8-1.4-6-1.9c-1.9-0.5-4.4-1.1-6.3-1.9c-2.2-0.5-4.4-1.1-6.6-1.9
		c-4.4-1.1-9.3-2.5-13.9-3.8c-4.6-1.4-9.6-2.7-14.2-4.4c-4.9-1.6-9.8-3.3-14.8-5.2s-9.8-4.4-14.5-6.8c-2.5-1.4-4.6-2.7-6.8-4.4
		c-2.2-1.6-4.4-3.6-6.3-5.5c-1.9-2.2-3.6-4.4-4.4-7.4l-0.3-1.1c-0.8-1.9-0.8-1.9-0.8-2.5l-0.3-1.1v-0.3v-0.3v-0.3v-0.5
		c0-0.8-0.3-1.4-0.3-2.2s0-1.4,0-2.2c0-2.7,0.5-5.7,1.6-8.5c0.3-0.5,0.5-1.1,0.8-1.9c0.3-0.5,0.5-1.1,1.1-1.9l1.1-1.9l1.1-1.6
		c0.3-0.5,0.8-1.1,1.4-1.6c0.3-0.5,1.1-1.1,1.4-1.6c1.1-1.1,1.9-1.9,3-2.7l1.6-1.1c0.5-0.3,1.1-0.8,1.9-1.1c0.5-0.3,1.1-0.8,1.9-1.1
		l1.9-1.1c4.9-2.5,10.1-4.1,15.3-5.2c5.2-1.1,10.4-1.6,15.6-1.9c10.1-0.3,20,0.3,29.5,1.9c1.1,0.3,2.2,0.3,3.6,0.5
		c1.1,0.3,2.2,0.3,3.6,0.5c2.2,0.3,4.4,0.8,6.6,1.1c2.2,0.3,4.4,1.1,6.3,1.4c1.1,0.3,1.9,0.3,3,0.5c1.1,0.3,1.9,0.3,3,0.8
		c3.8,1.1,7.7,1.9,11.2,3c1.9,0.3,3.6,1.1,5.2,1.4c1.6,0.3,3.3,1.1,4.9,1.4c1.6,0.3,3,1.1,4.4,1.4s2.7,0.8,4.4,1.4
		c2.2,0.8,4.4,1.4,6.6,2.2C0.1-56.8,17.3-51,31.5-43.7C19.8-53-1.3-66.1-27-75.7c-30.4-11.8-75.5-23.2-117.1-9.6
		c-22.2,7.1-35.3,18.3-38.8,32.8C-190-24.8-161,6.9-160.5,7.2l0,0c1.9-5.2,5.5-9.3,10.9-9.3c2.7,0,5.5,1.1,8.5,2.7
		c3.8,2.5,8.5,13.1,9.8,23.8c0.3,2.7,0.5,6.6,0.3,10.4c0.3,0.3,0.5,0.3,0.8,0.5c12.6,9.3,30.4,20.8,54.7,31.5c6.3-3.8,12.9-6,19.1-6
		c13.4,0,22.7,8.5,25.2,12.6c2.7,4.1,3.6,7.7,2.7,10.7c0.3,0,0.3,0,0.3,0.3c0.3,0.3,20.5,11.8,62.1,0.3c-9.3,0.5-23.8,1.9-25.7,2.2
		C-1.6,87.1-9.2,63-8.4,61.6c0.3-0.3,1.6,2.7,2.7,4.4c3.3,6,6.6,18.3,14.8,17.5c7.4-0.8,16.7-1.4,26.8-2.2c3.3-0.3,6.6-0.5,10.1-0.8
		c13.4-1.1,27.1-2.2,38.3-3.8c13.4-1.9,19.1-4.1,21.3-5.7c-1.1,0-1.9,0.3-3,0.3c-5.7,0-8.5-1.4-10.1-2.7c-1.4-0.8-1.9-1.1-2.7-0.5
		c-4.9,1.9-15,3.3-20.8,2.2c-1.9-0.3-3-0.8-4.4-1.1c-2.7-1.1-5.7-1.9-14.2-1.6C42.7,67.9,37,67.1,33.2,66c-6.3-1.9-7.9-5.2-8.2-5.5
		c-1.1-2.2-3-3.8-5.5-4.9c-1.9-0.8-3.8-1.1-6-1.1c-1.1,0-2.2,0.3-3.6,0.5C1.7,57-4.6,51.5-4.3,51c0.3-0.3,6.6,2.7,13.4,1.1
		c4.9-1.1,9.3-0.5,13.1,1.1c1.4,0.8,2.7,1.9,3.8,3c0.5,0.8,1.1,1.6,1.6,2.5c0,0,2.5,3.8,11.8,5.2c0.3,0,0.3,0,0.5,0
		c2.7,0.3,6,0.3,10.1,0c9-0.3,12.3,0.8,15.3,1.9c1.1,0.3,2.5,0.8,3.8,1.1c4.6,0.8,12.3,0,17.2-1.4c0.5-0.3,1.1-0.3,1.9-0.5
		c2.5-1.1,4.1,0,5.5,0.8c0.8,0.3,1.6,1.1,3,1.4c1.1,0.3,2.7,0.5,5.2,0.8c1.9,0,3.8,0,6.6-0.3l0,0l0,0c0.3,0,0.5-0.3,1.1-0.8
		C109.5,65.7,109.5,61.6,106.7,55.6z M15.4,38.9c0.3-0.5,0.8-1.1,1.4-1.1l0,0c10.9,0.3,15.6,0.8,17,3.6c0.5,1.1,0.3,2.7-0.5,4.4
		c-0.3,0.5-1.1,1.1-2.7,1.1l0,0c-3.8,0-12-4.6-14.5-6.3C15.4,40.6,15.1,39.8,15.4,38.9z"/>
	<path class="st1" d="M31.5,44.7c0.3,0,0.3,0,0.3,0c0.8-1.1,0.8-1.9,0.5-1.9c-0.8-1.6-6.8-2.2-13.4-2.7
		C23.9,42.5,29.1,44.7,31.5,44.7L31.5,44.7z"/>
</g>
</svg>
