<?xml version="1.0" encoding="utf-8"?>
<!-- Generator: Adobe Illustrator 20.1.0, SVG Export Plug-In . SVG Version: 6.00 Build 0)  -->
<svg version="1.1" id="Слой_1" xmlns="http://www.w3.org/2000/svg" xmlns:xlink="http://www.w3.org/1999/xlink" x="0px" y="0px"
	 viewBox="0 0 627 134" style="enable-background:new 0 0 627 134;" xml:space="preserve">
<style type="text/css">
	.st0{fill:#434958;}
	.st1{fill:#90C37F;}
</style>
<g>
	<path class="st0" d="M198.2,45.8l-5.3,23.6h19.5c12.1,0,17-6.3,20.8-13.2c1.8-3.2,3.5-6.8,6.3-10.4h9c-3.3,3.7-5.6,7.7-7.6,11.3
		c-3.8,6.9-7.4,12.8-15.3,15.1c9.9,2,9.9,10.6,10.2,18.5c0.1,4.1,0.2,8.1,2.2,12.5h-8c-2.4-4.7-1.5-10.6-2-15.9
		c-0.7-6-3.8-11.4-15.3-11.4h-21.5l-6.1,27.2H177l12.9-57.4H198.2z"/>
	<path class="st0" d="M298.9,103.2L295.2,89H260l-10.3,14.1H240l43-57.4h8.7l16.2,57.4H298.9z M285.7,54l-20.9,28.4h28.4L285.7,54z"
		/>
	<path class="st0" d="M325.9,45.8h8.3l-9.6,42.6l52.7-36.9l1.3-5.7h8.3l-12.9,57.4h-8.3l9.8-43.2l-52.8,36.9l-1.4,6.3H313
		L325.9,45.8z M375.7,37.4c-3.2,6.6-10.3,8.9-18.5,8.9c-7.5,0-13.8-1.5-14.4-8.9l6.5-2c0.2,1.9,1.9,5.1,9.2,5.1
		c6.3,0,9.5-1.9,11.5-5.1L375.7,37.4z"/>
	<path class="st0" d="M457,103.2h-7.7L460.9,54l-34.8,49.2h-7.5l-11.1-48.8l-11.1,48.8h-7.6l13.1-57.4h10.8L423.9,96l34.9-50.2h11.5
		L457,103.2z"/>
	<path class="st0" d="M522,103.2L518.3,89h-35.2l-10.3,14.1h-9.7l43-57.4h8.7l16.2,57.4H522z M508.8,54l-20.9,28.4h28.4L508.8,54z"
		/>
	<path class="st0" d="M598.2,103.2h-8.2l6.3-27.1h-44l-6.3,27.1h-8.3l13.2-57.4h8.2l-5.4,23.4h44l5.4-23.4h8.3L598.2,103.2z"/>
</g>
<g>
	<path class="st1" d="M113.4,74.6c0,0.2-0.1,0.5-0.1,0.7c0,0.2-0.1,0.3-0.1,0.5c1.6-0.6,3.5-1.2,5.6-1.4c-2-6.3-5.6-13-7.8-13
		c-0.2,0-0.4,0.1-0.6,0.2c-1.2,0.9-4.5,3.5-5.8,7.2c2.6,2,5.1,4.2,7.4,6.7c0,0,0,0,0-0.1c0-0.1,0.1-0.1,0.1-0.2
		c0-0.1,0.1-0.2,0.1-0.3c0.1-0.2,0.1-0.4,0.2-0.6c0.1-0.2,0.1-0.4,0.2-0.7c0-0.2,0.1-0.5,0.1-0.7c0-0.2,0.1-0.5,0.1-0.7
		c0-0.2,0-0.5,0-0.7c0-0.2,0-0.5,0-0.7c0-0.2,0-0.4,0-0.6c0-0.4-0.1-0.7-0.1-0.9c0-0.2,0-0.3,0-0.3s0,0.1,0.1,0.3
		c0.1,0.2,0.2,0.5,0.3,0.9c0,0.2,0.1,0.4,0.1,0.6c0,0.2,0.1,0.4,0.1,0.7c0,0.2,0.1,0.5,0.1,0.7c0,0.3,0,0.5,0.1,0.8
		c0,0.3,0,0.5,0,0.8C113.5,74.1,113.5,74.3,113.4,74.6z"/>
	<path class="st1" d="M82,91.1c-2.6,0-5.2,0.7-7.8,2.2c-0.3,0.2-0.5,0.3-0.8,0.5c-0.2,0.1-0.5,0.3-0.7,0.5c-1.5,1-3,2.3-4.5,3.8
		c-0.2,1.1,1.8,3.4,3.4,5.2c0.8,0.9,1.6,1.8,2.3,2.7c1.8,2.3,2.5,4.3,2,6.1c-0.4,1.6-1.7,2.9-3.8,3.9c-0.3,0.2-0.4,0.7-0.4,1.2
		c0.8-0.9,1.8-1.3,2.9-1.3c0.1,0,0.1,0,0.2,0c0-0.1,0-0.1,0.1-0.1c0.1-0.2,0.2-0.3,0.2-0.5c0.1-0.2,0.2-0.3,0.3-0.5
		c0.1-0.2,0.3-0.3,0.4-0.4c0.2-0.1,0.3-0.2,0.5-0.3c0.2-0.1,0.4-0.1,0.5-0.1c0.1,0,0.2,0,0.2,0.1c0,0,0.1,0,0.1,0l0.1,0.1
		c0.1,0,0.1,0.1,0.2,0.1c0,0,0.1,0.1,0.1,0.1c0.1,0.1,0.1,0.2,0.2,0.2c0.1,0.1,0.1,0.2,0.1,0.2s-0.1-0.1-0.2-0.2
		c0-0.1-0.1-0.1-0.2-0.2c0,0-0.1-0.1-0.1-0.1c0,0-0.1-0.1-0.2-0.1l-0.1,0c0,0-0.1,0-0.1,0c-0.1,0-0.1,0-0.2,0c-0.1,0-0.3,0-0.4,0.1
		c-0.1,0.1-0.2,0.2-0.3,0.3c-0.1,0.1-0.2,0.3-0.3,0.4c-0.1,0.1-0.1,0.3-0.2,0.5c0,0.2-0.1,0.3-0.1,0.5c0,0.2,0.1,1.1,0.1,1.1
		c0.1,0.3,0.1,0.7,0.2,1c0.1,0.8,0.2,1.8,0.5,2.6c0.7-0.6,1.4-1.5,1.9-2.1c0.5-0.7,0.9-1.2,1.3-1.3c0-0.1,0-0.2,0-0.2
		c0-0.2,0-0.5,0.1-0.7c0.1-0.2,0.1-0.5,0.2-0.8c0.1-0.3,0.2-0.5,0.4-0.8c0.2-0.2,0.4-0.5,0.7-0.6c0.3-0.2,0.6-0.2,0.9-0.2
		c0.3,0,0.6,0.1,0.8,0.3c0.2,0.1,0.4,0.3,0.6,0.4c0.2,0.2,0.3,0.3,0.4,0.5c0.2,0.4,0.3,0.7,0.3,0.9c0,0.2,0,0.4,0,0.4s0-0.1,0-0.4
		c0-0.2-0.1-0.6-0.4-0.9c-0.1-0.2-0.3-0.3-0.4-0.4c-0.2-0.1-0.4-0.2-0.6-0.3c-0.2-0.1-0.5-0.1-0.7-0.1c-0.2,0-0.4,0.1-0.6,0.2
		c-0.2,0.1-0.3,0.3-0.4,0.5c-0.1,0.2-0.2,0.4-0.3,0.7c-0.1,0.2-0.1,0.4-0.1,0.7c0,0.2,0,0.4,0,0.6c0,0.1,0,0.3,0,0.4
		c0,0,0,0.1,0,0.1c0,0.1,0.1,0.3,0.1,0.3c0,0.1,0.1,0.2,0.1,0.3c0,0,1.4,3.7,1.7,4.2c0.4-0.4,1.2-1.5,1.8-3.7l0-0.1l0-0.1
		c0.4-0.7,1-0.8,1.3-0.8c1.4,0,2.5,2.1,3.2,3.7c0.2-0.3,0.3-0.6,0.4-1.1c0.3-1.1,0.5-3.7,0.5-3.7c0,0,0-0.1,0-0.1c0-0.1,0-0.1,0-0.2
		c0-0.1,0-0.2-0.1-0.3c-0.1-0.2-0.2-0.5-0.4-0.8c0,0,0,0,0,0c-0.2-0.3-0.4-0.5-0.7-0.7c-0.3-0.2-0.6-0.2-0.9-0.1
		c-0.1,0-0.3,0.1-0.4,0.2c-0.1,0.1-0.2,0.2-0.3,0.3c-0.1,0.1-0.1,0.2-0.2,0.3c0,0.1-0.1,0.2-0.1,0.3c-0.1,0.2-0.1,0.2-0.1,0.2
		s0-0.1,0.1-0.3c0-0.1,0.1-0.2,0.1-0.3c0-0.1,0.1-0.2,0.1-0.4c0.1-0.1,0.1-0.3,0.3-0.4c0.1-0.1,0.2-0.3,0.4-0.4
		c0.2-0.1,0.4-0.2,0.6-0.2c0.2,0,0.4,0,0.6,0.1c0.1,0,0.2,0.1,0.3,0.1c-0.3-1-0.7-2-1.2-2.7c-2.4-3.2-3.3-6.3-3.5-6.9
		c0-0.1-0.1-0.2-0.2-0.4c-0.1-0.2-0.2-0.3-0.3-0.6c0-0.1-0.1-0.1-0.1-0.2c-0.1-0.2-0.2-0.3-0.3-0.5c-0.1-0.2-0.3-0.5-0.5-0.8
		c-0.2-0.3-0.4-0.5-0.6-0.8c-0.1-0.1-0.2-0.3-0.4-0.4c-0.1-0.1-0.3-0.3-0.4-0.4c-0.3-0.2-0.6-0.5-0.9-0.7c-0.3-0.2-0.6-0.4-1-0.6
		C79.4,99.1,79.2,99,79,99c-0.2-0.1-0.3-0.2-0.5-0.2c-0.3-0.2-0.7-0.3-1-0.4c-0.3-0.1-0.6-0.2-0.9-0.3c-0.3-0.1-0.5-0.2-0.8-0.2
		c-0.2,0-0.4-0.1-0.6-0.1c-0.3-0.1-0.5-0.1-0.5-0.1s0.2,0,0.5,0c0.2,0,0.4,0,0.6,0.1c0.2,0,0.5,0.1,0.8,0.1c0.3,0.1,0.6,0.1,0.9,0.2
		c0.3,0.1,0.7,0.1,1,0.3c0.2,0.1,0.4,0.1,0.5,0.2c0.2,0.1,0.4,0.1,0.6,0.2c0.4,0.2,0.7,0.3,1.1,0.5c0.4,0.2,0.7,0.4,1,0.6
		c0.2,0.1,0.3,0.2,0.5,0.4c0.2,0.1,0.3,0.2,0.5,0.4c0.3,0.2,0.6,0.5,0.8,0.8c0.2,0.3,0.5,0.5,0.6,0.8c0.2,0.2,0.4,0.5,0.5,0.7
		c0.1,0.2,0.3,0.4,0.3,0.5c0,0,0.1,0.1,0.1,0.1c0.3,0,0.9,0.1,1.7,0.1c3.1,0,5.5-0.6,6.6-1.6c0.2-0.2,0.4-0.4,0.5-0.6c0,0,0,0,0,0
		c0.1-0.2,0.2-0.4,0.2-0.7c0.2-1-0.2-2.4-1.2-4C92.1,94.8,87.8,91.1,82,91.1z"/>
	<path class="st1" d="M94.1,57.9c-1.7-1.2-5-3-7.2-4.1l-0.6-0.3l0.5-0.5c0.3-0.3,0.7-0.4,1.7-0.4c0.6,0,1.2,0,1.9,0.1
		c0.1,0,0.1,0,0.2,0C88,51.5,81.8,50,77.4,49c-1.4-0.3-2.8-0.7-4-0.9c-0.8-0.2-1.8-0.3-2.8-0.3c-4.1,0-7.9,1.6-8.9,2.4
		c0,0-0.1,0.1-0.1,0.1c2.4,0.5,4.7,1,6.8,1.6c14.7,3.7,21.2,7.6,23.5,9c0,0,0,0,0.1,0c-0.8-1-2.5-1.9-3.2-2.2l-2.3-1H89
		C89.2,57.7,91.6,57.7,94.1,57.9z"/>
	<path class="st1" d="M39.6,61.5c-1.3-0.8-2.4-1.2-3.4-1.2c-2.2,0-3.7,2.1-4.3,4.5c-0.1,0.3-0.1,0.6-0.2,0.9c-0.1,0.3-0.1,0.6-0.1,1
		c0,0.3,0,0.6-0.1,0.9l-0.1,2.2l-1.3-1.8c-1.2-1.7-2.9-3.7-5.2-3.7c-1.1,0-2.2,0.4-3.5,1.3c-4.5,3.1-2.2,18.6-1.4,20.2
		c0.6,1.3,0.4,4.4,0.1,6.6c0.4-0.8,1-1.9,1.8-3.6l0.5-1l0.8,0.9c0.6,0.7,1.2,2.6,1.6,4.5c0.3-1,0.5-2.4,0.4-4.8l-0.1-2.1l1.4,1.6
		c1.1,1.3,2,3.1,2.8,4.9c0.2-1.1,0-2.4-0.9-5.4l-0.6-1.8l1.7,1c0.8,0.5,1.8,1.5,2.6,2.4c0.1-0.6,0.3-1.4,0-2.2
		c-0.2-0.5-0.7-0.8-1.2-1.4c-1.2-1.4-2.7-3.3-4.1-5.3c-0.3-0.5-0.7-1-1-1.5c-0.3-0.5-0.6-1-0.9-1.5c-0.3-0.5-0.5-1-0.7-1.5
		c-0.2-0.5-0.3-1-0.4-1.4c-0.1-0.2-0.1-0.4-0.1-0.6c0-0.1,0-0.2,0-0.3c0-0.1,0-0.2,0-0.3c0-0.1,0-0.2,0-0.3c0-0.1,0-0.2,0-0.2
		c0-0.2,0-0.3,0.1-0.4c0-0.1,0.1-0.2,0.1-0.3c0-0.1,0.1-0.2,0.1-0.2c0.1-0.1,0.1-0.2,0.1-0.2s0,0.1-0.1,0.2c0,0.1,0,0.1-0.1,0.2
		c0,0.1,0,0.2-0.1,0.3c0,0.1,0,0.3,0,0.4c0,0.1,0,0.2,0,0.2c0,0.1,0,0.2,0,0.3c0,0.1,0,0.2,0,0.3c0,0.1,0,0.2,0.1,0.3
		c0,0.2,0.1,0.4,0.2,0.6c0.1,0.4,0.3,0.9,0.5,1.3c0.2,0.5,0.5,0.9,0.8,1.4c0.3,0.5,0.6,1,1,1.4c0.3,0.5,0.7,1,1.1,1.4
		c1.5,1.9,3.1,3.6,4.4,4.9c0.1,0.1,0.1,0.1,0.2,0.2c0.4,0.4,0.8,0.8,1.2,1.1l0.2,0.1c0.1,0.1,0.3,0.3,0.5,0.4
		c0.6,0.6,1.3,1.3,2.4,1.3c1.4,0,3.2-1.2,5.3-3.5c1.6-1.8,2.3-4.2,2.5-6.6c0-0.3,0.1-0.6,0.1-0.9c0-0.3,0-0.6,0-0.9
		c0-1.4-0.1-2.8-0.3-3.8C43,66.9,41,62.3,39.6,61.5z"/>
	<path class="st1" d="M162.2,86.9c-1.1-2.7-1.8-2.4-4.5-1.4c-0.7,0.3-1.5,0.6-2.5,0.8c-4.1,1.2-16.4-2.9-20.8-5.2
		c-0.3-0.2-0.6-0.4-0.9-0.5c-0.2-0.1-0.4-0.2-0.5-0.3c0,0-0.1-0.1-0.1-0.1c-0.3-0.4-0.5-0.8-0.8-1.1c-0.6-0.6-1.1-1.1-1.7-1.4
		c-1.1-0.6-2.2-0.6-3.3-0.4c0,0-0.1,0-0.1,0c0.1,0,0.1,0.1,0.2,0.1c0.2,0.2,0.4,0.4,0.6,0.6c0,0,0,0,0,0c0.2,0.2,0.3,0.4,0.5,0.5
		c0.1,0.1,0.2,0.2,0.2,0.3c0.1,0.1,0.2,0.2,0.3,0.4c0.2,0.2,0.3,0.4,0.5,0.6c0,0,0.1,0.1,0.1,0.1c0.1,0.2,0.2,0.3,0.4,0.5
		c0.1,0.1,0.1,0.1,0.2,0.2c0.1,0.1,0.1,0.2,0.2,0.3c0.3,0.4,0.5,0.7,0.6,0.9c0.1,0.2,0.2,0.2,0.2,0.2s-0.1-0.1-0.3-0.3
		c-0.2-0.2-0.4-0.4-0.6-0.6c-0.1-0.1-0.3-0.3-0.4-0.4c0,0,0,0,0,0c-0.2-0.2-0.4-0.3-0.5-0.5c0,0-0.1-0.1-0.1-0.1
		c-0.2-0.1-0.3-0.3-0.5-0.4c-0.2-0.2-0.4-0.3-0.6-0.5c-0.1-0.1-0.2-0.2-0.3-0.3c-0.1,0-0.1-0.1-0.2-0.1c0,0-0.1-0.1-0.1-0.1
		c-0.2-0.1-0.4-0.3-0.6-0.4c-0.1-0.1-0.2-0.2-0.4-0.2l0,0c0,0-0.1,0-0.1,0c0,0-0.1-0.1-0.1-0.1c0,0-0.1,0-0.1-0.1
		c-0.1-0.1-2.5-1.6-5.3-1.8c-0.4,0-0.8,0.1-1.2,0c-2.6-0.5-11,2.9-11.1,2.7c0.7-0.7,1-1,1.4-1.2c0.1-0.1,0.2-0.1,0.5-0.3
		c0.2-0.1,0.5-0.3,0.8-0.4c0,0,0,0,0.1,0c-0.6-0.6-1.1-1.2-1.7-1.8c-1.2-1.2-2.4-2.3-3.7-3.4c-0.1-0.1-0.2-0.1-0.3-0.2
		c-0.1-0.1-0.2-0.1-0.3-0.2c-0.3-0.3-0.6-0.5-1-0.8c0,0-0.1-0.1-0.1-0.1c-0.2-0.1-0.3-0.3-0.5-0.4c-0.2-0.2-0.4-0.3-0.6-0.5
		c-18-13.4-42.2-18-42.5-18.1c0,0-0.1,0-0.1,0c-13-3.9-17.7-10.6-17.8-15.5c-0.1-4.1,2.8-7.4,7.8-9.1c6.6-2.2,26.8-1.6,46.5,2.7
		c-0.6-0.2-1.2-0.4-1.8-0.6c-0.7-0.2-1.5-0.4-2.2-0.7c-0.8-0.2-1.6-0.5-2.4-0.7c-0.8-0.2-1.7-0.4-2.6-0.7c-1.7-0.5-3.6-0.9-5.5-1.4
		c-0.5-0.1-1-0.2-1.5-0.3c-0.5-0.1-1-0.2-1.5-0.3c-1-0.2-2-0.4-3.1-0.6c-1.1-0.2-2.1-0.4-3.2-0.5c-0.5-0.1-1.1-0.2-1.6-0.2
		c-0.6-0.1-1.1-0.2-1.7-0.2c-4.5-0.6-9.3-0.9-14.2-0.7c-2.5,0.2-5,0.4-7.4,1c-2.5,0.6-4.9,1.3-7.1,2.5l-0.8,0.5
		c-0.3,0.1-0.5,0.3-0.8,0.5c-0.3,0.2-0.5,0.3-0.8,0.5L37.6,28c-0.5,0.4-0.9,0.8-1.4,1.3c-0.2,0.2-0.4,0.5-0.6,0.7
		c-0.2,0.2-0.4,0.5-0.6,0.7l-0.5,0.8L34,32.3c-0.2,0.3-0.3,0.6-0.4,0.8c-0.1,0.3-0.3,0.6-0.4,0.9c-0.4,1.2-0.7,2.4-0.7,3.7
		c0,1.2,0.1,2.5,0.6,3.6l0.2,0.4l0.2,0.4l0.2,0.4c0.1,0.1,0.2,0.3,0.3,0.4c0.2,0.3,0.3,0.5,0.5,0.8c0.2,0.2,0.4,0.5,0.6,0.7
		c0.8,0.9,1.8,1.7,2.9,2.5c1,0.7,2.1,1.4,3.2,2c2.2,1.2,4.6,2.2,6.9,3.2c2.4,0.9,4.7,1.7,7.1,2.5c4.7,1.6,9.3,2.8,13.7,4.2
		c1.1,0.3,2.2,0.7,3.2,1c1.1,0.3,2.1,0.7,3.1,1c1,0.4,2,0.7,3,1.1c1,0.4,1.9,0.8,2.8,1.2c3.7,1.6,6.9,3.4,9.6,5.2
		c0.3,0.2,0.7,0.4,1,0.6c0.3,0.2,0.6,0.4,1,0.7c0.3,0.2,0.6,0.4,0.9,0.6c0.3,0.2,0.6,0.4,0.9,0.6c0.3,0.2,0.6,0.4,0.8,0.6
		c0.3,0.2,0.5,0.4,0.8,0.6c0.2,0.2,0.5,0.4,0.7,0.6c0.2,0.2,0.5,0.4,0.7,0.6c1.7,1.6,3,2.9,3.8,3.9c0.4,0.5,0.7,0.9,0.9,1.1
		c0.2,0.3,0.3,0.4,0.3,0.4l-0.1,0.1c0,0-0.1-0.1-0.3-0.4c-0.2-0.2-0.5-0.6-0.9-1.1c-0.8-0.9-2.1-2.2-3.9-3.6
		c-0.2-0.2-0.5-0.4-0.7-0.6c-0.2-0.2-0.5-0.4-0.8-0.6c-0.3-0.2-0.5-0.4-0.8-0.6c-0.3-0.2-0.6-0.4-0.8-0.6c-0.3-0.2-0.6-0.4-0.9-0.6
		c-0.3-0.2-0.6-0.4-0.9-0.6c-0.3-0.2-0.6-0.4-1-0.6c-0.3-0.2-0.7-0.4-1-0.6c-2.8-1.6-6-3.2-9.7-4.7c-0.9-0.4-1.9-0.7-2.8-1.1
		c-1-0.3-1.9-0.7-3-1c-1-0.3-2.1-0.6-3.1-0.9c-1.1-0.3-2.1-0.6-3.2-0.9c-2.2-0.6-4.5-1.2-6.8-1.9c-2.3-0.7-4.7-1.4-7-2.1
		c-2.4-0.8-4.8-1.6-7.2-2.6c-2.4-1-4.8-2.1-7.1-3.4c-1.2-0.7-2.3-1.4-3.4-2.2c-1.1-0.8-2.1-1.7-3.1-2.7c-0.9-1.1-1.7-2.2-2.2-3.6
		l-0.2-0.5c-0.1-0.2-0.1-0.3-0.1-0.5l-0.1-0.5l0-0.1l0-0.1l0-0.1l0-0.3c0-0.4-0.1-0.7-0.1-1.1c0-0.4,0-0.7,0-1.1
		c0-1.4,0.3-2.8,0.8-4.1c0.1-0.3,0.3-0.6,0.4-1c0.2-0.3,0.3-0.6,0.5-0.9l0.5-0.9l0.6-0.8c0.2-0.3,0.4-0.5,0.7-0.8
		c0.2-0.3,0.5-0.5,0.7-0.8c0.5-0.5,1-1,1.5-1.4l0.8-0.6c0.3-0.2,0.6-0.4,0.9-0.6c0.3-0.2,0.6-0.4,0.9-0.5l0.9-0.5
		c2.4-1.2,4.9-2,7.5-2.5c2.5-0.6,5.1-0.8,7.6-0.9c5-0.2,9.8,0.2,14.4,0.9c0.6,0.1,1.1,0.2,1.7,0.3c0.6,0.1,1.1,0.2,1.7,0.3
		c1.1,0.2,2.2,0.4,3.2,0.6c1.1,0.2,2.1,0.5,3.1,0.7c0.5,0.1,1,0.2,1.5,0.3c0.5,0.1,1,0.2,1.5,0.4c1.9,0.5,3.8,0.9,5.5,1.5
		c0.9,0.2,1.7,0.5,2.5,0.7c0.8,0.2,1.6,0.5,2.4,0.7c0.8,0.2,1.5,0.5,2.2,0.7c0.7,0.2,1.4,0.4,2.1,0.7c1.1,0.4,2.2,0.7,3.2,1.1
		c8.9,2.1,17.4,4.9,24.4,8.6c-5.7-4.6-16.1-10.9-28.6-15.7c-14.9-5.8-36.9-11.4-57.2-4.7c-10.8,3.5-17.2,8.9-19,16
		c-3.5,13.5,10.7,29,10.9,29.1c0,0,0,0,0,0c0.9-2.6,2.7-4.6,5.4-4.6c1.3,0,2.7,0.5,4.2,1.4c1.9,1.2,4.1,6.4,4.8,11.6
		c0.2,1.3,0.3,3.2,0.2,5.1c0.1,0.1,0.3,0.2,0.4,0.3c6.1,4.5,14.9,10.1,26.7,15.4c3.1-1.9,6.3-2.9,9.4-2.9c6.5,0,11.1,4.1,12.3,6.1
		c1.3,2,1.7,3.8,1.4,5.2c0.1,0,0.1,0,0.2,0.1c0.1,0.1,10,5.8,30.3,0.2c-4.5,0.3-11.6,1-12.6,1.1c-4.8,0.2-8.5-11.6-8.1-12.3
		c0.1-0.1,0.8,1.3,1.3,2.2c1.6,3,3.2,9,7.2,8.6c3.6-0.4,8.2-0.7,13.1-1.1c1.6-0.1,3.2-0.3,4.9-0.4c6.5-0.5,13.2-1.1,18.7-1.9
		c6.6-1,9.3-2,10.4-2.8c-0.5,0-1,0.1-1.5,0.1c-2.8,0-4.1-0.7-5-1.3c-0.7-0.4-0.9-0.5-1.4-0.3c-2.4,1-7.3,1.6-10.1,1.1
		c-0.9-0.2-1.5-0.4-2.1-0.6c-1.4-0.5-2.8-1-6.9-0.8c-3.8,0.3-6.5-0.1-8.4-0.7c-3.1-1-3.9-2.5-4-2.7c-0.6-1.1-1.5-1.9-2.7-2.4
		c-0.9-0.4-1.9-0.5-3-0.5c-0.5,0-1.1,0.1-1.7,0.3c-4,1-7.1-1.7-6.9-2c0.1-0.1,3.2,1.4,6.5,0.5c2.4-0.6,4.6-0.3,6.4,0.6
		c0.7,0.4,1.4,0.9,1.9,1.5c0.3,0.4,0.6,0.8,0.8,1.2c0,0,1.2,1.9,5.7,2.5c0.1,0,0.2,0,0.3,0c1.4,0.2,3,0.2,5,0c4.4-0.2,6,0.4,7.5,0.9
		c0.6,0.2,1.2,0.4,1.9,0.5c2.3,0.4,6,0,8.4-0.7c0.3-0.1,0.6-0.2,0.9-0.3c1.2-0.5,2,0,2.7,0.4c0.4,0.2,0.8,0.5,1.5,0.7
		c0.6,0.2,1.4,0.3,2.5,0.4c0.9,0,1.9,0,3.2-0.2c0,0,0,0,0,0c0,0,0,0,0,0c0.1,0,0.3-0.1,0.5-0.4C163.4,91.9,163.5,89.9,162.2,86.9z
		 M117.5,78.8c0.1-0.3,0.4-0.5,0.7-0.5c0,0,0,0,0,0c5.3,0.1,7.6,0.4,8.3,1.7c0.3,0.6,0.2,1.3-0.3,2.2c-0.2,0.3-0.5,0.6-1.3,0.6l0,0
		c-1.9,0-5.9-2.3-7.1-3.1C117.5,79.4,117.4,79.1,117.5,78.8z"/>
	<path class="st1" d="M125.4,81.5c0.1,0,0.1,0,0.2,0c0.4-0.6,0.4-0.9,0.3-0.9c-0.4-0.8-3.4-1.1-6.5-1.3
		C121.7,80.5,124.1,81.5,125.4,81.5L125.4,81.5z"/>
</g>
</svg>
