<?xml version="1.0" encoding="UTF-8" standalone="no"?>
<!-- Created with Inkscape (http://www.inkscape.org/) -->

<svg
   xmlns:dc="http://purl.org/dc/elements/1.1/"
   xmlns:cc="http://creativecommons.org/ns#"
   xmlns:rdf="http://www.w3.org/1999/02/22-rdf-syntax-ns#"
   xmlns:svg="http://www.w3.org/2000/svg"
   xmlns="http://www.w3.org/2000/svg"
   xmlns:sodipodi="http://sodipodi.sourceforge.net/DTD/sodipodi-0.dtd"
   xmlns:inkscape="http://www.inkscape.org/namespaces/inkscape"
   width="32"
   height="32"
   viewBox="0 0 32 32.000001"
   id="svg4244"
   version="1.1"
   inkscape:version="0.91 r13725"
   sodipodi:docname="7.svg">
  <defs
     id="defs4246" />
  <sodipodi:namedview
     id="base"
     pagecolor="#ffffff"
     bordercolor="#666666"
     borderopacity="1.0"
     inkscape:pageopacity="0.0"
     inkscape:pageshadow="2"
     inkscape:zoom="7.9195959"
     inkscape:cx="-9.6355765"
     inkscape:cy="7.087702"
     inkscape:document-units="px"
     inkscape:current-layer="g4783"
     showgrid="true"
     units="px"
     inkscape:window-width="1366"
     inkscape:window-height="705"
     inkscape:window-x="-8"
     inkscape:window-y="-8"
     inkscape:window-maximized="1"
     inkscape:snap-bbox="true"
     inkscape:bbox-paths="true"
     inkscape:bbox-nodes="true"
     inkscape:snap-bbox-edge-midpoints="true"
     inkscape:snap-bbox-midpoints="true">
    <inkscape:grid
       type="xygrid"
       id="grid4252" />
  </sodipodi:namedview>
  <metadata
     id="metadata4249">
    <rdf:RDF>
      <cc:Work
         rdf:about="">
        <dc:format>image/svg+xml</dc:format>
        <dc:type
           rdf:resource="http://purl.org/dc/dcmitype/StillImage" />
        <dc:title></dc:title>
      </cc:Work>
    </rdf:RDF>
  </metadata>
  <g
     inkscape:label="Layer 1"
     inkscape:groupmode="layer"
     id="layer1"
     transform="translate(0,-1020.3622)">
    <g
       id="g4783"
       transform="translate(-4.2590071,-3.0333347)">
      <g
         id="g5737">
        <path
           inkscape:connector-curvature="0"
           id="path3561"
           d="m 26.759766,1026.3945 0,9 1,0 0,-9 -1,0 z"
           style="color:#000000;font-style:normal;font-variant:normal;font-weight:normal;font-stretch:normal;font-size:medium;line-height:normal;font-family:sans-serif;text-indent:0;text-align:start;text-decoration:none;text-decoration-line:none;text-decoration-style:solid;text-decoration-color:#000000;letter-spacing:normal;word-spacing:normal;text-transform:none;direction:ltr;block-progression:tb;writing-mode:lr-tb;baseline-shift:baseline;text-anchor:start;white-space:normal;clip-rule:nonzero;display:inline;overflow:visible;visibility:visible;opacity:1;isolation:auto;mix-blend-mode:normal;color-interpolation:sRGB;color-interpolation-filters:linearRGB;solid-color:#000000;solid-opacity:1;fill:#3c3b41;fill-opacity:1;fill-rule:evenodd;stroke:none;stroke-width:1px;stroke-linecap:butt;stroke-linejoin:miter;stroke-miterlimit:4;stroke-dasharray:none;stroke-dashoffset:0;stroke-opacity:1;color-rendering:auto;image-rendering:auto;shape-rendering:auto;text-rendering:auto;enable-background:accumulate" />
        <path
           inkscape:connector-curvature="0"
           style="opacity:1;fill:#ffa920;fill-opacity:1;stroke:none;stroke-width:1;stroke-linecap:round;stroke-linejoin:round;stroke-opacity:1"
           d="m 22.637181,1047.6684 1.319792,-5.3072 -4.197945,-3.5052 5.455354,-0.3848 2.036399,-5.0756 2.05171,5.0694 5.456504,0.3683 -4.187283,3.5179 1.335971,5.3032 -4.639706,-2.8953 z"
           id="path4925" />
        <path
           style="opacity:1;fill:#ff9a00;fill-opacity:1;stroke:none;stroke-width:1;stroke-linecap:round;stroke-linejoin:round;stroke-opacity:1"
           d="m 27.262664,1041.3423 7.496363,-2.5091 -4.187245,3.5179 z"
           id="path4927"
           inkscape:connector-curvature="0"
           sodipodi:nodetypes="cccc" />
        <path
           sodipodi:nodetypes="cccc"
           inkscape:connector-curvature="0"
           id="path4930"
           d="m 27.262674,1041.3423 4.647008,6.3105 -4.642664,-2.8904 z"
           style="opacity:1;fill:#ff9a00;fill-opacity:1;stroke:none;stroke-width:1;stroke-linecap:round;stroke-linejoin:round;stroke-opacity:1" />
        <path
           sodipodi:nodetypes="cccc"
           inkscape:connector-curvature="0"
           id="path4932"
           d="m 27.262675,1041.3423 -4.621255,6.3293 1.311948,-5.3092 z"
           style="opacity:1;fill:#ff9a00;fill-opacity:1;stroke:none;stroke-width:1;stroke-linecap:round;stroke-linejoin:round;stroke-opacity:1" />
        <path
           sodipodi:nodetypes="cccc"
           inkscape:connector-curvature="0"
           id="path4934"
           d="m 27.262665,1041.3423 -7.503648,-2.5013 5.456076,-0.374 z"
           style="opacity:1;fill:#ff9a00;fill-opacity:1;stroke:none;stroke-width:1;stroke-linecap:round;stroke-linejoin:round;stroke-opacity:1" />
        <path
           style="opacity:1;fill:#ff9a00;fill-opacity:1;stroke:none;stroke-width:1;stroke-linecap:round;stroke-linejoin:round;stroke-opacity:1"
           d="m 27.2623,1041.3423 -0.0033,-7.9468 2.047005,5.0714 z"
           id="path4936"
           inkscape:connector-curvature="0"
           sodipodi:nodetypes="cccc" />
        <path
           sodipodi:nodetypes="ccccc"
           inkscape:connector-curvature="0"
           id="path3835"
           d="m 9.2561979,1037.1228 5.0056271,0 0,0.8182 -5.0056271,0 z"
           style="fill:#d8d7dc;fill-opacity:1;stroke:none" />
        <path
           inkscape:connector-curvature="0"
           id="path3837"
           d="m 11.259766,1026.3945 0,8.2735 1,0 0,-8.2735 -1,0 z"
           style="color:#000000;font-style:normal;font-variant:normal;font-weight:normal;font-stretch:normal;font-size:medium;line-height:normal;font-family:sans-serif;text-indent:0;text-align:start;text-decoration:none;text-decoration-line:none;text-decoration-style:solid;text-decoration-color:#000000;letter-spacing:normal;word-spacing:normal;text-transform:none;direction:ltr;block-progression:tb;writing-mode:lr-tb;baseline-shift:baseline;text-anchor:start;white-space:normal;clip-rule:nonzero;display:inline;overflow:visible;visibility:visible;opacity:1;isolation:auto;mix-blend-mode:normal;color-interpolation:sRGB;color-interpolation-filters:linearRGB;solid-color:#000000;solid-opacity:1;fill:#3c3b41;fill-opacity:1;fill-rule:evenodd;stroke:none;stroke-width:1px;stroke-linecap:butt;stroke-linejoin:miter;stroke-miterlimit:4;stroke-dasharray:none;stroke-dashoffset:0;stroke-opacity:1;color-rendering:auto;image-rendering:auto;shape-rendering:auto;text-rendering:auto;enable-background:accumulate" />
        <path
           inkscape:connector-curvature="0"
           id="ellipse3839"
           d="m 11.759766,1033.8945 c -0.872705,0 -1.591782,0.7191 -1.591797,1.5918 1.5e-5,0.8727 0.719092,1.5918 1.591797,1.5918 0.872704,0 1.589828,-0.7191 1.589843,-1.5918 -1.5e-5,-0.8727 -0.717139,-1.5918 -1.589843,-1.5918 z m 0,1 c 0.332266,0 0.589837,0.2596 0.589843,0.5918 -6e-6,0.3323 -0.257577,0.5918 -0.589843,0.5918 -0.332266,0 -0.591791,-0.2595 -0.591797,-0.5918 6e-6,-0.3322 0.259531,-0.5918 0.591797,-0.5918 z"
           style="color:#000000;font-style:normal;font-variant:normal;font-weight:normal;font-stretch:normal;font-size:medium;line-height:normal;font-family:sans-serif;text-indent:0;text-align:start;text-decoration:none;text-decoration-line:none;text-decoration-style:solid;text-decoration-color:#000000;letter-spacing:normal;word-spacing:normal;text-transform:none;direction:ltr;block-progression:tb;writing-mode:lr-tb;baseline-shift:baseline;text-anchor:start;white-space:normal;clip-rule:nonzero;display:inline;overflow:visible;visibility:visible;opacity:1;isolation:auto;mix-blend-mode:normal;color-interpolation:sRGB;color-interpolation-filters:linearRGB;solid-color:#000000;solid-opacity:1;fill:#d8d7dc;fill-opacity:1;fill-rule:nonzero;stroke:none;stroke-width:0.99999988;stroke-linecap:butt;stroke-linejoin:miter;stroke-miterlimit:4;stroke-dasharray:none;stroke-dashoffset:0;stroke-opacity:1;color-rendering:auto;image-rendering:auto;shape-rendering:auto;text-rendering:auto;enable-background:accumulate" />
        <path
           inkscape:connector-curvature="0"
           id="path3841"
           d="m 14.263189,1037.9431 a 5.9999974,5.9999974 0 0 1 3.357167,6.7349 5.9999974,5.9999974 0 0 1 -5.862954,4.7175 5.9999974,5.9999974 0 0 1 -5.8604121,-4.7206 5.9999974,5.9999974 0 0 1 3.3607897,-6.7332"
           style="fill:#0088fe;fill-opacity:1;fill-rule:evenodd;stroke:none;stroke-width:1px;stroke-linecap:butt;stroke-linejoin:miter;stroke-opacity:1" />
        <path
           id="rect3843"
           d="m 9.8016581,1036.3047 3.9147009,0 c 0.302187,0 0.545463,0.2433 0.545463,0.5455 l 0,0.5454 c 0,0.3022 -0.243276,0.5454 -0.545463,0.5454 l -3.9147009,0 c -0.3021865,0 -0.545463,-0.2432 -0.545463,-0.5454 l 0,-0.5454 c 0,-0.3022 0.2432765,-0.5455 0.545463,-0.5455 z"
           style="fill:#d8d7dc;fill-opacity:1;stroke:none;stroke-width:1;stroke-opacity:1" />
        <path
           id="path3903"
           d="m 7.7316676,1039.8896 0,0 a 0.50005,0.50005 0 0 0 -0.2734374,0.1 l -1.1152344,0.8359 a 5.9999974,5.9999974 0 0 0 -0.4941406,1.5566 0.50078888,0.50078888 0 0 0 0.2109374,-0.092 l 1.6992188,-1.2754 1.6992188,1.2754 a 0.50005,0.50005 0 0 0 0.6015628,0 l 1.699218,-1.2754 1.699219,1.2754 a 0.50005,0.50005 0 0 0 0.601563,0 l 1.699218,-1.2754 1.699219,1.2754 a 0.50078875,0.50078875 0 0 0 0.208984,0.09 5.9999974,5.9999974 0 0 0 -0.482422,-1.5469 l -1.125,-0.8437 a 0.50005,0.50005 0 0 0 -0.601562,0 l -1.699219,1.2754 -1.699218,-1.2754 a 0.50005,0.50005 0 0 0 -0.601563,0 l -1.6992186,1.2754 -1.6992188,-1.2754 a 0.50005,0.50005 0 0 0 -0.328125,-0.1016 z"
           style="color:#000000;font-style:normal;font-variant:normal;font-weight:normal;font-stretch:normal;font-size:medium;line-height:normal;font-family:sans-serif;text-indent:0;text-align:start;text-decoration:none;text-decoration-line:none;text-decoration-style:solid;text-decoration-color:#000000;letter-spacing:normal;word-spacing:normal;text-transform:none;direction:ltr;block-progression:tb;writing-mode:lr-tb;baseline-shift:baseline;text-anchor:start;white-space:normal;clip-rule:nonzero;display:inline;overflow:visible;visibility:visible;opacity:1;isolation:auto;mix-blend-mode:normal;color-interpolation:sRGB;color-interpolation-filters:linearRGB;solid-color:#000000;solid-opacity:1;fill:#014cb1;fill-opacity:1;fill-rule:evenodd;stroke:none;stroke-width:1px;stroke-linecap:round;stroke-linejoin:round;stroke-miterlimit:4;stroke-dasharray:none;stroke-dashoffset:0;stroke-opacity:1;color-rendering:auto;image-rendering:auto;shape-rendering:auto;text-rendering:auto;enable-background:accumulate"
           inkscape:connector-curvature="0" />
        <path
           id="path4705"
           d="m 9.7316676,1044.3955 a 0.50005,0.50005 0 0 0 -0.2734374,0.1016 l -1.6992188,1.2734 -1.6992188,-1.2734 a 0.50005,0.50005 0 0 0 -0.2089843,-0.096 5.9999974,5.9999974 0 0 0 0.046875,0.2734 5.9999974,5.9999974 0 0 0 0.4433593,1.2832 l 1.1171876,0.8379 a 0.50005,0.50005 0 0 0 0.6015624,0 l 1.6992188,-1.2754 1.6992186,1.2754 a 0.50005,0.50005 0 0 0 0.601563,0 l 1.699218,-1.2754 1.699219,1.2754 a 0.50005,0.50005 0 0 0 0.601562,0 l 1.119141,-0.8399 a 5.9999974,5.9999974 0 0 0 0.441406,-1.2773 5.9999974,5.9999974 0 0 0 0.05273,-0.2793 0.50005,0.50005 0 0 0 -0.214843,0.098 l -1.699215,1.2734 -1.699218,-1.2734 a 0.50005,0.50005 0 0 0 -0.601563,0 l -1.699219,1.2734 -1.699218,-1.2734 a 0.50005,0.50005 0 0 0 -0.3281254,-0.1016 z"
           style="color:#000000;font-style:normal;font-variant:normal;font-weight:normal;font-stretch:normal;font-size:medium;line-height:normal;font-family:sans-serif;text-indent:0;text-align:start;text-decoration:none;text-decoration-line:none;text-decoration-style:solid;text-decoration-color:#000000;letter-spacing:normal;word-spacing:normal;text-transform:none;direction:ltr;block-progression:tb;writing-mode:lr-tb;baseline-shift:baseline;text-anchor:start;white-space:normal;clip-rule:nonzero;display:inline;overflow:visible;visibility:visible;opacity:1;isolation:auto;mix-blend-mode:normal;color-interpolation:sRGB;color-interpolation-filters:linearRGB;solid-color:#000000;solid-opacity:1;fill:#014cb1;fill-opacity:1;fill-rule:evenodd;stroke:none;stroke-width:1px;stroke-linecap:round;stroke-linejoin:round;stroke-miterlimit:4;stroke-dasharray:none;stroke-dashoffset:0;stroke-opacity:1;color-rendering:auto;image-rendering:auto;shape-rendering:auto;text-rendering:auto;enable-background:accumulate"
           inkscape:connector-curvature="0" />
        <path
           id="path4707"
           d="m 8.7590092,1043.3955 a 0.9999913,0.9999913 0 0 1 -0.9999913,1 0.9999913,0.9999913 0 0 1 -0.9999913,-1 0.9999913,0.9999913 0 0 1 0.9999913,-1 0.9999913,0.9999913 0 0 1 0.9999913,1 z"
           style="fill:#014cb1;fill-opacity:1;stroke:none;stroke-width:1;stroke-linecap:round;stroke-linejoin:round;stroke-opacity:1" />
        <path
           id="circle4727"
           d="m 12.759018,1043.3955 a 0.9999913,0.9999913 0 0 1 -0.999991,1 0.9999913,0.9999913 0 0 1 -0.999992,-1 0.9999913,0.9999913 0 0 1 0.999992,-1 0.9999913,0.9999913 0 0 1 0.999991,1 z"
           style="fill:#014cb1;fill-opacity:1;stroke:none;stroke-width:1;stroke-linecap:round;stroke-linejoin:round;stroke-opacity:1" />
        <path
           id="circle4729"
           d="m 16.759011,1043.3955 a 0.9999913,0.9999913 0 0 1 -0.999991,1 0.9999913,0.9999913 0 0 1 -0.999991,-1 0.9999913,0.9999913 0 0 1 0.999991,-1 0.9999913,0.9999913 0 0 1 0.999991,1 z"
           style="fill:#014cb1;fill-opacity:1;stroke:none;stroke-width:1;stroke-linecap:round;stroke-linejoin:round;stroke-opacity:1" />
        <path
           style="fill:#d8d7dc;fill-opacity:1;stroke:none"
           d="m 18.256208,1041.1228 5.005626,0 0,0.8182 -5.005626,0 z"
           id="path4875"
           inkscape:connector-curvature="0"
           sodipodi:nodetypes="ccccc" />
        <path
           inkscape:connector-curvature="0"
           id="path4877"
           d="m 20.259766,1026.3945 0,12.2735 1,0 0,-12.2735 -1,0 z"
           style="color:#000000;font-style:normal;font-variant:normal;font-weight:normal;font-stretch:normal;font-size:medium;line-height:normal;font-family:sans-serif;text-indent:0;text-align:start;text-decoration:none;text-decoration-line:none;text-decoration-style:solid;text-decoration-color:#000000;letter-spacing:normal;word-spacing:normal;text-transform:none;direction:ltr;block-progression:tb;writing-mode:lr-tb;baseline-shift:baseline;text-anchor:start;white-space:normal;clip-rule:nonzero;display:inline;overflow:visible;visibility:visible;opacity:1;isolation:auto;mix-blend-mode:normal;color-interpolation:sRGB;color-interpolation-filters:linearRGB;solid-color:#000000;solid-opacity:1;fill:#3c3b41;fill-opacity:1;fill-rule:evenodd;stroke:none;stroke-width:1px;stroke-linecap:butt;stroke-linejoin:miter;stroke-miterlimit:4;stroke-dasharray:none;stroke-dashoffset:0;stroke-opacity:1;color-rendering:auto;image-rendering:auto;shape-rendering:auto;text-rendering:auto;enable-background:accumulate" />
        <path
           inkscape:connector-curvature="0"
           id="ellipse4879"
           d="m 20.759766,1037.8945 c -0.872705,0 -1.591782,0.7191 -1.591797,1.5918 1.5e-5,0.8727 0.719092,1.5918 1.591797,1.5918 0.872704,0 1.589828,-0.7191 1.589843,-1.5918 -1.5e-5,-0.8727 -0.717139,-1.5918 -1.589843,-1.5918 z m 0,1 c 0.332265,0 0.589837,0.2596 0.589843,0.5918 -6e-6,0.3323 -0.257578,0.5918 -0.589843,0.5918 -0.332266,0 -0.591791,-0.2595 -0.591797,-0.5918 6e-6,-0.3322 0.259531,-0.5918 0.591797,-0.5918 z"
           style="color:#000000;font-style:normal;font-variant:normal;font-weight:normal;font-stretch:normal;font-size:medium;line-height:normal;font-family:sans-serif;text-indent:0;text-align:start;text-decoration:none;text-decoration-line:none;text-decoration-style:solid;text-decoration-color:#000000;letter-spacing:normal;word-spacing:normal;text-transform:none;direction:ltr;block-progression:tb;writing-mode:lr-tb;baseline-shift:baseline;text-anchor:start;white-space:normal;clip-rule:nonzero;display:inline;overflow:visible;visibility:visible;opacity:1;isolation:auto;mix-blend-mode:normal;color-interpolation:sRGB;color-interpolation-filters:linearRGB;solid-color:#000000;solid-opacity:1;fill:#d8d7dc;fill-opacity:1;fill-rule:nonzero;stroke:none;stroke-width:0.99999988;stroke-linecap:butt;stroke-linejoin:miter;stroke-miterlimit:4;stroke-dasharray:none;stroke-dashoffset:0;stroke-opacity:1;color-rendering:auto;image-rendering:auto;shape-rendering:auto;text-rendering:auto;enable-background:accumulate" />
        <path
           style="fill:#00a654;fill-opacity:1;fill-rule:evenodd;stroke:none;stroke-width:1px;stroke-linecap:butt;stroke-linejoin:miter;stroke-opacity:1"
           d="m 23.263199,1041.9431 a 5.9999974,5.9999974 0 0 1 3.357167,6.7349 5.9999974,5.9999974 0 0 1 -5.862954,4.7175 5.9999974,5.9999974 0 0 1 -5.860412,-4.7206 5.9999974,5.9999974 0 0 1 3.360789,-6.7332"
           id="path4881"
           inkscape:connector-curvature="0" />
        <path
           id="rect4883"
           d="m 18.801668,1040.3047 3.914701,0 c 0.302186,0 0.545463,0.2433 0.545463,0.5455 l 0,0.5454 c 0,0.3022 -0.243277,0.5454 -0.545463,0.5454 l -3.914701,0 c -0.302187,0 -0.545463,-0.2432 -0.545463,-0.5454 l 0,-0.5454 c 0,-0.3022 0.243276,-0.5455 0.545463,-0.5455 z"
           style="fill:#d8d7dc;fill-opacity:1;stroke:none;stroke-width:1;stroke-opacity:1" />
        <path
           inkscape:connector-curvature="0"
           style="color:#000000;font-style:normal;font-variant:normal;font-weight:normal;font-stretch:normal;font-size:medium;line-height:normal;font-family:sans-serif;text-indent:0;text-align:start;text-decoration:none;text-decoration-line:none;text-decoration-style:solid;text-decoration-color:#000000;letter-spacing:normal;word-spacing:normal;text-transform:none;direction:ltr;block-progression:tb;writing-mode:lr-tb;baseline-shift:baseline;text-anchor:start;white-space:normal;clip-rule:nonzero;display:inline;overflow:visible;visibility:visible;opacity:1;isolation:auto;mix-blend-mode:normal;color-interpolation:sRGB;color-interpolation-filters:linearRGB;solid-color:#000000;solid-opacity:1;fill:#008d49;fill-opacity:1;fill-rule:evenodd;stroke:none;stroke-width:1px;stroke-linecap:round;stroke-linejoin:round;stroke-miterlimit:4;stroke-dasharray:none;stroke-dashoffset:0;stroke-opacity:1;color-rendering:auto;image-rendering:auto;shape-rendering:auto;text-rendering:auto;enable-background:accumulate"
           d="m 16.731677,1043.8896 0,0 a 0.50005,0.50005 0 0 0 -0.273437,0.1 l -1.115235,0.8359 a 5.9999974,5.9999974 0 0 0 -0.49414,1.5566 0.50078888,0.50078888 0 0 0 0.210937,-0.092 l 1.699219,-1.2754 1.699219,1.2754 a 0.50005,0.50005 0 0 0 0.601562,0 l 1.699219,-1.2754 1.699219,1.2754 a 0.50005,0.50005 0 0 0 0.601562,0 l 1.699219,-1.2754 1.699219,1.2754 a 0.50078875,0.50078875 0 0 0 0.208984,0.09 5.9999974,5.9999974 0 0 0 -0.482422,-1.5469 l -1.125,-0.8437 a 0.50005,0.50005 0 0 0 -0.601562,0 l -1.699219,1.2754 -1.699219,-1.2754 a 0.50005,0.50005 0 0 0 -0.601562,0 l -1.699219,1.2754 -1.699219,-1.2754 a 0.50005,0.50005 0 0 0 -0.328125,-0.1016 z"
           id="path4885" />
        <path
           inkscape:connector-curvature="0"
           style="color:#000000;font-style:normal;font-variant:normal;font-weight:normal;font-stretch:normal;font-size:medium;line-height:normal;font-family:sans-serif;text-indent:0;text-align:start;text-decoration:none;text-decoration-line:none;text-decoration-style:solid;text-decoration-color:#000000;letter-spacing:normal;word-spacing:normal;text-transform:none;direction:ltr;block-progression:tb;writing-mode:lr-tb;baseline-shift:baseline;text-anchor:start;white-space:normal;clip-rule:nonzero;display:inline;overflow:visible;visibility:visible;opacity:1;isolation:auto;mix-blend-mode:normal;color-interpolation:sRGB;color-interpolation-filters:linearRGB;solid-color:#000000;solid-opacity:1;fill:#008d49;fill-opacity:1;fill-rule:evenodd;stroke:none;stroke-width:1px;stroke-linecap:round;stroke-linejoin:round;stroke-miterlimit:4;stroke-dasharray:none;stroke-dashoffset:0;stroke-opacity:1;color-rendering:auto;image-rendering:auto;shape-rendering:auto;text-rendering:auto;enable-background:accumulate"
           d="m 18.731677,1048.3955 a 0.50005,0.50005 0 0 0 -0.273437,0.1016 l -1.699219,1.2734 -1.699219,-1.2734 a 0.50005,0.50005 0 0 0 -0.208984,-0.096 5.9999974,5.9999974 0 0 0 0.04687,0.2734 5.9999974,5.9999974 0 0 0 0.443359,1.2832 l 1.117188,0.8379 a 0.50005,0.50005 0 0 0 0.601562,0 l 1.699219,-1.2754 1.699219,1.2754 a 0.50005,0.50005 0 0 0 0.601562,0 l 1.699219,-1.2754 1.699219,1.2754 a 0.50005,0.50005 0 0 0 0.601562,0 l 1.119141,-0.8399 a 5.9999974,5.9999974 0 0 0 0.441406,-1.2773 5.9999974,5.9999974 0 0 0 0.05273,-0.2793 0.50005,0.50005 0 0 0 -0.214843,0.098 l -1.699215,1.2734 -1.699219,-1.2734 a 0.50005,0.50005 0 0 0 -0.601562,0 l -1.699219,1.2734 -1.699219,-1.2734 a 0.50005,0.50005 0 0 0 -0.328125,-0.1016 z"
           id="path4887" />
        <path
           id="circle4889"
           d="m 17.759019,1047.3955 a 0.9999913,0.9999913 0 0 1 -0.999992,1 0.9999913,0.9999913 0 0 1 -0.999991,-1 0.9999913,0.9999913 0 0 1 0.999991,-1 0.9999913,0.9999913 0 0 1 0.999992,1 z"
           style="fill:#008d49;fill-opacity:1;stroke:none;stroke-width:1;stroke-linecap:round;stroke-linejoin:round;stroke-opacity:1" />
        <path
           id="circle4891"
           d="m 21.759028,1047.3955 a 0.9999913,0.9999913 0 0 1 -0.999991,1 0.9999913,0.9999913 0 0 1 -0.999991,-1 0.9999913,0.9999913 0 0 1 0.999991,-1 0.9999913,0.9999913 0 0 1 0.999991,1 z"
           style="fill:#008d49;fill-opacity:1;stroke:none;stroke-width:1;stroke-linecap:round;stroke-linejoin:round;stroke-opacity:1" />
        <path
           id="circle4893"
           d="m 25.759021,1047.3955 a 0.9999913,0.9999913 0 0 1 -0.999992,1 0.9999913,0.9999913 0 0 1 -0.999991,-1 0.9999913,0.9999913 0 0 1 0.999991,-1 0.9999913,0.9999913 0 0 1 0.999992,1 z"
           style="fill:#008d49;fill-opacity:1;stroke:none;stroke-width:1;stroke-linecap:round;stroke-linejoin:round;stroke-opacity:1" />
        <path
           id="path4940"
           d="m 28.259018,1030.3955 a 1,1 0 0 1 -1,1 1,1 0 0 1 -1,-1 1,1 0 0 1 1,-1 1,1 0 0 1 1,1 z"
           style="fill:#666666;fill-opacity:1;stroke:none;stroke-width:1;stroke-linecap:round;stroke-linejoin:round;stroke-opacity:1" />
        <path
           id="circle4942"
           d="m 21.759018,1034.3955 a 1,1 0 0 1 -1,1 1,1 0 0 1 -1,-1 1,1 0 0 1 1,-1 1,1 0 0 1 1,1 z"
           style="fill:#666666;fill-opacity:1;stroke:none;stroke-width:1;stroke-linecap:round;stroke-linejoin:round;stroke-opacity:1" />
        <path
           id="circle4944"
           d="m 12.759017,1030.3955 a 1,1 0 0 1 -1,1 1,1 0 0 1 -1,-1 1,1 0 0 1 1,-1 1,1 0 0 1 1,1 z"
           style="fill:#666666;fill-opacity:1;stroke:none;stroke-width:1;stroke-linecap:round;stroke-linejoin:round;stroke-opacity:1" />
      </g>
    </g>
  </g>
</svg>
