<?xml version="1.0" encoding="utf-8"?>
<!-- Generator: Adobe Illustrator 20.1.0, SVG Export Plug-In . SVG Version: 6.00 Build 0)  -->
<svg version="1.1" id="Слой_1" xmlns="http://www.w3.org/2000/svg" xmlns:xlink="http://www.w3.org/1999/xlink" x="0px" y="0px"
	 viewBox="0 0 567 126" style="enable-background:new 0 0 567 126;" xml:space="preserve">
<style type="text/css">
	.st0{fill:#90C37F;}
	.st1{fill:#424857;}
</style>
<g id="krokodil">
	<path class="st0" d="M108,69.8c0,0.2-0.1,0.5-0.1,0.7s-0.1,0.3-0.1,0.5c1.6-0.6,3.5-1.2,5.6-1.4c-2-6.3-5.6-13-7.8-13
		c-0.2,0-0.4,0.1-0.6,0.2c-1.2,0.9-4.5,3.5-5.8,7.2c2.6,2,5.1,4.2,7.4,6.7c0,0,0,0,0-0.1s0.1-0.1,0.1-0.2s0.1-0.2,0.1-0.3
		c0.1-0.2,0.1-0.4,0.2-0.6s0.1-0.4,0.2-0.7c0-0.2,0.1-0.5,0.1-0.7s0.1-0.5,0.1-0.7s0-0.5,0-0.7s0-0.5,0-0.7s0-0.4,0-0.6
		c0-0.4-0.1-0.7-0.1-0.9c0-0.2,0-0.3,0-0.3s0,0.1,0.1,0.3c0.1,0.2,0.2,0.5,0.3,0.9c0,0.2,0.1,0.4,0.1,0.6s0.1,0.4,0.1,0.7
		c0,0.2,0.1,0.5,0.1,0.7c0,0.3,0,0.5,0.1,0.8c0,0.3,0,0.5,0,0.8C108,69.3,108,69.6,108,69.8z"/>
	<path class="st0" d="M76.6,86.4c-2.6,0-5.2,0.7-7.8,2.2c-0.3,0.2-0.5,0.3-0.8,0.5c-0.2,0.1-0.5,0.3-0.7,0.5c-1.5,1-3,2.3-4.5,3.8
		c-0.2,1.1,1.8,3.4,3.4,5.2c0.8,0.9,1.6,1.8,2.3,2.7c1.8,2.3,2.5,4.3,2,6.1c-0.4,1.6-1.7,2.9-3.8,3.9c-0.3,0.2-0.4,0.7-0.4,1.2
		c0.8-0.9,1.8-1.3,2.9-1.3c0.1,0,0.1,0,0.2,0c0-0.1,0-0.1,0.1-0.1c0.1-0.2,0.2-0.3,0.2-0.5c0.1-0.2,0.2-0.3,0.3-0.5
		c0.1-0.2,0.3-0.3,0.4-0.4c0.2-0.1,0.3-0.2,0.5-0.3c0.2-0.1,0.4-0.1,0.5-0.1s0.2,0,0.2,0.1h0.1l0.1,0.1c0.1,0,0.1,0.1,0.2,0.1
		l0.1,0.1c0.1,0.1,0.1,0.2,0.2,0.2c0.1,0.1,0.1,0.2,0.1,0.2s-0.1-0.1-0.2-0.2c0-0.1-0.1-0.1-0.2-0.2l-0.1-0.1c0,0-0.1-0.1-0.2-0.1
		h-0.1h-0.1c-0.1,0-0.1,0-0.2,0s-0.3,0-0.4,0.1s-0.2,0.2-0.3,0.3c-0.1,0.1-0.2,0.3-0.3,0.4c-0.1,0.1-0.1,0.3-0.2,0.5
		c0,0.2-0.1,0.3-0.1,0.5s0.1,1.1,0.1,1.1c0.1,0.3,0.1,0.7,0.2,1c0.1,0.8,0.2,1.8,0.5,2.6c0.7-0.6,1.4-1.5,1.9-2.1
		c0.5-0.7,0.9-1.2,1.3-1.3c0-0.1,0-0.2,0-0.2c0-0.2,0-0.5,0.1-0.7s0.1-0.5,0.2-0.8s0.2-0.5,0.4-0.8c0.2-0.2,0.4-0.5,0.7-0.6
		c0.3-0.2,0.6-0.2,0.9-0.2s0.6,0.1,0.8,0.3c0.2,0.1,0.4,0.3,0.6,0.4c0.2,0.2,0.3,0.3,0.4,0.5c0.2,0.4,0.3,0.7,0.3,0.9
		c0,0.2,0,0.4,0,0.4s0-0.1,0-0.4c0-0.2-0.1-0.6-0.4-0.9c-0.1-0.2-0.3-0.3-0.4-0.4c-0.2-0.1-0.4-0.2-0.6-0.3
		c-0.2-0.1-0.5-0.1-0.7-0.1s-0.4,0.1-0.6,0.2s-0.3,0.3-0.4,0.5s-0.2,0.4-0.3,0.7c-0.1,0.2-0.1,0.4-0.1,0.7c0,0.2,0,0.4,0,0.6
		c0,0.1,0,0.3,0,0.4v0.1c0,0.1,0.1,0.3,0.1,0.3c0,0.1,0.1,0.2,0.1,0.3c0,0,1.4,3.7,1.7,4.2c0.4-0.4,1.2-1.5,1.8-3.7v-0.1v-0.1
		c0.4-0.7,1-0.8,1.3-0.8c1.4,0,2.5,2.1,3.2,3.7c0.2-0.3,0.3-0.6,0.4-1.1c0.3-1.1,0.5-3.7,0.5-3.7v-0.1c0-0.1,0-0.1,0-0.2
		s0-0.2-0.1-0.3c-0.1-0.2-0.2-0.5-0.4-0.8l0,0c-0.2-0.3-0.4-0.5-0.7-0.7c-0.3-0.2-0.6-0.2-0.9-0.1c-0.1,0-0.3,0.1-0.4,0.2
		s-0.2,0.2-0.3,0.3c-0.1,0.1-0.1,0.2-0.2,0.3c0,0.1-0.1,0.2-0.1,0.3c-0.1,0.2-0.1,0.2-0.1,0.2s0-0.1,0.1-0.3c0-0.1,0-0.2,0.1-0.3
		c0-0.1,0.1-0.2,0.1-0.4c0.1-0.1,0.1-0.3,0.3-0.4c0.1-0.1,0.2-0.3,0.4-0.4c0.2-0.1,0.4-0.2,0.6-0.2s0.4,0,0.6,0.1
		c0.1,0,0.2,0.1,0.3,0.1c-0.3-1-0.7-2-1.2-2.7c-2.4-3.2-3.3-6.3-3.5-6.9c0-0.1-0.1-0.2-0.2-0.4c-0.1-0.2-0.2-0.3-0.3-0.6
		c0-0.1-0.1-0.1-0.1-0.2c-0.1-0.2-0.2-0.3-0.3-0.5c-0.1-0.2-0.3-0.5-0.5-0.8s-0.4-0.5-0.6-0.8c-0.1-0.1-0.2-0.3-0.4-0.4
		c-0.1-0.1-0.3-0.3-0.4-0.4c-0.3-0.2-0.6-0.5-0.9-0.7s-0.6-0.4-1-0.6c-0.2-0.1-0.3-0.2-0.5-0.3c-0.2-0.1-0.3-0.2-0.5-0.2
		c-0.3-0.2-0.7-0.3-1-0.4S71.3,93.1,71,93c-0.3-0.1-0.5-0.2-0.8-0.2c-0.2,0-0.4-0.1-0.6-0.1c-0.3-0.1-0.5-0.1-0.5-0.1s0.2,0,0.5,0
		c0.2,0,0.4,0,0.6,0.1c0.2,0,0.5,0.1,0.8,0.1c0.3,0.1,0.6,0.1,0.9,0.2s0.7,0.1,1,0.3c0.2,0.1,0.4,0.1,0.5,0.2
		c0.2,0.1,0.4,0.1,0.6,0.2c0.4,0.2,0.7,0.3,1.1,0.5s0.7,0.4,1,0.6c0.2,0.1,0.3,0.2,0.5,0.4c0.2,0.1,0.3,0.2,0.5,0.4
		c0.3,0.2,0.6,0.5,0.8,0.8c0.2,0.3,0.5,0.5,0.6,0.8c0.2,0.2,0.4,0.5,0.5,0.7s0.3,0.4,0.3,0.5l0.1,0.1c0.3,0,0.9,0.1,1.7,0.1
		c3.1,0,5.5-0.6,6.6-1.6c0.2-0.2,0.4-0.4,0.5-0.6l0,0c0.1-0.2,0.2-0.4,0.2-0.7c0.2-1-0.2-2.4-1.2-4C86.6,90.1,82.3,86.4,76.6,86.4z"
		/>
	<path class="st0" d="M88.7,53.2c-1.7-1.2-5-3-7.2-4.1l-0.6-0.3l0.5-0.5c0.3-0.3,0.7-0.4,1.7-0.4c0.6,0,1.2,0,1.9,0.1
		c0.1,0,0.1,0,0.2,0c-2.7-1.3-8.9-2.7-13.2-3.8c-1.4-0.3-2.8-0.7-4-0.9c-0.8-0.2-1.8-0.3-2.8-0.3c-4.1,0-7.9,1.6-8.9,2.4l-0.1,0.1
		c2.4,0.5,4.7,1,6.8,1.6c14.7,3.7,21.2,7.6,23.5,9c0,0,0,0,0.1,0c-0.8-1-2.5-1.9-3.2-2.2l-2.3-1h2.5C83.7,52.9,86.2,52.9,88.7,53.2z
		"/>
	<path class="st0" d="M34.1,56.7c-1.3-0.8-2.4-1.2-3.4-1.2c-2.2,0-3.7,2.1-4.3,4.5c-0.1,0.3-0.1,0.6-0.2,0.9c-0.1,0.3-0.1,0.6-0.1,1
		c0,0.3,0,0.6-0.1,0.9L25.9,65l-1.3-1.8c-1.2-1.7-2.9-3.7-5.2-3.7c-1.1,0-2.2,0.4-3.5,1.3c-4.5,3.1-2.2,18.6-1.4,20.2
		c0.6,1.3,0.4,4.4,0.1,6.6c0.4-0.8,1-1.9,1.8-3.6l0.5-1l0.8,0.9c0.6,0.7,1.2,2.6,1.6,4.5c0.3-1,0.5-2.4,0.4-4.8l-0.1-2.1l1.4,1.6
		c1.1,1.3,2,3.1,2.9,4.9c0.2-1.1,0-2.4-0.9-5.4l-0.6-1.8l1.7,1c0.8,0.5,1.8,1.5,2.6,2.4c0.1-0.6,0.3-1.4,0-2.2
		c-0.2-0.5-0.7-0.8-1.2-1.4c-1.2-1.4-2.7-3.3-4.1-5.3c-0.3-0.5-0.7-1-1-1.5s-0.6-1-0.9-1.5c-0.3-0.5-0.5-1-0.7-1.5s-0.3-1-0.4-1.4
		c-0.1-0.2-0.1-0.4-0.1-0.6c0-0.1,0-0.2,0-0.3c0-0.1,0-0.2,0-0.3c0-0.1,0-0.2,0-0.3c0-0.1,0-0.2,0-0.2c0-0.2,0-0.3,0.1-0.4
		c0-0.1,0.1-0.2,0.1-0.3c0-0.1,0.1-0.2,0.1-0.2c0.1-0.1,0.1-0.2,0.1-0.2s0,0.1-0.1,0.2c0,0.1,0,0.1-0.1,0.2c0,0.1,0,0.2-0.1,0.3
		c0,0.1,0,0.3,0,0.4s0,0.2,0,0.2c0,0.1,0,0.2,0,0.3c0,0.1,0,0.2,0,0.3c0,0.1,0,0.2,0.1,0.3c0,0.2,0.1,0.4,0.2,0.6
		c0.1,0.4,0.3,0.9,0.5,1.3c0.2,0.5,0.5,0.9,0.8,1.4s0.6,1,1,1.4c0.3,0.5,0.7,1,1.1,1.4c1.5,1.9,3.1,3.6,4.4,4.9
		c0.1,0.1,0.1,0.1,0.2,0.2c0.4,0.4,0.8,0.8,1.2,1.1l0.2,0.1c0.1,0.1,0.3,0.3,0.5,0.4c0.6,0.6,1.3,1.3,2.4,1.3c1.4,0,3.2-1.2,5.3-3.5
		c1.6-1.8,2.3-4.2,2.5-6.6c0-0.3,0.1-0.6,0.1-0.9s0-0.6,0-0.9c0-1.4-0.1-2.8-0.3-3.8C37.5,62.1,35.5,57.6,34.1,56.7z"/>
	<path class="st0" d="M156.7,82.1c-1.1-2.7-1.8-2.4-4.5-1.4c-0.7,0.3-1.5,0.6-2.5,0.8c-4.1,1.2-16.4-2.9-20.8-5.2
		c-0.3-0.2-0.6-0.4-0.9-0.5c-0.2-0.1-0.4-0.2-0.5-0.3l-0.1-0.1c-0.3-0.4-0.5-0.8-0.8-1.1c-0.6-0.6-1.1-1.1-1.7-1.4
		c-1.1-0.6-2.2-0.6-3.3-0.4h-0.1c0.1,0,0.1,0.1,0.2,0.1c0.2,0.2,0.4,0.4,0.6,0.6l0,0c0.2,0.2,0.3,0.4,0.5,0.5
		c0.1,0.1,0.2,0.2,0.2,0.3c0.1,0.1,0.2,0.2,0.3,0.4c0.2,0.2,0.3,0.4,0.5,0.6l0.1,0.1c0.1,0.2,0.3,0.3,0.4,0.5
		c0.1,0.1,0.1,0.1,0.2,0.2s0.1,0.2,0.2,0.3c0.3,0.4,0.5,0.7,0.6,0.9c0.1,0.2,0.2,0.2,0.2,0.2s-0.1-0.1-0.3-0.3
		c-0.2-0.2-0.4-0.4-0.6-0.6c-0.1-0.1-0.3-0.3-0.4-0.4l0,0c-0.2-0.2-0.4-0.3-0.5-0.5l-0.1-0.1c-0.2-0.1-0.3-0.3-0.5-0.4
		c-0.2-0.2-0.4-0.3-0.6-0.5c-0.1-0.1-0.2-0.2-0.3-0.3c-0.1,0-0.1-0.1-0.2-0.1l-0.1-0.1c-0.2-0.1-0.4-0.3-0.6-0.4
		c-0.1-0.1-0.2-0.2-0.4-0.2l0,0h-0.1l-0.1-0.1c0,0-0.1,0-0.1-0.1c-0.1-0.1-2.5-1.6-5.3-1.8c-0.4,0-0.8,0.1-1.2,0
		c-2.6-0.5-11,2.9-11.1,2.7c0.7-0.7,1-1,1.4-1.2c0.1-0.1,0.2-0.1,0.5-0.3c0.2-0.1,0.5-0.3,0.8-0.4c0,0,0,0,0.1,0
		c-0.6-0.6-1.1-1.2-1.7-1.8c-1.2-1.2-2.4-2.3-3.7-3.4c-0.1-0.1-0.2-0.1-0.3-0.2c-0.1-0.1-0.2-0.1-0.3-0.2c-0.3-0.3-0.6-0.5-1-0.8
		l-0.1-0.1c-0.2-0.1-0.3-0.3-0.5-0.4c-0.2-0.2-0.4-0.3-0.6-0.5c-18-13.4-42.3-18-42.5-18.1H55C42,42.7,37.3,36,37.2,31.1
		C37.1,27,40,23.7,45,22c6.6-2.2,26.8-1.6,46.5,2.7c-0.6-0.2-1.2-0.4-1.8-0.6c-0.7-0.2-1.5-0.4-2.2-0.7c-0.8-0.2-1.6-0.5-2.4-0.7
		s-1.7-0.4-2.6-0.7c-1.7-0.5-3.6-0.9-5.5-1.4c-0.5-0.1-1-0.2-1.5-0.3c-0.5-0.1-1-0.2-1.5-0.3c-1-0.2-2-0.4-3.1-0.6s-2.1-0.4-3.2-0.5
		c-0.5-0.1-1.1-0.2-1.6-0.2c-0.6-0.1-1.1-0.2-1.7-0.2c-4.5-0.6-9.3-0.9-14.2-0.7c-2.5,0.2-5,0.4-7.4,1c-2.5,0.6-4.9,1.3-7.1,2.5
		l-0.8,0.5c-0.3,0.1-0.5,0.3-0.8,0.5s-0.5,0.3-0.8,0.5l-0.7,0.6c-0.5,0.4-0.9,0.8-1.4,1.3c-0.2,0.2-0.4,0.5-0.6,0.7
		c-0.2,0.2-0.4,0.5-0.6,0.7l-0.5,0.8L29,27.7c-0.2,0.3-0.3,0.6-0.4,0.8c-0.1,0.3-0.3,0.6-0.4,0.9c-0.4,1.2-0.7,2.4-0.7,3.7
		c0,1.2,0.1,2.5,0.6,3.6l0.2,0.4l0.2,0.4l0.2,0.4c0.1,0.1,0.2,0.3,0.3,0.4c0.2,0.3,0.3,0.5,0.5,0.8c0.2,0.2,0.4,0.5,0.6,0.7
		c0.8,0.9,1.8,1.7,2.9,2.5c1,0.7,2.1,1.4,3.2,2c2.2,1.2,4.6,2.2,6.9,3.2c2.4,0.9,4.7,1.7,7.1,2.5c4.7,1.6,9.3,2.8,13.7,4.2
		c1.1,0.3,2.2,0.7,3.2,1c1.1,0.3,2.1,0.7,3.1,1c1,0.4,2,0.7,3,1.1s1.9,0.8,2.8,1.2c3.7,1.6,6.9,3.4,9.6,5.2c0.3,0.2,0.7,0.4,1,0.6
		s0.6,0.4,1,0.7c0.3,0.2,0.6,0.4,0.9,0.6s0.6,0.4,0.9,0.6s0.6,0.4,0.8,0.6c0.3,0.2,0.5,0.4,0.8,0.6c0.2,0.2,0.5,0.4,0.7,0.6
		s0.5,0.4,0.7,0.6c1.7,1.6,3,2.9,3.8,3.9c0.4,0.5,0.7,0.9,0.9,1.1c0.2,0.3,0.3,0.4,0.3,0.4l-0.1,0.1c0,0-0.1-0.1-0.3-0.4
		c-0.2-0.2-0.5-0.6-0.9-1.1c-0.8-0.9-2.1-2.2-3.9-3.6c-0.2-0.2-0.5-0.4-0.7-0.6S91,68,90.7,67.8s-0.5-0.4-0.8-0.6s-0.6-0.4-0.8-0.6
		c-0.3-0.2-0.6-0.4-0.9-0.6s-0.6-0.4-0.9-0.6s-0.6-0.4-1-0.6c-0.3-0.2-0.7-0.4-1-0.6c-2.8-1.6-6-3.2-9.7-4.7
		c-0.9-0.4-1.9-0.7-2.8-1.1c-1-0.3-1.9-0.7-3-1c-1-0.3-2.1-0.6-3.1-0.9c-1.1-0.3-2.1-0.6-3.2-0.9c-2.2-0.6-4.5-1.2-6.8-1.9
		c-2.3-0.7-4.7-1.4-7-2.1c-2.4-0.8-4.8-1.6-7.2-2.6s-4.8-2.1-7.1-3.4c-1.2-0.7-2.3-1.4-3.4-2.2c-1.1-0.8-2.1-1.7-3.1-2.7
		c-0.9-1.1-1.7-2.2-2.2-3.6l-0.2-0.5c-0.1-0.2-0.1-0.3-0.1-0.5l-0.1-0.5v-0.1v-0.1v-0.1V35c0-0.4-0.1-0.7-0.1-1.1s0-0.7,0-1.1
		c0-1.4,0.3-2.8,0.8-4.1c0.1-0.3,0.3-0.6,0.4-1c0.2-0.3,0.3-0.6,0.5-0.9l0.5-0.9l0.6-0.8c0.2-0.3,0.4-0.5,0.7-0.8
		c0.2-0.3,0.5-0.5,0.7-0.8c0.5-0.5,1-1,1.5-1.4l0.8-0.6c0.3-0.2,0.6-0.4,0.9-0.6c0.3-0.2,0.6-0.4,0.9-0.5l0.9-0.5
		c2.4-1.2,4.9-2,7.5-2.5c2.5-0.6,5.1-0.8,7.6-0.9c5-0.2,9.8,0.2,14.4,0.9c0.6,0.1,1.1,0.2,1.7,0.3c0.6,0.1,1.1,0.2,1.7,0.3
		c1.1,0.2,2.2,0.4,3.2,0.6c1.1,0.2,2.1,0.5,3.1,0.7c0.5,0.1,1,0.2,1.5,0.3c0.5,0.1,1,0.2,1.5,0.4c1.9,0.5,3.8,0.9,5.5,1.5
		c0.9,0.2,1.7,0.5,2.5,0.7s1.6,0.5,2.4,0.7s1.5,0.5,2.2,0.7s1.4,0.4,2.1,0.7c1.1,0.4,2.2,0.7,3.2,1.1c8.9,2.1,17.4,4.9,24.4,8.6
		c-5.7-4.6-16.1-10.9-28.6-15.7c-14.9-5.8-36.9-11.4-57.2-4.7c-10.8,3.5-17.2,8.9-19,16c-3.5,13.5,10.7,29,10.9,29.1l0,0
		c0.9-2.6,2.7-4.6,5.4-4.6c1.3,0,2.7,0.5,4.2,1.4c1.9,1.2,4.1,6.4,4.8,11.6c0.2,1.3,0.3,3.2,0.2,5.1c0.1,0.1,0.3,0.2,0.4,0.3
		c6.1,4.5,14.9,10.1,26.7,15.4C70.8,86,74,85,77.1,85c6.5,0,11.1,4.1,12.3,6.1c1.3,2,1.7,3.8,1.4,5.2c0.1,0,0.1,0,0.2,0.1
		s10,5.8,30.3,0.2c-4.5,0.3-11.6,1-12.6,1.1c-4.8,0.2-8.5-11.6-8.1-12.3c0.1-0.1,0.8,1.3,1.3,2.2c1.6,3,3.2,9,7.2,8.6
		c3.6-0.4,8.2-0.7,13.1-1.1c1.6-0.1,3.2-0.3,4.9-0.4c6.5-0.5,13.2-1.1,18.7-1.9c6.6-1,9.3-2,10.4-2.8c-0.5,0-1,0.1-1.5,0.1
		c-2.8,0-4.1-0.7-5-1.3c-0.7-0.4-0.9-0.5-1.4-0.3c-2.4,1-7.3,1.6-10.1,1.1c-0.9-0.2-1.5-0.4-2.1-0.6c-1.4-0.5-2.8-1-6.9-0.8
		c-3.8,0.3-6.5-0.1-8.4-0.7c-3.1-1-3.9-2.5-4-2.7c-0.6-1.1-1.5-1.9-2.7-2.4c-0.9-0.4-1.9-0.5-3-0.5c-0.5,0-1.1,0.1-1.7,0.3
		c-4,1-7.1-1.7-6.9-2c0.1-0.1,3.2,1.4,6.5,0.5c2.4-0.6,4.6-0.3,6.4,0.6c0.7,0.4,1.4,0.9,1.9,1.5c0.3,0.4,0.6,0.8,0.8,1.2
		c0,0,1.2,1.9,5.7,2.5c0.1,0,0.2,0,0.3,0c1.4,0.2,3,0.2,5,0c4.4-0.2,6,0.4,7.5,0.9c0.6,0.2,1.2,0.4,1.9,0.5c2.3,0.4,6,0,8.4-0.7
		c0.3-0.1,0.6-0.2,0.9-0.3c1.2-0.5,2,0,2.7,0.4c0.4,0.2,0.8,0.5,1.5,0.7c0.6,0.2,1.4,0.3,2.5,0.4c0.9,0,1.9,0,3.2-0.2l0,0l0,0
		c0.1,0,0.3-0.1,0.5-0.4C158,87.1,158,85.1,156.7,82.1z M112,74c0.1-0.3,0.4-0.5,0.7-0.5l0,0c5.3,0.1,7.6,0.4,8.3,1.7
		c0.3,0.6,0.2,1.3-0.3,2.2c-0.2,0.3-0.5,0.6-1.3,0.6l0,0c-1.9,0-5.9-2.3-7.1-3.1C112,74.7,111.9,74.3,112,74z"/>
	<path class="st0" d="M119.9,76.7c0.1,0,0.1,0,0.2,0c0.4-0.6,0.4-0.9,0.3-0.9c-0.4-0.8-3.4-1.1-6.5-1.3
		C116.2,75.7,118.7,76.7,119.9,76.7L119.9,76.7z"/>
</g>
<g>
	<path class="st1" d="M228.4,35.8l-21.8,23.7l20.9,34.3c0.8,1.3,0.4,3.1-1.5,3.1h-11.8c-2.3,0-3.6-1.1-4.9-3.1
		c0,0-8.6-14.5-13.9-23.3l-6,6.3v17.3c0,2.2-1.1,2.8-2.7,2.8H177c-1.8,0-2.8-0.6-2.8-2.8V35.9c0-2.2,1-2.8,2.8-2.8h9.6
		c1.6,0,2.7,0.6,2.7,2.8v21.6l20.1-22.1c1.9-2.1,2.6-2.3,4.9-2.3h13.1C229.2,33,229.2,34.9,228.4,35.8z"/>
	<path class="st1" d="M290.9,96.9h-10.2c-2.1,0-2.9-0.6-3.7-2.9l-2.7-7.7h-23.8l-2.7,7.7c-0.8,2.3-1.6,2.9-3.7,2.9H234
		c-2.1,0-2.1-1.6-1.6-2.7l21.5-58.1c0.8-2,1.8-3,4-3h9.3c2.1,0,3.1,1,4,3l21.4,58.1C293.1,95.3,293.1,96.9,290.9,96.9z M269.8,72.7
		l-7.3-21.4l-7.3,21.4H269.8z"/>
	<path class="st1" d="M304.1,33h9.3c1.7,0,2.8,0.6,2.8,2.8v33.7l20.6-33.2c1.3-1.9,1.9-3.3,4.4-3.3h9.1c2.2,0,2.8,1.1,2.8,2.8v58.2
		c0,2.2-1.1,2.8-2.8,2.8h-9.6c-1.7,0-2.8-0.6-2.8-2.8V60.3l-20.6,33.3c-1.3,1.9-1.9,3.3-4.4,3.3h-8.8c-2.2,0-2.8-1.1-2.8-2.8V35.9
		C301.3,33.6,302.4,33,304.1,33z M343.5,12.4h-4.8c-1,0-1.3,0.9-1.6,1.6c-1.4,3.2-5.2,4.8-8.6,4.8c-3.4,0-7.4-1.6-8.6-4.8
		c-0.3-0.7-0.6-1.6-1.6-1.6h-4.8c-1.3,0-1,1.7-0.9,1.9c1.1,8.1,8,11.8,15.9,11.9c8-0.1,14.7-3.8,15.9-11.9
		C344.4,14.1,344.7,12.4,343.5,12.4z"/>
	<path class="st1" d="M427.4,35.8v58.3c0,2.2-1.1,2.8-2.8,2.8h-9.3c-1.7,0-2.8-0.6-2.8-2.8V61.2l-9.7,17c-0.5,0.8-1.4,2-2.8,2h-4.9
		c-1.5,0-2.2-1.3-2.7-2l-9.8-17v32.9c0,2.2-1.1,2.8-2.8,2.8h-9.6c-1.7,0-2.8-0.6-2.8-2.8V35.8c0-1.7,0.6-2.8,2.8-2.8h9.6
		c3.3,0,3.7,2.1,4.5,3.3l13.3,23.9l13.4-23.9c0.7-1.2,1.2-3.3,4.4-3.3h9.3C426.8,33,427.4,34,427.4,35.8z"/>
	<path class="st1" d="M495,96.9h-10.2c-2.1,0-2.9-0.6-3.7-2.9l-2.7-7.7h-23.8l-2.7,7.7c-0.8,2.3-1.6,2.9-3.7,2.9h-10.2
		c-2.1,0-2.1-1.6-1.6-2.7l21.5-58.1c0.8-2,1.8-3,4-3h9.3c2.1,0,3.1,1,4,3l21.4,58.1C497.1,95.3,497.1,96.9,495,96.9z M473.9,72.7
		l-7.3-21.4l-7.3,21.4H473.9z"/>
	<path class="st1" d="M557.4,35.9v58.2c0,2.2-1.1,2.8-2.8,2.8H545c-1.7,0-2.8-0.6-2.8-2.8V72.1h-21.6v21.9c0,2.2-1,2.8-2.8,2.8h-9.6
		c-1.7,0-2.8-0.6-2.8-2.8V35.9c0-2.2,1.1-2.8,2.8-2.8h9.6c1.8,0,2.8,0.6,2.8,2.8v21.9h21.6V35.9c0-2.2,1.1-2.8,2.8-2.8h9.6
		C556.3,33,557.4,33.6,557.4,35.9z"/>
</g>
</svg>
