<?xml version="1.0" encoding="utf-8"?>
<!-- Generator: Adobe Illustrator 20.1.0, SVG Export Plug-In . SVG Version: 6.00 Build 0)  -->
<svg version="1.1" id="Слой_1" xmlns="http://www.w3.org/2000/svg" xmlns:xlink="http://www.w3.org/1999/xlink" x="0px" y="0px"
	 viewBox="0 0 648.5 126" style="enable-background:new 0 0 648.5 126;" xml:space="preserve">
<style type="text/css">
	.st0{fill:#90C37F;}
	.st1{fill:#424857;}
	.st2{fill:#CC5C5C;stroke:#000000;stroke-width:0.8335;}
	.st3{opacity:0.1011;fill:#0E0000;enable-background:new    ;}
	.st4{opacity:0.2697;stroke:#000000;stroke-width:0.8302;enable-background:new    ;}
	.st5{opacity:0.294;stroke:#000000;stroke-width:0.6014;enable-background:new    ;}
	.st6{fill:#FFFFFF;stroke:#000000;stroke-width:0.6014;}
	.st7{fill:none;stroke:#000000;stroke-width:0.8335;}
	.st8{opacity:0.1124;enable-background:new    ;}
	.st9{fill:#FFFFFF;stroke:#000000;stroke-width:0.8136;}
	.st10{opacity:9.550560e-02;enable-background:new    ;}
	.st11{fill-opacity:0.2235;}
	.st12{fill:#FF0000;}
	.st13{fill:url(#SVGID_1_);}
	.st14{fill:url(#SVGID_2_);}
	.st15{fill:url(#SVGID_3_);}
	.st16{fill:url(#SVGID_4_);}
	.st17{fill:url(#SVGID_5_);}
	.st18{fill:url(#SVGID_6_);}
	.st19{fill:url(#SVGID_7_);}
	.st20{fill:url(#SVGID_8_);}
	.st21{fill:url(#SVGID_9_);}
	.st22{fill:url(#SVGID_10_);}
	.st23{fill:url(#SVGID_11_);}
	.st24{fill:url(#SVGID_12_);}
	.st25{fill:url(#SVGID_13_);}
	.st26{fill:url(#SVGID_14_);}
	.st27{fill:#FFFFFF;}
</style>
<g id="krokodil">
	<path class="st0" d="M108,69.8c0,0.2-0.1,0.5-0.1,0.7s-0.1,0.3-0.1,0.5c1.6-0.6,3.5-1.2,5.6-1.4c-2-6.3-5.6-13-7.8-13
		c-0.2,0-0.4,0.1-0.6,0.2c-1.2,0.9-4.5,3.5-5.8,7.2c2.6,2,5.1,4.2,7.4,6.7c0,0,0,0,0-0.1s0.1-0.1,0.1-0.2s0.1-0.2,0.1-0.3
		c0.1-0.2,0.1-0.4,0.2-0.6s0.1-0.4,0.2-0.7c0-0.2,0.1-0.5,0.1-0.7s0.1-0.5,0.1-0.7s0-0.5,0-0.7s0-0.5,0-0.7s0-0.4,0-0.6
		c0-0.4-0.1-0.7-0.1-0.9c0-0.2,0-0.3,0-0.3s0,0.1,0.1,0.3c0.1,0.2,0.2,0.5,0.3,0.9c0,0.2,0.1,0.4,0.1,0.6s0.1,0.4,0.1,0.7
		c0,0.2,0.1,0.5,0.1,0.7c0,0.3,0,0.5,0.1,0.8c0,0.3,0,0.5,0,0.8C108,69.3,108,69.6,108,69.8z"/>
	<path class="st0" d="M76.6,86.4c-2.6,0-5.2,0.7-7.8,2.2c-0.3,0.2-0.5,0.3-0.8,0.5c-0.2,0.1-0.5,0.3-0.7,0.5c-1.5,1-3,2.3-4.5,3.8
		c-0.2,1.1,1.8,3.4,3.4,5.2c0.8,0.9,1.6,1.8,2.3,2.7c1.8,2.3,2.5,4.3,2,6.1c-0.4,1.6-1.7,2.9-3.8,3.9c-0.3,0.2-0.4,0.7-0.4,1.2
		c0.8-0.9,1.8-1.3,2.9-1.3c0.1,0,0.1,0,0.2,0c0-0.1,0-0.1,0.1-0.1c0.1-0.2,0.2-0.3,0.2-0.5c0.1-0.2,0.2-0.3,0.3-0.5
		c0.1-0.2,0.3-0.3,0.4-0.4c0.2-0.1,0.3-0.2,0.5-0.3c0.2-0.1,0.4-0.1,0.5-0.1s0.2,0,0.2,0.1h0.1l0.1,0.1c0.1,0,0.1,0.1,0.2,0.1
		l0.1,0.1c0.1,0.1,0.1,0.2,0.2,0.2c0.1,0.1,0.1,0.2,0.1,0.2s-0.1-0.1-0.2-0.2c0-0.1-0.1-0.1-0.2-0.2l-0.1-0.1c0,0-0.1-0.1-0.2-0.1
		h-0.1h-0.1c-0.1,0-0.1,0-0.2,0s-0.3,0-0.4,0.1s-0.2,0.2-0.3,0.3c-0.1,0.1-0.2,0.3-0.3,0.4c-0.1,0.1-0.1,0.3-0.2,0.5
		c0,0.2-0.1,0.3-0.1,0.5s0.1,1.1,0.1,1.1c0.1,0.3,0.1,0.7,0.2,1c0.1,0.8,0.2,1.8,0.5,2.6c0.7-0.6,1.4-1.5,1.9-2.1
		c0.5-0.7,0.9-1.2,1.3-1.3c0-0.1,0-0.2,0-0.2c0-0.2,0-0.5,0.1-0.7s0.1-0.5,0.2-0.8s0.2-0.5,0.4-0.8c0.2-0.2,0.4-0.5,0.7-0.6
		c0.3-0.2,0.6-0.2,0.9-0.2s0.6,0.1,0.8,0.3c0.2,0.1,0.4,0.3,0.6,0.4c0.2,0.2,0.3,0.3,0.4,0.5c0.2,0.4,0.3,0.7,0.3,0.9
		c0,0.2,0,0.4,0,0.4s0-0.1,0-0.4c0-0.2-0.1-0.6-0.4-0.9c-0.1-0.2-0.3-0.3-0.4-0.4c-0.2-0.1-0.4-0.2-0.6-0.3
		c-0.2-0.1-0.5-0.1-0.7-0.1s-0.4,0.1-0.6,0.2s-0.3,0.3-0.4,0.5s-0.2,0.4-0.3,0.7c-0.1,0.2-0.1,0.4-0.1,0.7c0,0.2,0,0.4,0,0.6
		c0,0.1,0,0.3,0,0.4v0.1c0,0.1,0.1,0.3,0.1,0.3c0,0.1,0.1,0.2,0.1,0.3c0,0,1.4,3.7,1.7,4.2c0.4-0.4,1.2-1.5,1.8-3.7v-0.1v-0.1
		c0.4-0.7,1-0.8,1.3-0.8c1.4,0,2.5,2.1,3.2,3.7c0.2-0.3,0.3-0.6,0.4-1.1c0.3-1.1,0.5-3.7,0.5-3.7v-0.1c0-0.1,0-0.1,0-0.2
		s0-0.2-0.1-0.3c-0.1-0.2-0.2-0.5-0.4-0.8l0,0c-0.2-0.3-0.4-0.5-0.7-0.7c-0.3-0.2-0.6-0.2-0.9-0.1c-0.1,0-0.3,0.1-0.4,0.2
		s-0.2,0.2-0.3,0.3c-0.1,0.1-0.1,0.2-0.2,0.3c0,0.1-0.1,0.2-0.1,0.3c-0.1,0.2-0.1,0.2-0.1,0.2s0-0.1,0.1-0.3c0-0.1,0-0.2,0.1-0.3
		c0-0.1,0.1-0.2,0.1-0.4c0.1-0.1,0.1-0.3,0.3-0.4c0.1-0.1,0.2-0.3,0.4-0.4c0.2-0.1,0.4-0.2,0.6-0.2s0.4,0,0.6,0.1
		c0.1,0,0.2,0.1,0.3,0.1c-0.3-1-0.7-2-1.2-2.7c-2.4-3.2-3.3-6.3-3.5-6.9c0-0.1-0.1-0.2-0.2-0.4c-0.1-0.2-0.2-0.3-0.3-0.6
		c0-0.1-0.1-0.1-0.1-0.2c-0.1-0.2-0.2-0.3-0.3-0.5c-0.1-0.2-0.3-0.5-0.5-0.8s-0.4-0.5-0.6-0.8c-0.1-0.1-0.2-0.3-0.4-0.4
		c-0.1-0.1-0.3-0.3-0.4-0.4c-0.3-0.2-0.6-0.5-0.9-0.7s-0.6-0.4-1-0.6c-0.2-0.1-0.3-0.2-0.5-0.3c-0.2-0.1-0.3-0.2-0.5-0.2
		c-0.3-0.2-0.7-0.3-1-0.4S71.3,93.1,71,93s-0.5-0.2-0.8-0.2c-0.2,0-0.4-0.1-0.6-0.1c-0.3-0.1-0.5-0.1-0.5-0.1s0.2,0,0.5,0
		c0.2,0,0.4,0,0.6,0.1c0.2,0,0.5,0.1,0.8,0.1c0.3,0.1,0.6,0.1,0.9,0.2s0.7,0.1,1,0.3c0.2,0.1,0.4,0.1,0.5,0.2
		c0.2,0.1,0.4,0.1,0.6,0.2c0.4,0.2,0.7,0.3,1.1,0.5s0.7,0.4,1,0.6c0.2,0.1,0.3,0.2,0.5,0.4c0.2,0.1,0.3,0.2,0.5,0.4
		c0.3,0.2,0.6,0.5,0.8,0.8c0.2,0.3,0.5,0.5,0.6,0.8c0.2,0.2,0.4,0.5,0.5,0.7s0.3,0.4,0.3,0.5l0.1,0.1c0.3,0,0.9,0.1,1.7,0.1
		c3.1,0,5.5-0.6,6.6-1.6c0.2-0.2,0.4-0.4,0.5-0.6l0,0c0.1-0.2,0.2-0.4,0.2-0.7c0.2-1-0.2-2.4-1.2-4C86.6,90.1,82.3,86.4,76.6,86.4z"
		/>
	<path class="st0" d="M88.7,53.2c-1.7-1.2-5-3-7.2-4.1l-0.6-0.3l0.5-0.5c0.3-0.3,0.7-0.4,1.7-0.4c0.6,0,1.2,0,1.9,0.1
		c0.1,0,0.1,0,0.2,0c-2.7-1.3-8.9-2.7-13.2-3.8c-1.4-0.3-2.8-0.7-4-0.9c-0.8-0.2-1.8-0.3-2.8-0.3c-4.1,0-7.9,1.6-8.9,2.4l-0.1,0.1
		c2.4,0.5,4.7,1,6.8,1.6c14.7,3.7,21.2,7.6,23.5,9c0,0,0,0,0.1,0c-0.8-1-2.5-1.9-3.2-2.2l-2.3-1h2.5C83.7,52.9,86.2,52.9,88.7,53.2z
		"/>
	<path class="st0" d="M34.1,56.7c-1.3-0.8-2.4-1.2-3.4-1.2c-2.2,0-3.7,2.1-4.3,4.5c-0.1,0.3-0.1,0.6-0.2,0.9c-0.1,0.3-0.1,0.6-0.1,1
		c0,0.3,0,0.6-0.1,0.9L25.9,65l-1.3-1.8c-1.2-1.7-2.9-3.7-5.2-3.7c-1.1,0-2.2,0.4-3.5,1.3c-4.5,3.1-2.2,18.6-1.4,20.2
		c0.6,1.3,0.4,4.4,0.1,6.6c0.4-0.8,1-1.9,1.8-3.6l0.5-1l0.8,0.9c0.6,0.7,1.2,2.6,1.6,4.5c0.3-1,0.5-2.4,0.4-4.8l-0.1-2.1l1.4,1.6
		c1.1,1.3,2,3.1,2.9,4.9c0.2-1.1,0-2.4-0.9-5.4l-0.6-1.8l1.7,1c0.8,0.5,1.8,1.5,2.6,2.4c0.1-0.6,0.3-1.4,0-2.2
		c-0.2-0.5-0.7-0.8-1.2-1.4c-1.2-1.4-2.7-3.3-4.1-5.3c-0.3-0.5-0.7-1-1-1.5s-0.6-1-0.9-1.5s-0.5-1-0.7-1.5s-0.3-1-0.4-1.4
		c-0.1-0.2-0.1-0.4-0.1-0.6c0-0.1,0-0.2,0-0.3c0-0.1,0-0.2,0-0.3c0-0.1,0-0.2,0-0.3c0-0.1,0-0.2,0-0.2c0-0.2,0-0.3,0.1-0.4
		c0-0.1,0.1-0.2,0.1-0.3c0-0.1,0.1-0.2,0.1-0.2c0.1-0.1,0.1-0.2,0.1-0.2s0,0.1-0.1,0.2c0,0.1,0,0.1-0.1,0.2c0,0.1,0,0.2-0.1,0.3
		c0,0.1,0,0.3,0,0.4s0,0.2,0,0.2c0,0.1,0,0.2,0,0.3c0,0.1,0,0.2,0,0.3c0,0.1,0,0.2,0.1,0.3c0,0.2,0.1,0.4,0.2,0.6
		c0.1,0.4,0.3,0.9,0.5,1.3c0.2,0.5,0.5,0.9,0.8,1.4s0.6,1,1,1.4c0.3,0.5,0.7,1,1.1,1.4c1.5,1.9,3.1,3.6,4.4,4.9
		c0.1,0.1,0.1,0.1,0.2,0.2c0.4,0.4,0.8,0.8,1.2,1.1l0.2,0.1c0.1,0.1,0.3,0.3,0.5,0.4c0.6,0.6,1.3,1.3,2.4,1.3c1.4,0,3.2-1.2,5.3-3.5
		c1.6-1.8,2.3-4.2,2.5-6.6c0-0.3,0.1-0.6,0.1-0.9s0-0.6,0-0.9c0-1.4-0.1-2.8-0.3-3.8C37.5,62.1,35.5,57.6,34.1,56.7z"/>
	<path class="st0" d="M156.7,82.1c-1.1-2.7-1.8-2.4-4.5-1.4c-0.7,0.3-1.5,0.6-2.5,0.8c-4.1,1.2-16.4-2.9-20.8-5.2
		c-0.3-0.2-0.6-0.4-0.9-0.5c-0.2-0.1-0.4-0.2-0.5-0.3l-0.1-0.1c-0.3-0.4-0.5-0.8-0.8-1.1c-0.6-0.6-1.1-1.1-1.7-1.4
		c-1.1-0.6-2.2-0.6-3.3-0.4h-0.1c0.1,0,0.1,0.1,0.2,0.1c0.2,0.2,0.4,0.4,0.6,0.6l0,0c0.2,0.2,0.3,0.4,0.5,0.5
		c0.1,0.1,0.2,0.2,0.2,0.3c0.1,0.1,0.2,0.2,0.3,0.4c0.2,0.2,0.3,0.4,0.5,0.6l0.1,0.1c0.1,0.2,0.3,0.3,0.4,0.5
		c0.1,0.1,0.1,0.1,0.2,0.2s0.1,0.2,0.2,0.3c0.3,0.4,0.5,0.7,0.6,0.9c0.1,0.2,0.2,0.2,0.2,0.2s-0.1-0.1-0.3-0.3
		c-0.2-0.2-0.4-0.4-0.6-0.6c-0.1-0.1-0.3-0.3-0.4-0.4l0,0c-0.2-0.2-0.4-0.3-0.5-0.5l-0.1-0.1c-0.2-0.1-0.3-0.3-0.5-0.4
		c-0.2-0.2-0.4-0.3-0.6-0.5c-0.1-0.1-0.2-0.2-0.3-0.3c-0.1,0-0.1-0.1-0.2-0.1l-0.1-0.1c-0.2-0.1-0.4-0.3-0.6-0.4
		c-0.1-0.1-0.2-0.2-0.4-0.2l0,0h-0.1l-0.1-0.1c0,0-0.1,0-0.1-0.1c-0.1-0.1-2.5-1.6-5.3-1.8c-0.4,0-0.8,0.1-1.2,0
		c-2.6-0.5-11,2.9-11.1,2.7c0.7-0.7,1-1,1.4-1.2c0.1-0.1,0.2-0.1,0.5-0.3c0.2-0.1,0.5-0.3,0.8-0.4c0,0,0,0,0.1,0
		c-0.6-0.6-1.1-1.2-1.7-1.8c-1.2-1.2-2.4-2.3-3.7-3.4c-0.1-0.1-0.2-0.1-0.3-0.2c-0.1-0.1-0.2-0.1-0.3-0.2c-0.3-0.3-0.6-0.5-1-0.8
		l-0.1-0.1c-0.2-0.1-0.3-0.3-0.5-0.4c-0.2-0.2-0.4-0.3-0.6-0.5c-18-13.4-42.3-18-42.5-18.1H55C42,42.7,37.3,36,37.2,31.1
		C37.1,27,40,23.7,45,22c6.6-2.2,26.8-1.6,46.5,2.7c-0.6-0.2-1.2-0.4-1.8-0.6c-0.7-0.2-1.5-0.4-2.2-0.7c-0.8-0.2-1.6-0.5-2.4-0.7
		s-1.7-0.4-2.6-0.7c-1.7-0.5-3.6-0.9-5.5-1.4c-0.5-0.1-1-0.2-1.5-0.3c-0.5-0.1-1-0.2-1.5-0.3c-1-0.2-2-0.4-3.1-0.6s-2.1-0.4-3.2-0.5
		c-0.5-0.1-1.1-0.2-1.6-0.2c-0.6-0.1-1.1-0.2-1.7-0.2c-4.5-0.6-9.3-0.9-14.2-0.7c-2.5,0.2-5,0.4-7.4,1c-2.5,0.6-4.9,1.3-7.1,2.5
		l-0.8,0.5c-0.3,0.1-0.5,0.3-0.8,0.5s-0.5,0.3-0.8,0.5l-0.7,0.6c-0.5,0.4-0.9,0.8-1.4,1.3c-0.2,0.2-0.4,0.5-0.6,0.7
		s-0.4,0.5-0.6,0.7l-0.5,0.8L29,27.7c-0.2,0.3-0.3,0.6-0.4,0.8c-0.1,0.3-0.3,0.6-0.4,0.9c-0.4,1.2-0.7,2.4-0.7,3.7
		c0,1.2,0.1,2.5,0.6,3.6l0.2,0.4l0.2,0.4l0.2,0.4c0.1,0.1,0.2,0.3,0.3,0.4c0.2,0.3,0.3,0.5,0.5,0.8c0.2,0.2,0.4,0.5,0.6,0.7
		c0.8,0.9,1.8,1.7,2.9,2.5c1,0.7,2.1,1.4,3.2,2c2.2,1.2,4.6,2.2,6.9,3.2c2.4,0.9,4.7,1.7,7.1,2.5c4.7,1.6,9.3,2.8,13.7,4.2
		c1.1,0.3,2.2,0.7,3.2,1c1.1,0.3,2.1,0.7,3.1,1c1,0.4,2,0.7,3,1.1s1.9,0.8,2.8,1.2c3.7,1.6,6.9,3.4,9.6,5.2c0.3,0.2,0.7,0.4,1,0.6
		s0.6,0.4,1,0.7c0.3,0.2,0.6,0.4,0.9,0.6s0.6,0.4,0.9,0.6s0.6,0.4,0.8,0.6c0.3,0.2,0.5,0.4,0.8,0.6c0.2,0.2,0.5,0.4,0.7,0.6
		s0.5,0.4,0.7,0.6c1.7,1.6,3,2.9,3.8,3.9c0.4,0.5,0.7,0.9,0.9,1.1c0.2,0.3,0.3,0.4,0.3,0.4l-0.1,0.1c0,0-0.1-0.1-0.3-0.4
		c-0.2-0.2-0.5-0.6-0.9-1.1c-0.8-0.9-2.1-2.2-3.9-3.6c-0.2-0.2-0.5-0.4-0.7-0.6S91,68,90.7,67.8s-0.5-0.4-0.8-0.6s-0.6-0.4-0.8-0.6
		c-0.3-0.2-0.6-0.4-0.9-0.6s-0.6-0.4-0.9-0.6s-0.6-0.4-1-0.6c-0.3-0.2-0.7-0.4-1-0.6c-2.8-1.6-6-3.2-9.7-4.7
		c-0.9-0.4-1.9-0.7-2.8-1.1c-1-0.3-1.9-0.7-3-1c-1-0.3-2.1-0.6-3.1-0.9c-1.1-0.3-2.1-0.6-3.2-0.9c-2.2-0.6-4.5-1.2-6.8-1.9
		s-4.7-1.4-7-2.1c-2.4-0.8-4.8-1.6-7.2-2.6s-4.8-2.1-7.1-3.4c-1.2-0.7-2.3-1.4-3.4-2.2s-2.1-1.7-3.1-2.7c-0.9-1.1-1.7-2.2-2.2-3.6
		l-0.2-0.5c-0.1-0.2-0.1-0.3-0.1-0.5l-0.1-0.5v-0.1v-0.1v-0.1V35c0-0.4-0.1-0.7-0.1-1.1s0-0.7,0-1.1c0-1.4,0.3-2.8,0.8-4.1
		c0.1-0.3,0.3-0.6,0.4-1c0.2-0.3,0.3-0.6,0.5-0.9l0.5-0.9l0.6-0.8c0.2-0.3,0.4-0.5,0.7-0.8c0.2-0.3,0.5-0.5,0.7-0.8
		c0.5-0.5,1-1,1.5-1.4l0.8-0.6c0.3-0.2,0.6-0.4,0.9-0.6c0.3-0.2,0.6-0.4,0.9-0.5l0.9-0.5c2.4-1.2,4.9-2,7.5-2.5
		c2.5-0.6,5.1-0.8,7.6-0.9c5-0.2,9.8,0.2,14.4,0.9c0.6,0.1,1.1,0.2,1.7,0.3c0.6,0.1,1.1,0.2,1.7,0.3c1.1,0.2,2.2,0.4,3.2,0.6
		c1.1,0.2,2.1,0.5,3.1,0.7c0.5,0.1,1,0.2,1.5,0.3c0.5,0.1,1,0.2,1.5,0.4c1.9,0.5,3.8,0.9,5.5,1.5c0.9,0.2,1.7,0.5,2.5,0.7
		s1.6,0.5,2.4,0.7s1.5,0.5,2.2,0.7s1.4,0.4,2.1,0.7c1.1,0.4,2.2,0.7,3.2,1.1c8.9,2.1,17.4,4.9,24.4,8.6
		c-5.7-4.6-16.1-10.9-28.6-15.7c-14.9-5.8-36.9-11.4-57.2-4.7c-10.8,3.5-17.2,8.9-19,16c-3.5,13.5,10.7,29,10.9,29.1l0,0
		c0.9-2.6,2.7-4.6,5.4-4.6c1.3,0,2.7,0.5,4.2,1.4c1.9,1.2,4.1,6.4,4.8,11.6c0.2,1.3,0.3,3.2,0.2,5.1c0.1,0.1,0.3,0.2,0.4,0.3
		c6.1,4.5,14.9,10.1,26.7,15.4C70.8,86,74,85,77.1,85c6.5,0,11.1,4.1,12.3,6.1c1.3,2,1.7,3.8,1.4,5.2c0.1,0,0.1,0,0.2,0.1
		s10,5.8,30.3,0.2c-4.5,0.3-11.6,1-12.6,1.1c-4.8,0.2-8.5-11.6-8.1-12.3c0.1-0.1,0.8,1.3,1.3,2.2c1.6,3,3.2,9,7.2,8.6
		c3.6-0.4,8.2-0.7,13.1-1.1c1.6-0.1,3.2-0.3,4.9-0.4c6.5-0.5,13.2-1.1,18.7-1.9c6.6-1,9.3-2,10.4-2.8c-0.5,0-1,0.1-1.5,0.1
		c-2.8,0-4.1-0.7-5-1.3c-0.7-0.4-0.9-0.5-1.4-0.3c-2.4,1-7.3,1.6-10.1,1.1c-0.9-0.2-1.5-0.4-2.1-0.6c-1.4-0.5-2.8-1-6.9-0.8
		c-3.8,0.3-6.5-0.1-8.4-0.7c-3.1-1-3.9-2.5-4-2.7c-0.6-1.1-1.5-1.9-2.7-2.4c-0.9-0.4-1.9-0.5-3-0.5c-0.5,0-1.1,0.1-1.7,0.3
		c-4,1-7.1-1.7-6.9-2c0.1-0.1,3.2,1.4,6.5,0.5c2.4-0.6,4.6-0.3,6.4,0.6c0.7,0.4,1.4,0.9,1.9,1.5c0.3,0.4,0.6,0.8,0.8,1.2
		c0,0,1.2,1.9,5.7,2.5c0.1,0,0.2,0,0.3,0c1.4,0.2,3,0.2,5,0c4.4-0.2,6,0.4,7.5,0.9c0.6,0.2,1.2,0.4,1.9,0.5c2.3,0.4,6,0,8.4-0.7
		c0.3-0.1,0.6-0.2,0.9-0.3c1.2-0.5,2,0,2.7,0.4c0.4,0.2,0.8,0.5,1.5,0.7c0.6,0.2,1.4,0.3,2.5,0.4c0.9,0,1.9,0,3.2-0.2l0,0l0,0
		c0.1,0,0.3-0.1,0.5-0.4C158,87.1,158,85.1,156.7,82.1z M112,74c0.1-0.3,0.4-0.5,0.7-0.5l0,0c5.3,0.1,7.6,0.4,8.3,1.7
		c0.3,0.6,0.2,1.3-0.3,2.2c-0.2,0.3-0.5,0.6-1.3,0.6l0,0c-1.9,0-5.9-2.3-7.1-3.1C112,74.7,111.9,74.3,112,74z"/>
	<path class="st0" d="M119.9,76.7c0.1,0,0.1,0,0.2,0c0.4-0.6,0.4-0.9,0.3-0.9c-0.4-0.8-3.4-1.1-6.5-1.3
		C116.2,75.7,118.7,76.7,119.9,76.7L119.9,76.7z"/>
</g>
<g>
	<path class="st1" d="M174.2,92.4V39.6c0-0.4,0.2-0.8,0.5-1.1s0.7-0.5,1.1-0.5h7.6c0.4,0,0.8,0.2,1.1,0.5s0.5,0.7,0.5,1.1v21.2h11.2
		l13.2-21.2c0.2-0.4,0.6-0.8,1.1-1.1s0.9-0.5,1.3-0.5h8.8c0.4,0,0.7,0.2,0.9,0.5s0.2,0.7-0.1,1.1l-16,25.6L223,92.4
		c0.2,0.4,0.3,0.8,0.1,1.1c-0.2,0.3-0.5,0.5-0.9,0.5h-8.8c-0.4,0-0.8-0.2-1.3-0.5s-0.9-0.7-1.2-1.1l-14.8-22.8h-11.2v22.8
		c0,0.4-0.2,0.8-0.5,1.1c-0.3,0.3-0.7,0.5-1.1,0.5h-7.6c-0.4,0-0.8-0.2-1.1-0.5C174.4,93.2,174.2,92.8,174.2,92.4z"/>
	<path class="st1" d="M223.7,92.4l20.4-52.8c0.2-0.4,0.4-0.8,0.8-1.1c0.4-0.3,0.8-0.5,1.2-0.5h10.4c0.4,0,0.7,0.2,1.2,0.5
		c0.4,0.3,0.7,0.7,0.8,1.1l20.4,52.8c0.2,0.4,0.1,0.8-0.2,1.1c-0.3,0.3-0.6,0.5-1,0.5h-8c-0.6,0-1.1-0.2-1.5-0.5
		c-0.5-0.3-0.7-0.7-0.9-1.1L263.7,82h-24.8l-3.6,10.4c-0.2,0.4-0.5,0.8-0.9,1.1c-0.4,0.3-0.9,0.5-1.5,0.5h-8c-0.4,0-0.8-0.2-1-0.5
		C223.6,93.2,223.6,92.8,223.7,92.4z M242.6,73.3h17.6l-8.6-23.2h-0.5L242.6,73.3z"/>
	<path class="st1" d="M286.6,92.4V39.6c0-0.4,0.2-0.8,0.5-1.1s0.7-0.5,1.1-0.5h7.6c0.4,0,0.8,0.2,1.1,0.5c0.3,0.3,0.5,0.7,0.5,1.1
		v38h0.6l25.1-38c0.6-1.1,1.5-1.6,2.4-1.6h8.4c0.4,0,0.8,0.2,1.1,0.5c0.3,0.3,0.5,0.7,0.5,1.1v52.8c0,0.4-0.2,0.8-0.5,1.1
		c-0.3,0.3-0.7,0.5-1.1,0.5h-7.6c-0.4,0-0.8-0.2-1.1-0.5c-0.3-0.3-0.5-0.7-0.5-1.1v-38H324l-25.1,38c-0.6,1.1-1.5,1.6-2.4,1.6h-8.4
		c-0.4,0-0.8-0.2-1.1-0.5C286.7,93.2,286.6,92.8,286.6,92.4z M295.8,21.2v-2c0-0.4,0.2-0.8,0.5-1.1c0.4-0.3,0.8-0.5,1.2-0.5h6.9
		c0.4,0,0.8,0.2,1.2,0.5c0.4,0.3,0.5,0.7,0.5,1.1v2c0,1.2,0.3,2.2,0.9,2.9s1.5,1.1,2.5,1.1h2.8c1,0,1.9-0.4,2.5-1.1s0.9-1.7,0.9-2.9
		v-2c0-0.4,0.2-0.8,0.5-1.1c0.4-0.3,0.8-0.5,1.2-0.5h6.9c0.4,0,0.8,0.2,1.2,0.5c0.4,0.3,0.5,0.7,0.5,1.1v2c0,3.6-1.1,6.5-3.4,8.7
		c-2.2,2.2-5.2,3.3-9,3.3H308c-3.8,0-6.8-1.1-9-3.3C296.9,27.8,295.8,24.9,295.8,21.2z"/>
	<path class="st1" d="M349.7,92.4V39.6c0-0.4,0.2-0.8,0.5-1.1s0.7-0.5,1.1-0.5h8c0.9,0,1.7,0.5,2.4,1.6l20,30.4h0.4l20-30.4
		c0.8-1.1,1.5-1.6,2.4-1.6h8c0.4,0,0.8,0.2,1.1,0.5c0.3,0.3,0.5,0.7,0.5,1.1v52.8c0,0.4-0.2,0.8-0.5,1.1c-0.3,0.3-0.7,0.5-1.1,0.5
		h-7.6c-0.4,0-0.8-0.2-1.1-0.5c-0.3-0.3-0.5-0.7-0.5-1.1v-36h-0.4l-16.4,24c-0.6,0.8-1.2,1.2-2,1.2h-5.2c-0.8,0-1.4-0.4-2-1.2
		l-16.4-24h-0.4v36c0,0.4-0.2,0.8-0.5,1.1c-0.3,0.3-0.7,0.5-1.1,0.5h-7.6c-0.4,0-0.8-0.2-1.1-0.5C349.9,93.2,349.7,92.8,349.7,92.4z
		"/>
	<path class="st1" d="M421.8,92.4l20.4-52.8c0.2-0.4,0.4-0.8,0.8-1.1s0.8-0.5,1.2-0.5h10.4c0.4,0,0.7,0.2,1.2,0.5
		c0.4,0.3,0.7,0.7,0.8,1.1L477,92.4c0.2,0.4,0.1,0.8-0.2,1.1c-0.3,0.3-0.6,0.5-1,0.5h-8c-0.6,0-1.1-0.2-1.5-0.5
		c-0.5-0.3-0.7-0.7-0.9-1.1L461.8,82H437l-3.6,10.4c-0.2,0.4-0.5,0.8-0.9,1.1c-0.4,0.3-0.9,0.5-1.5,0.5h-8c-0.4,0-0.8-0.2-1-0.5
		C421.7,93.2,421.7,92.8,421.8,92.4z M440.6,73.3h17.6l-8.6-23.2h-0.5L440.6,73.3z"/>
	<path class="st1" d="M484.7,92.4V39.6c0-0.4,0.2-0.8,0.5-1.1s0.7-0.5,1.1-0.5h7.6c0.4,0,0.8,0.2,1.1,0.5c0.3,0.3,0.5,0.7,0.5,1.1
		v21.6h26.8V39.6c0-0.4,0.2-0.8,0.5-1.1s0.7-0.5,1.1-0.5h7.6c0.4,0,0.8,0.2,1.1,0.5s0.5,0.7,0.5,1.1v52.8c0,0.4-0.2,0.8-0.5,1.1
		c-0.3,0.3-0.7,0.5-1.1,0.5h-7.6c-0.4,0-0.8-0.2-1.1-0.5s-0.5-0.7-0.5-1.1V70.1h-26.8v22.4c0,0.4-0.2,0.8-0.5,1.1
		c-0.3,0.3-0.7,0.5-1.1,0.5h-7.6c-0.4,0-0.8-0.2-1.1-0.5C484.8,93.2,484.7,92.8,484.7,92.4z"/>
</g>
<g id="layer1" transform="translate(-8.9025329,-24.385462)">
	<path id="path1309" class="st2" d="M112.8,74.3c-2.5,1.3-5,3.5-6.7,5.5c-1.7,2-6.1,7.1-7,8.6c-0.9,1.5-2.2,2.2-2.5,3.9
		c-0.1,0.7,1.9,2.4,2.2,2.5c0.9,0.4,2.2-0.7,2.9-0.9c2.1-0.5,4.2-1.1,6.6,0.4c-0.3,0.5,0.2-0.1,0,4.4c-0.1,1.6-0.1,5.6,0.7,6.2
		c0.9,0.6,0.9-2.3,1.7-2c0,0,0,0,0,0c0,0,0,0,0,0c0,0,0,0,0,0c0,0,0,0,0,0c0,0,0,0,0,0c0,0,0,0,0,0c0,0,0,0,0,0l0,0
		c0.3-0.2,2.9-2.1,5.5-1.8c1.5,0.1,3.6-1.1,4.9-1.8c2-1.1,4.8-2.2,6.7-2.5c1.4-0.2,2.5-1.4,3.8-1.6c0.8-0.2-0.4-3.2-0.4-3.5
		c-0.3-1.6-2.2-3.7-3.3-5.8s-2.9-4.6-4.7-6.5s-4.2-4.4-5.8-5C115.9,73.7,115.6,73,112.8,74.3z"/>
	<path id="path5882" class="st3" d="M108.7,78.8c-1.6,0.8-2,9-3.9,10.7c-1.3,1.1-4.8,3-4.5,3.2c1,0.5,2.2-0.8,2.9-0.9
		c2.1-0.5,4.2-1.2,6.6,0.6c-0.3,0.6,0.2-0.1,0.1,5.1c0,1.8,0,6.5,0.9,7.3c0.9,0.8,0.9-2.7,1.7-2.3c0,0,0,0,0,0c0,0,0,0,0,0
		c0,0,0,0,0,0c0,0,0,0,0,0c0,0,0,0,0,0c0,0,0,0,0,0c0,0,0,0,0,0l0,0c0.3-0.2,2.9-2.3,5.5-2c1.5,0.2,3.6-1.2,4.8-2
		c1.9-1.2,4.7-2.5,6.6-2.8c1.4-0.2,2.4-1.5,3.7-1.8c0.8-0.2-4.7,1.3-2.8-1.3c0.8-1.2-9.6,3.5-14.7-2.8
		C110.5,83.4,110.4,78,108.7,78.8z"/>
	<path id="path5878" class="st4" d="M98.1,88.8c0.4,0.3,3.2,4.1,3.4,3.7c0-0.5-0.3-0.6-0.5-0.6c0.2-0.5,0.2-1-0.3-0.9
		c-0.5-0.1-1-0.1-0.6-0.9c0.2-0.4-0.2-1.1-0.4-1.5c-0.4-0.2-0.8-0.7-1-1.1"/>
	<path id="path5003" class="st5" d="M128.2,93.2c-0.7-0.3-1.6-0.6-2.1-0.5c-0.5-0.5-0.7,0.2-1,0.4c-0.2-1-0.9,0.6-1.4,0.6
		c-0.3,0.3-0.2-0.8-0.7-0.3c-0.6,0.2-1,0.3-1.5,0.7c0,1.1-0.9,1.9-1.3,0.7c-0.5,0.5-1.5,1.4-1.7,0.1c-0.8,1.3-0.6,2.3-1.5,3
		c-0.1-1-2.2-1.3-2.3-0.2c-0.5,0.4-0.1-1.3-0.8-0.8c-1-0.3,0,2.6-2,1.6c-1,0.1-0.1,2.4-0.7,3.5c0,1.1-1-0.2-1.3-0.1
		c0.3,1.7,0.5,1.1,0.4,2.3c0.1,1.5,0,2.2,1,2.4c0.2-0.7-0.1-0.4,0.2,0.9c0.5-0.3,1-2,1.2-0.4c0.2-1,1.4-1.7,1.2-2.7
		c0.6,0,1.5,1,1.8-0.4c0.4-1.1,1.1-1.6,1.2-0.9c0.8,0.9,0.8,0.7,1.4,0.3c-0.3-1.2,1.5-0.3,0.4-1.4c0.3-0.6,1.2-1.1,1.8-1
		c0.7,1.1,2.2,1,2.2-0.6c-0.1-1.2,1-1.8,1.5-1c0.6-1.2,2,0.2,2.5-0.7c-0.7-1.1,0.5-2.1,0.9-1.2c0.4-0.5,0.7-2.2,1.4-1.1
		c0.6-0.4,1.3-1,1.8-1.4c0.6,1,1.5-0.2,0.8-1.5c-0.4-0.9,0.9,0.3,0.4-0.8c-0.5-1.2-1.2-3-1.8-2.8c-0.8-0.2-1.1,0.7-1,1.9
		c-0.1-0.9-0.9,0.1-1.3,0.5l-0.2,0.1l-0.4-0.3"/>
	<path id="path1307" class="st6" d="M128.7,93.7c-0.7-0.3-1.3-0.2-1.9-0.1c-0.5-0.5-0.9-0.2-1.2,0c-0.2-1-0.7,1-1.1,1.1
		c-0.3,0.3-0.2-0.8-0.7-0.3c-0.6,0.2-1.5-0.3-1.9,0.1c0,1.1-0.9,1.9-1.3,0.7c-0.5,0.5-1,2.1-1.2,0.8c-1.1,0.1-1.3,1.8-2.1,2.5
		c-0.1-1-1.5-0.8-1.6,0.3c-0.5,0.4-0.4-1.8-1.2-1.3c-1-0.3-0.5,2.6-1.7,2.1c-1,0.1-0.7,1.7-1.2,2.8c0,1.1-0.5,0.5-0.8,0.6
		c0.7,1.1-1.5,1.2-0.6,2.9c0.1,1.4,0.4,2.4,1.4,2.6c0.2-0.7,0.4-1.3,0.7-0.1c0.5-0.3,1.1-1.9,1.2-0.4c0.3-1,1.4-1.6,1.2-2.6
		c0.6,0,1.5,1,1.8-0.4c0.4-1,0.6-0.3,0.7,0.5c0.8,0.8,1.3-0.7,1.9-1c-0.3-1.2,1.5-0.3,0.5-1.4c0.3-0.6,1.2-1.1,1.8-1
		c0.6,0.7,2.2,1,2.2-0.6c-0.1-1.2,1-1.7,1.5-1c0.6-1.1,2,0.2,2.5-0.7c-0.7-1.1,0.5-2.1,0.9-1.2c0.4-0.5,0.7-2.1,1.4-1.1
		c0.6-0.4,1.3-1,1.8-1.4c0.6,1,1.5-0.2,0.8-1.5c-0.4-0.9,0.9,0.3,0.4-0.8c-0.2-1.3-0.8-3.4-1.8-2.8c-0.8-0.2-1.2,0.7-1,1.9
		c-0.1-0.8-1.3-0.4-1.7,0l-0.1,0.2l-0.1,0.2"/>
	<path id="path3126" class="st7" d="M109.9,95c-0.5-5.6,1.1-8.4,0.1-12.8c-0.6-2.6-1.9-0.4-1,2"/>
	<path id="path3249" class="st8" d="M111.7,102.5c-0.1,1.1-0.5,0.5-0.9,0.6c0.7,1.1-1.6,1.2-0.7,2.9c0,1.4,0.4,2.4,1.5,2.5
		c0.2-0.7,0.5-1.3,0.7-0.1c0.6-0.3,1.2-1.9,1.3-0.4c0.3-1,1.5-1.6,1.4-2.6c0.7,0,1.5,0.8,1.9-0.6c0.4-1,0.7-0.1,0.8,0.6
		c0.8,0.8,1.4-0.7,2.1-1c-0.3-1.2,0.8-0.3,0.5-1.4c-0.2-0.7,3.1-0.9,2.5-1.5c-1.7-1.8-3.5,1.5-3.8,1.4c-0.3-0.1-0.7,0-0.3-0.3
		c0.4-0.4-0.6,0.3-1.6-0.1c-1-0.3-1.5,0.3-1.4,1.5c-0.8-0.5-0.7,0.2-1.7,0.8c0.5-1.5-1.2-0.2-1.2-0.2s0.1-1.6-0.4-1.3
		c0.2-0.9-0.2-1.1-0.2-1.1S112.3,101.4,111.7,102.5z"/>
	<path id="path2251" class="st9" d="M98.4,87.6c-0.2-0.3-0.6-0.3-0.6-0.6c0-0.3-0.3-0.1-0.4-0.2c-0.3,0.5-0.8,0.8-1,1.5
		c0.1-0.1,0.1-0.4,0-0.1c-0.3,0.3-0.5,0.7-0.3,1.3c0.1,0.3-0.2,0.6,0.2,0.6c0,0.5-0.5,0.5-0.4,0.9c0.2,0.4,0.2,0.9,0,1.3
		c-0.2,0.4,0,0.9,0,1.3c-0.1,0.3-0.1,0.6,0.1,0.8c0.1,0.5,0.4,0.8,0.5,1.3c0.2,0.2,0.4,0.2,0.5,0.5c0.4,0,0.5,0.7,0.8,0.7
		c0.3,0.1,0.6,0,0.9,0c0.2,0.2,0.5,0.4,0.8,0.4c0.4,0.3,0.4-0.5,0.6-0.8c0-0.4,0.1-0.4,0.3-0.1c0.3,0.2,0.6-0.3,0.7-0.6
		c0.2-0.4,0.3-0.7,0.5-1c0.2-0.6,0.3-1.3,0.1-2c0-0.4-0.3-0.4-0.5-0.4c0-0.4,0.2-0.9-0.3-0.9c-0.3-0.1-0.9-0.4-0.6-0.8
		c0.2-0.4-0.2-0.9-0.4-1.3c-0.3-0.3-0.5-0.6-0.7-1C98.9,88.3,98.6,88.1,98.4,87.6C98.3,87.3,98.4,87.6,98.4,87.6"/>
	<path id="path4128" class="st10" d="M96.6,92.8c-0.2-0.2,0.4-0.2,0.3-0.5c0-0.3-0.1-0.3-0.2-0.5c-0.3,0.5-0.4-0.6-0.6,0.1
		c0.1-0.1,0-0.9-0.1-0.6c-0.3,0.3-0.4-0.8-0.3-0.3c0.2,0.4,0.2,0.9,0,1.3c-0.2,0.4,0,0.9,0,1.3c-0.1,0.3-0.1,0.6,0.1,0.8
		c0.1,0.5,0.4,0.8,0.5,1.3c0.2,0.2,0.4,0.2,0.5,0.5c0.4,0,0.5,0.7,0.8,0.7c0.3,0.1,0.6,0,0.9,0c0.2,0.2,0.5,0.4,0.8,0.4
		c0.4,0.3,0.4-0.5,0.6-0.8c0-0.4,0.1-0.4,0.3-0.1c0.3,0.2,0.6-0.3,0.7-0.6c0.2-0.4-0.8,0.2-0.6-0.2c0.2-0.6-0.6,0.8-0.7,0.1
		c0-0.4-1.1,0.7-0.9-0.1c0-0.4,0.1-0.1-0.3-0.1c-0.3-0.1-1-0.6-0.8-1.1c0.2-0.4-0.1,0.1-0.3-0.3c-0.3-0.3-0.1-0.1-0.3-0.4
		c-0.3,0-0.2-0.2-0.3-0.7C96.6,93.7,96.5,92.7,96.6,92.8z"/>
	<path id="path5880" class="st11" d="M109.7,95.8c0,0,0.6-4.7,0.6-6.6c0-1.7-0.4-4.3-0.8-4.8c-0.5-0.4-0.9,0.5-0.8,1.5
		c0.1,1,0.1,1.2,0.6,3.1c0.2,0.8,0.5,2.9,0.4,3.8C109.7,93.9,109.6,96.1,109.7,95.8z"/>
</g>
<g>
	<path class="st12" d="M560.7,91.5c1.5,0,2.7,1.2,2.7,2.7c0,1.5-1.2,2.7-2.7,2.7c-1.5,0-2.7-1.2-2.7-2.7
		C558,92.7,559.2,91.5,560.7,91.5z"/>
	
		<linearGradient id="SVGID_1_" gradientUnits="userSpaceOnUse" x1="592.5987" y1="13.752" x2="592.5987" y2="20.7434" gradientTransform="matrix(1 0 0 -1 0 128)">
		<stop  offset="0" style="stop-color:#00A837"/>
		<stop  offset="0.1741" style="stop-color:#009037"/>
		<stop  offset="0.4823" style="stop-color:#006A37"/>
		<stop  offset="0.7305" style="stop-color:#005337"/>
		<stop  offset="0.8857" style="stop-color:#004A37"/>
	</linearGradient>
	<path class="st13" d="M604.8,107.3v5.9c-3.8,0.7-8,1.1-12.2,1.1c-4.3,0-8.5-0.4-12.2-1.1v-5.9l0-0.1c4.1,0.5,8.1,0.8,12.2,0.8
		S600.8,107.8,604.8,107.3L604.8,107.3z"/>
	<path class="st12" d="M621.3,95.4c0,0.1,0,0.3,0,0.4c0,1.5-1.2,2.7-2.7,2.7c-1.5,0-2.7-1.2-2.7-2.7c0,0,0-0.1,0-0.1
		C617.7,95.7,619.4,95.6,621.3,95.4z"/>
	<path class="st12" d="M618.6,93.2c0.8,0,1.5,0.3,2,0.9c-1.4,0.1-2.8,0.2-4.2,0.3C616.9,93.6,617.7,93.2,618.6,93.2z"/>
	<path class="st12" d="M610.8,74.8c1,0,1.8,0.5,2.3,1.3c-1.6,0.1-3.1,0.2-4.7,0.2C608.9,75.4,609.8,74.8,610.8,74.8z"/>
	<path class="st12" d="M613.5,77.5C613.5,77.5,613.5,77.5,613.5,77.5c0,1.5-1.2,2.7-2.7,2.7c-1.4,0-2.6-1.1-2.7-2.5
		C609.9,77.7,611.7,77.6,613.5,77.5z"/>
	<path class="st12" d="M596,64c1.5,0,2.7,1.2,2.7,2.7c0,1.5-1.2,2.7-2.7,2.7c-1.5,0-2.7-1.2-2.7-2.7C593.3,65.2,594.5,64,596,64z"/>
	<path class="st12" d="M581.7,82.7c1.5,0,2.7,1.2,2.7,2.7c0,1.5-1.2,2.7-2.7,2.7c-1.5,0-2.7-1.2-2.7-2.7
		C579,83.9,580.2,82.7,581.7,82.7z"/>
	<path class="st12" d="M575.7,51.4c1.4,0,2.5,1,2.7,2.3c-1.7-0.5-3.2-1-4.6-1.5C574.3,51.7,575,51.4,575.7,51.4z"/>
	<path class="st12" d="M578.2,55.1c-0.4,1-1.4,1.7-2.5,1.7c-1.5,0-2.7-1.2-2.7-2.7c0-0.2,0-0.4,0.1-0.6
		C574.6,54,576.3,54.5,578.2,55.1z"/>
	<path class="st12" d="M605.7,43.5c1.5,0,2.7,1.2,2.7,2.7c0,1.5-1.2,2.7-2.7,2.7c-1.5,0-2.7-1.2-2.7-2.7
		C603,44.7,604.3,43.5,605.7,43.5z"/>
	<path class="st12" d="M582.9,33.2c-0.4,0.2-0.8,0.3-1.2,0.3c-1.4,0-2.6-1.1-2.7-2.5C580.2,31.7,581.5,32.4,582.9,33.2z"/>
	<path class="st12" d="M584.4,30.8c0,0.5-0.1,1-0.4,1.4c-1.9-0.9-3.4-1.8-4.7-2.6c0.5-0.9,1.4-1.4,2.4-1.4
		C583.2,28.1,584.4,29.3,584.4,30.8z"/>
	<path class="st12" d="M597.2,18.9c1.5,0,2.7,1.2,2.7,2.7c0,1.5-1.2,2.7-2.7,2.7c-1.5,0-2.7-1.2-2.7-2.7
		C594.5,20.1,595.8,18.9,597.2,18.9z"/>
	<g>
		
			<linearGradient id="SVGID_2_" gradientUnits="userSpaceOnUse" x1="602.1161" y1="38.5004" x2="632.5514" y2="38.5004" gradientTransform="matrix(1 0 0 -1 0 128)">
			<stop  offset="0" style="stop-color:#00A837"/>
			<stop  offset="0.1876" style="stop-color:#009C37"/>
			<stop  offset="0.6165" style="stop-color:#008537"/>
			<stop  offset="0.8857" style="stop-color:#007C37"/>
		</linearGradient>
		<path class="st14" d="M607.1,92.7c-1.6,0.6-3.2,1.1-5,1.7c3.9,0.2,8.1,0.2,12.7,0c0.6-1.6,2.1-2.7,3.8-2.7c1.6,0,2.9,0.9,3.6,2.2
			c3.3-0.3,6.7-0.7,10.3-1.3l-7-8.2C623.7,85.5,617.2,89.1,607.1,92.7z"/>
		
			<linearGradient id="SVGID_3_" gradientUnits="userSpaceOnUse" x1="562.0056" y1="27.7313" x2="635.881" y2="27.7313" gradientTransform="matrix(1 0 0 -1 0 128)">
			<stop  offset="0" style="stop-color:#00A837"/>
			<stop  offset="0.1876" style="stop-color:#009C37"/>
			<stop  offset="0.6165" style="stop-color:#008537"/>
			<stop  offset="0.8857" style="stop-color:#007C37"/>
		</linearGradient>
		<path class="st15" d="M633.6,93.9c-3.8,0.6-7.5,1.1-10.9,1.4c0,0.2,0,0.4,0,0.6c0,2.3-1.8,4.1-4.1,4.1c-2.3,0-4.1-1.8-4.1-4.1
			c0,0,0,0,0,0c-1.9,0.1-3.8,0.1-5.7,0.1c-3.8,0-7.3-0.2-10.5-0.4c-9.7,2.8-22.1,5.5-36.3,6.2c9.9,3.2,20.2,4.9,30.6,4.9
			c14.9,0,29.9-3.5,43.3-10L633.6,93.9z"/>
		
			<linearGradient id="SVGID_4_" gradientUnits="userSpaceOnUse" x1="549.3163" y1="35.6712" x2="594.4155" y2="35.6712" gradientTransform="matrix(1 0 0 -1 0 128)">
			<stop  offset="0" style="stop-color:#00A837"/>
			<stop  offset="0.1876" style="stop-color:#009C37"/>
			<stop  offset="0.6165" style="stop-color:#008537"/>
			<stop  offset="0.8857" style="stop-color:#007C37"/>
		</linearGradient>
		<path class="st16" d="M577.7,91.9c-10.3-2.9-16.1-6.5-17.9-7.7l-10.5,12.4c2.9,1.4,5.9,2.7,9,3.8c13.9-0.3,26.2-2.6,36.1-5.3
			C587.7,94.4,582.1,93.2,577.7,91.9z M560.7,98.3c-2.3,0-4.1-1.8-4.1-4.1s1.8-4.1,4.1-4.1s4.1,1.8,4.1,4.1S562.9,98.3,560.7,98.3z"
			/>
		
			<linearGradient id="SVGID_5_" gradientUnits="userSpaceOnUse" x1="557.4177" y1="43.5369" x2="630.2987" y2="43.5369" gradientTransform="matrix(1 0 0 -1 0 128)">
			<stop  offset="0" style="stop-color:#00A837"/>
			<stop  offset="0.1876" style="stop-color:#009C37"/>
			<stop  offset="0.6165" style="stop-color:#008537"/>
			<stop  offset="0.8857" style="stop-color:#007C37"/>
		</linearGradient>
		<path class="st17" d="M614.9,77.5c0,2.3-1.8,4.1-4.1,4.1c-2.2,0-4-1.7-4.1-3.9c-5.2-0.1-10-0.7-14.4-1.6
			c-7.5,1.5-16.7,2.7-27.4,2.7c-2.5,0-5-0.1-7.6-0.2c1.4,0.6,2.9,1.3,4.4,1.8c0.3,0.1,0.5,0.5,0.4,0.8c0,0.1-0.1,0.3-0.2,0.4
			l-1.3,1.6c1.8,1.2,7.6,4.7,17.4,7.5c5.1,1.4,11.8,2.8,20,3.5c3.2-0.9,6-1.9,8.5-2.8c9.6-3.4,15.9-6.8,18-8l-1.5-1.8
			c-0.1-0.1-0.2-0.2-0.2-0.4c-0.1-0.3,0.1-0.7,0.4-0.8c2.3-0.9,4.7-1.9,6.9-3l-2.2-2.6c-4.5,1.3-8.9,2.1-13.2,2.5
			C614.9,77.4,614.9,77.4,614.9,77.5z M581.7,89.5c-2.3,0-4.1-1.8-4.1-4.1s1.8-4.1,4.1-4.1c2.3,0,4.1,1.8,4.1,4.1
			S584,89.5,581.7,89.5z"/>
		
			<linearGradient id="SVGID_6_" gradientUnits="userSpaceOnUse" x1="595.9565" y1="56.8105" x2="627.0728" y2="56.8105" gradientTransform="matrix(1 0 0 -1 0 128)">
			<stop  offset="0" style="stop-color:#00A837"/>
			<stop  offset="0.1876" style="stop-color:#009C37"/>
			<stop  offset="0.6165" style="stop-color:#008537"/>
			<stop  offset="0.8857" style="stop-color:#007C37"/>
		</linearGradient>
		<path class="st18" d="M603.4,73.3c-2.2,0.7-4.7,1.4-7.5,2c3.4,0.5,7.1,0.9,10.9,0.9c0.5-1.7,2.1-2.9,3.9-2.9
			c1.7,0,3.2,1.1,3.8,2.6c4-0.4,8.2-1.1,12.5-2.3l-6.4-7.5C619,67.1,613.1,70.3,603.4,73.3z"/>
		
			<linearGradient id="SVGID_7_" gradientUnits="userSpaceOnUse" x1="555.2167" y1="56.6655" x2="588.885" y2="56.6655" gradientTransform="matrix(1 0 0 -1 0 128)">
			<stop  offset="0" style="stop-color:#00A837"/>
			<stop  offset="0.1876" style="stop-color:#009C37"/>
			<stop  offset="0.6165" style="stop-color:#008537"/>
			<stop  offset="0.8857" style="stop-color:#007C37"/>
		</linearGradient>
		<path class="st19" d="M588.9,75.3c-2-0.5-3.8-1-5.5-1.6c-9.7-3.1-16.3-7.2-18.2-8.5l-10,11.7C568.4,77.9,579.7,76.9,588.9,75.3z"
			/>
		
			<linearGradient id="SVGID_8_" gradientUnits="userSpaceOnUse" x1="566.0939" y1="62.4988" x2="625.7815" y2="62.4988" gradientTransform="matrix(1 0 0 -1 0 128)">
			<stop  offset="0" style="stop-color:#00A837"/>
			<stop  offset="0.1876" style="stop-color:#009C37"/>
			<stop  offset="0.6165" style="stop-color:#008537"/>
			<stop  offset="0.8857" style="stop-color:#007C37"/>
		</linearGradient>
		<path class="st20" d="M575.5,63.4c-2.7,0-5.5-0.1-8.4-0.3l-0.9,1.1c2,1.3,8.5,5.2,17.8,8.2c2.5,0.8,5.4,1.6,8.5,2.2
			c4.1-0.8,7.7-1.8,10.7-2.7c9.1-2.8,14.9-5.8,16.8-6.9l-1.9-2.2c-0.2-0.2-0.2-0.4-0.1-0.6c0.1-0.2,0.2-0.4,0.4-0.5
			c2.6-0.9,5.1-2,7.6-3.2l-1.8-2.2c-7.1,1.6-13.7,2.3-19.7,2.3C597.6,61.1,588.1,63.4,575.5,63.4z M596,70.8c-2.3,0-4.1-1.8-4.1-4.1
			c0-2.3,1.8-4.1,4.1-4.1c2.3,0,4.1,1.8,4.1,4.1C600.1,69,598.2,70.8,596,70.8z"/>
		
			<linearGradient id="SVGID_9_" gradientUnits="userSpaceOnUse" x1="607.9011" y1="74.2502" x2="622.8973" y2="74.2502" gradientTransform="matrix(1 0 0 -1 0 128)">
			<stop  offset="0" style="stop-color:#00A837"/>
			<stop  offset="0.1876" style="stop-color:#009C37"/>
			<stop  offset="0.6165" style="stop-color:#008537"/>
			<stop  offset="0.8857" style="stop-color:#007C37"/>
		</linearGradient>
		<path class="st21" d="M607.9,57.1c4.7-0.2,9.7-0.9,15-2l-4-4.7C617.6,51.5,614,54.4,607.9,57.1z"/>
		
			<linearGradient id="SVGID_10_" gradientUnits="userSpaceOnUse" x1="559.4135" y1="71.7728" x2="599.9483" y2="71.7728" gradientTransform="matrix(1 0 0 -1 0 128)">
			<stop  offset="0" style="stop-color:#00A837"/>
			<stop  offset="0.1876" style="stop-color:#009C37"/>
			<stop  offset="0.6165" style="stop-color:#008537"/>
			<stop  offset="0.8857" style="stop-color:#007C37"/>
		</linearGradient>
		<path class="st22" d="M599.9,58.6c-7-0.3-13.1-1.3-17.7-2.4c-0.9-0.2-1.8-0.5-2.7-0.7c-0.6,1.6-2.1,2.7-3.8,2.7
			c-2.3,0-4.1-1.8-4.1-4.1c0-0.4,0.1-0.8,0.2-1.1c-2.8-1.1-4.6-2-5.5-2.5l-6.9,8.1c2.4,1.2,4.9,2.2,7.5,3.1
			C581.2,62.8,592.1,61,599.9,58.6z"/>
		
			<linearGradient id="SVGID_11_" gradientUnits="userSpaceOnUse" x1="598.1598" y1="94.7384" x2="617.6779" y2="94.7384" gradientTransform="matrix(1 0 0 -1 0 128)">
			<stop  offset="0" style="stop-color:#00A837"/>
			<stop  offset="0.1876" style="stop-color:#009C37"/>
			<stop  offset="0.6165" style="stop-color:#008537"/>
			<stop  offset="0.8857" style="stop-color:#007C37"/>
		</linearGradient>
		<path class="st23" d="M598.2,36.7c5.5,1,12,1.3,19.5,0.3l-6.8-8c-1.2,1.2-4.4,4-10.1,6.6C599.9,36,599,36.3,598.2,36.7z"/>
		
			<linearGradient id="SVGID_12_" gradientUnits="userSpaceOnUse" x1="562.802" y1="80.5843" x2="622.393" y2="80.5843" gradientTransform="matrix(1 0 0 -1 0 128)">
			<stop  offset="0" style="stop-color:#00A837"/>
			<stop  offset="0.1876" style="stop-color:#009C37"/>
			<stop  offset="0.6165" style="stop-color:#008537"/>
			<stop  offset="0.8857" style="stop-color:#007C37"/>
		</linearGradient>
		<path class="st24" d="M569.8,45.8c0.1,0.2,0,0.5-0.1,0.6l-2.5,2.9c0.9,0.5,2.7,1.3,5.2,2.3c0.7-1,2-1.7,3.3-1.7
			c2.3,0,4.1,1.8,4.1,4.1c0,0,0,0,0,0c0.9,0.2,1.8,0.5,2.8,0.7c5.4,1.3,12.7,2.5,21.3,2.4c0.8-0.3,1.6-0.6,2.3-0.9
			c6.6-2.8,10.5-5.9,11.7-7l-2.4-2.8c-0.1-0.1-0.1-0.2-0.2-0.4c-0.1-0.3,0.1-0.7,0.5-0.8c2.2-0.8,4.4-1.7,6.6-2.8l-3.6-4.3
			c-3.5,0.5-6.8,0.7-9.9,0.7c-5,0-9.4-0.6-13.3-1.4c-7.4,2.4-15.3,3.2-22.2,3.2c-3.1,0-6.1-0.2-8.7-0.4l-1.8,2.2
			c2.1,1,4.3,2,6.6,2.8C569.6,45.4,569.7,45.6,569.8,45.8z M605.7,42.1c2.3,0,4.1,1.8,4.1,4.1s-1.8,4.1-4.1,4.1
			c-2.3,0-4.1-1.8-4.1-4.1C601.6,44,603.5,42.1,605.7,42.1z"/>
		
			<linearGradient id="SVGID_13_" gradientUnits="userSpaceOnUse" x1="565.7546" y1="94.2475" x2="592.8438" y2="94.2475" gradientTransform="matrix(1 0 0 -1 0 128)">
			<stop  offset="0" style="stop-color:#00A837"/>
			<stop  offset="0.1876" style="stop-color:#009C37"/>
			<stop  offset="0.6165" style="stop-color:#008537"/>
			<stop  offset="0.8857" style="stop-color:#007C37"/>
		</linearGradient>
		<path class="st25" d="M592.8,36.9c-2.6-0.7-4.9-1.5-6.8-2.3c-0.5-0.2-1.1-0.5-1.6-0.7c-0.7,0.6-1.7,1-2.7,1
			c-2.3,0-4.1-1.8-4.1-4.1c0-0.2,0-0.4,0.1-0.6c-1.3-0.8-2.1-1.6-2.7-2l-9.3,10.9C573.4,39.7,583.3,39.6,592.8,36.9z"/>
		
			<linearGradient id="SVGID_14_" gradientUnits="userSpaceOnUse" x1="575.9318" y1="106.2383" x2="609.9347" y2="106.2383" gradientTransform="matrix(1 0 0 -1 0 128)">
			<stop  offset="0" style="stop-color:#00A837"/>
			<stop  offset="0.1876" style="stop-color:#009C37"/>
			<stop  offset="0.6165" style="stop-color:#008537"/>
			<stop  offset="0.8857" style="stop-color:#007C37"/>
		</linearGradient>
		<path class="st26" d="M581.7,26.7c2.3,0,4.1,1.8,4.1,4.1c0,0.7-0.2,1.4-0.5,2c0.4,0.2,0.8,0.4,1.3,0.6c2.4,1,5.4,2,8.9,2.8
			c1.6-0.5,3.2-1.1,4.7-1.8c5.7-2.6,8.7-5.4,9.8-6.4L592.6,7.4l-16.7,19.7c0.5,0.4,1.2,1,2.2,1.7C578.9,27.5,580.2,26.7,581.7,26.7z
			 M597.2,17.5c2.3,0,4.1,1.8,4.1,4.1s-1.8,4.1-4.1,4.1c-2.3,0-4.1-1.8-4.1-4.1S595,17.5,597.2,17.5z"/>
	</g>
	<path class="st27" d="M637.5,96.4c0.1,0.2,0.2,0.4,0.2,0.6c0,0.2-0.2,0.4-0.4,0.5c-10.2,5.1-21.2,8.4-32.5,9.8
		c-4.1,0.5-8.1,0.8-12.2,0.8s-8.2-0.3-12.2-0.8c-11.3-1.4-22.3-4.7-32.5-9.8c-0.2-0.1-0.3-0.3-0.4-0.5c0-0.2,0-0.4,0.2-0.6l12.7-15
		c-2.3-0.9-4.7-2-6.9-3.1c-0.2-0.1-0.3-0.3-0.4-0.5c0-0.2,0-0.4,0.2-0.6l12.3-14.5c-2.6-1-5.1-2.1-7.6-3.3c-0.2-0.1-0.3-0.3-0.4-0.5
		c0-0.2,0-0.4,0.2-0.6l10.2-12c-2.2-0.8-4.4-1.8-6.6-2.9c-0.2-0.1-0.3-0.3-0.4-0.5c0-0.2,0-0.4,0.2-0.6l30.9-36.5
		c0.1-0.2,0.3-0.2,0.5-0.2c0.2,0,0.4,0.1,0.5,0.2l30.9,36.5c0.1,0.2,0.2,0.4,0.2,0.6c0,0.2-0.2,0.4-0.4,0.5c-2.1,1.1-4.3,2-6.6,2.9
		l10.2,12c0.1,0.2,0.2,0.4,0.2,0.6c0,0.2-0.2,0.4-0.4,0.5c-2.5,1.2-5,2.3-7.6,3.3L632,77.2c0.1,0.2,0.2,0.4,0.2,0.6
		c0,0.2-0.2,0.4-0.4,0.5c-2.2,1.1-4.6,2.2-6.9,3.1L637.5,96.4z M635.9,96.6l-2.3-2.7c-3.8,0.6-7.5,1.1-10.9,1.4c0,0.2,0,0.4,0,0.6
		c0,2.3-1.8,4.1-4.1,4.1c-2.3,0-4.1-1.8-4.1-4.1c0,0,0,0,0,0c-1.9,0.1-3.8,0.1-5.7,0.1c-3.8,0-7.3-0.2-10.5-0.4
		c-9.7,2.8-22.1,5.5-36.3,6.2c9.9,3.2,20.2,4.9,30.6,4.9C607.5,106.6,622.5,103.1,635.9,96.6z M632.6,92.7l-7-8.2
		c-1.8,1-8.4,4.6-18.4,8.2c-1.6,0.6-3.2,1.1-5,1.7c3.9,0.2,8.1,0.2,12.7,0c0.6-1.6,2.1-2.7,3.8-2.7c1.6,0,2.9,0.9,3.6,2.2
		C625.5,93.6,629,93.2,632.6,92.7z M630.3,77.4l-2.2-2.6c-4.5,1.3-8.9,2.1-13.2,2.5c0,0.1,0,0.1,0,0.2c0,2.3-1.8,4.1-4.1,4.1
		c-2.2,0-4-1.7-4.1-3.9c-5.2-0.1-10-0.7-14.4-1.6c-7.5,1.5-16.7,2.7-27.4,2.7c-2.5,0-5-0.1-7.6-0.2c1.4,0.6,2.9,1.3,4.4,1.8
		c0.3,0.1,0.5,0.5,0.4,0.8c0,0.1-0.1,0.3-0.2,0.4l-1.3,1.6c1.8,1.2,7.6,4.7,17.4,7.5c5.1,1.4,11.8,2.8,20,3.5c3.2-0.9,6-1.9,8.5-2.8
		c9.6-3.4,15.9-6.8,18-8l-1.5-1.8c-0.1-0.1-0.2-0.2-0.2-0.4c-0.1-0.3,0.1-0.7,0.4-0.8C625.7,79.5,628.1,78.5,630.3,77.4z
		 M627.1,73.6l-6.4-7.5c-1.7,1-7.6,4.2-17.3,7.2c-2.2,0.7-4.7,1.4-7.5,2c3.4,0.5,7.1,0.9,10.9,0.9c0.5-1.7,2.1-2.9,3.9-2.9
		c1.7,0,3.2,1.1,3.8,2.6C618.6,75.6,622.8,74.8,627.1,73.6z M625.8,58.5l-1.8-2.2c-7.1,1.6-13.7,2.3-19.7,2.3
		c-6.6,2.5-16.1,4.8-28.7,4.8c-2.7,0-5.5-0.1-8.4-0.3l-0.9,1.1c2,1.3,8.5,5.2,17.8,8.2c2.5,0.8,5.4,1.6,8.5,2.2
		c4.1-0.8,7.7-1.8,10.7-2.7c9.1-2.8,14.9-5.8,16.8-6.9l-1.9-2.2c-0.2-0.2-0.2-0.4-0.1-0.6c0.1-0.2,0.2-0.4,0.4-0.5
		C620.8,60.8,623.3,59.7,625.8,58.5z M622.9,55.1l-4-4.7c-1.3,1.1-4.8,4-11,6.7C612.6,56.9,617.6,56.3,622.9,55.1z M622.4,42.6
		l-3.6-4.3c-3.5,0.5-6.8,0.7-9.9,0.7c-5,0-9.4-0.6-13.3-1.4c-7.4,2.4-15.3,3.2-22.2,3.2c-3.1,0-6.1-0.2-8.7-0.4l-1.8,2.2
		c2.1,1,4.3,2,6.6,2.8c0.2,0.1,0.4,0.3,0.4,0.5c0.1,0.2,0,0.5-0.1,0.6l-2.5,2.9c0.9,0.5,2.7,1.3,5.2,2.3c0.7-1,2-1.7,3.3-1.7
		c2.3,0,4.1,1.8,4.1,4.1c0,0,0,0,0,0c0.9,0.2,1.8,0.5,2.8,0.7c5.4,1.3,12.7,2.5,21.3,2.4c0.8-0.3,1.6-0.6,2.3-0.9
		c6.6-2.8,10.5-5.9,11.7-7l-2.4-2.8c-0.1-0.1-0.1-0.2-0.2-0.4c-0.1-0.3,0.1-0.7,0.5-0.8C618.1,44.5,620.3,43.6,622.4,42.6z
		 M621.3,95.9c0-0.2,0-0.3,0-0.4c-1.8,0.2-3.6,0.3-5.3,0.4c0,0,0,0.1,0,0.1c0,1.5,1.2,2.7,2.7,2.7C620.1,98.6,621.3,97.4,621.3,95.9
		z M620.6,94.1c-0.5-0.5-1.2-0.9-2-0.9c-0.9,0-1.7,0.5-2.2,1.2C617.8,94.3,619.2,94.2,620.6,94.1z M617.7,37l-6.8-8
		c-1.2,1.2-4.4,4-10.1,6.6c-0.9,0.4-1.7,0.8-2.6,1.1C603.6,37.6,610.2,38,617.7,37z M613.5,77.5C613.5,77.5,613.5,77.5,613.5,77.5
		c-1.8,0.1-3.6,0.2-5.4,0.2c0.1,1.4,1.3,2.5,2.7,2.5C612.3,80.2,613.5,79,613.5,77.5z M613.1,76.1c-0.5-0.8-1.3-1.3-2.3-1.3
		c-1,0-1.9,0.6-2.4,1.5C609.9,76.2,611.5,76.2,613.1,76.1z M609.9,27.9L592.6,7.4l-16.7,19.7c0.5,0.4,1.2,1,2.2,1.7
		c0.7-1.2,2-2.1,3.6-2.1c2.3,0,4.1,1.8,4.1,4.1c0,0.7-0.2,1.4-0.5,2c0.4,0.2,0.8,0.4,1.3,0.6c2.4,1,5.4,2,8.9,2.8
		c1.6-0.5,3.2-1.1,4.7-1.8C605.9,31.7,608.9,28.9,609.9,27.9z M599.9,58.6c-7-0.3-13.1-1.3-17.7-2.4c-0.9-0.2-1.8-0.5-2.7-0.7
		c-0.6,1.6-2.1,2.7-3.8,2.7c-2.3,0-4.1-1.8-4.1-4.1c0-0.4,0.1-0.8,0.2-1.1c-2.8-1.1-4.6-2-5.5-2.5l-6.9,8.1c2.4,1.2,4.9,2.2,7.5,3.1
		C581.2,62.8,592.1,61,599.9,58.6z M592.8,36.9c-2.6-0.7-4.9-1.5-6.8-2.3c-0.5-0.2-1.1-0.5-1.6-0.7c-0.7,0.6-1.7,1-2.7,1
		c-2.3,0-4.1-1.8-4.1-4.1c0-0.2,0-0.4,0.1-0.6c-1.3-0.8-2.1-1.6-2.7-2l-9.3,10.9C573.4,39.7,583.3,39.6,592.8,36.9z M594.4,95.2
		c-6.7-0.8-12.3-2-16.7-3.2c-10.3-2.9-16.1-6.5-17.9-7.7l-10.5,12.4c2.9,1.4,5.9,2.7,9,3.8C572.2,100.1,584.5,97.8,594.4,95.2z
		 M584,32.2c0.2-0.4,0.4-0.9,0.4-1.4c0-1.5-1.2-2.7-2.7-2.7c-1,0-1.9,0.6-2.4,1.4C580.6,30.3,582.2,31.2,584,32.2z M588.9,75.3
		c-2-0.5-3.8-1-5.5-1.6c-9.7-3.1-16.3-7.2-18.2-8.5l-10,11.7C568.4,77.9,579.7,76.9,588.9,75.3z M581.7,33.5c0.4,0,0.8-0.1,1.2-0.3
		c-1.5-0.7-2.8-1.5-3.9-2.2C579.2,32.4,580.3,33.5,581.7,33.5z M578.4,53.7c-0.2-1.3-1.3-2.3-2.7-2.3c-0.7,0-1.4,0.3-1.9,0.8
		C575.2,52.7,576.7,53.2,578.4,53.7z M575.7,56.8c1.1,0,2.1-0.7,2.5-1.7c-1.9-0.6-3.6-1.1-5.1-1.7c-0.1,0.2-0.1,0.4-0.1,0.6
		C573,55.5,574.2,56.8,575.7,56.8z"/>
	<path class="st27" d="M605.7,42.1c2.3,0,4.1,1.8,4.1,4.1s-1.8,4.1-4.1,4.1c-2.3,0-4.1-1.8-4.1-4.1S603.5,42.1,605.7,42.1z
		 M608.4,46.2c0-1.5-1.2-2.7-2.7-2.7c-1.5,0-2.7,1.2-2.7,2.7c0,1.5,1.2,2.7,2.7,2.7C607.2,48.9,608.4,47.7,608.4,46.2z"/>
	<path class="st27" d="M606.2,107.3v6.5c0,0.3-0.2,0.6-0.6,0.7c-4,0.8-8.5,1.2-13.1,1.2c-4.6,0-9.1-0.4-13.1-1.2
		c-0.3-0.1-0.6-0.4-0.6-0.7v-6.5h1.4v5.9c3.8,0.7,8,1.1,12.2,1.1c4.3,0,8.5-0.4,12.2-1.1v-5.9H606.2z"/>
	<path class="st27" d="M597.2,17.5c2.3,0,4.1,1.8,4.1,4.1s-1.8,4.1-4.1,4.1c-2.3,0-4.1-1.8-4.1-4.1S595,17.5,597.2,17.5z
		 M599.9,21.6c0-1.5-1.2-2.7-2.7-2.7c-1.5,0-2.7,1.2-2.7,2.7c0,1.5,1.2,2.7,2.7,2.7C598.7,24.3,599.9,23.1,599.9,21.6z"/>
	<path class="st27" d="M596,62.6c2.3,0,4.1,1.8,4.1,4.1c0,2.3-1.8,4.1-4.1,4.1c-2.3,0-4.1-1.8-4.1-4.1
		C591.9,64.5,593.7,62.6,596,62.6z M598.7,66.7c0-1.5-1.2-2.7-2.7-2.7c-1.5,0-2.7,1.2-2.7,2.7c0,1.5,1.2,2.7,2.7,2.7
		C597.5,69.4,598.7,68.2,598.7,66.7z"/>
	<path class="st27" d="M581.7,81.3c2.3,0,4.1,1.8,4.1,4.1s-1.8,4.1-4.1,4.1c-2.3,0-4.1-1.8-4.1-4.1S579.4,81.3,581.7,81.3z
		 M584.4,85.4c0-1.5-1.2-2.7-2.7-2.7c-1.5,0-2.7,1.2-2.7,2.7c0,1.5,1.2,2.7,2.7,2.7C583.2,88.1,584.4,86.9,584.4,85.4z"/>
	<path class="st27" d="M560.7,90.1c2.3,0,4.1,1.8,4.1,4.1s-1.8,4.1-4.1,4.1s-4.1-1.8-4.1-4.1S558.4,90.1,560.7,90.1z M563.4,94.2
		c0-1.5-1.2-2.7-2.7-2.7c-1.5,0-2.7,1.2-2.7,2.7c0,1.5,1.2,2.7,2.7,2.7C562.1,96.9,563.4,95.7,563.4,94.2z"/>
</g>
</svg>
